<svg width="64" height="64" viewBox="0 0 24 24" fill="none" xmlns="http://www.w3.org/2000/svg">
<path opacity="0.99" d="M10.3118 16.0938C10.1805 16.094 10.0504 16.0682 9.92911 16.0179C9.80778 15.9676 9.69758 15.8938 9.60485 15.8008L6.79235 12.9884C6.60678 12.8004 6.50309 12.5468 6.50391 12.2827C6.50474 12.0186 6.61001 11.7655 6.79675 11.5788C6.98349 11.392 7.23653 11.2867 7.50063 11.2859C7.76472 11.2851 8.01843 11.3887 8.20635 11.5743L10.3118 13.6798L15.7923 8.1993C15.9803 8.01374 16.234 7.91006 16.4981 7.91089C16.7622 7.91173 17.0152 8.01702 17.2019 8.20376C17.3887 8.39051 17.494 8.64356 17.4948 8.90765C17.4956 9.17175 17.3919 9.42545 17.2063 9.61336L11.0188 15.8009C10.9261 15.8939 10.8159 15.9676 10.6946 16.0179C10.5733 16.0682 10.4432 16.094 10.3118 16.0938Z" fill="#E2FFF3"/>
<path d="M12 2C10.0222 2 8.08879 2.58649 6.4443 3.6853C4.79981 4.78412 3.51809 6.3459 2.76121 8.17317C2.00433 10.0004 1.8063 12.0111 2.19215 13.9509C2.578 15.8907 3.53041 17.6725 4.92894 19.0711C6.32746 20.4696 8.10929 21.422 10.0491 21.8079C11.9889 22.1937 13.9996 21.9957 15.8268 21.2388C17.6541 20.4819 19.2159 19.2002 20.3147 17.5557C21.4135 15.9112 22 13.9778 22 12C21.997 9.34877 20.9424 6.80699 19.0677 4.93228C17.193 3.05758 14.6512 2.00303 12 2ZM17.207 9.61328L11.0195 15.8008C10.9267 15.8937 10.8165 15.9673 10.6951 16.0176C10.5738 16.0679 10.4438 16.0938 10.3125 16.0938C10.1812 16.0938 10.0511 16.0679 9.92981 16.0176C9.8085 15.9673 9.69828 15.8937 9.60544 15.8008L6.793 12.9883C6.60743 12.8004 6.50374 12.5467 6.50457 12.2826C6.50539 12.0185 6.61067 11.7654 6.79741 11.5787C6.98415 11.3919 7.23719 11.2867 7.50129 11.2858C7.76538 11.285 8.01908 11.3887 8.207 11.5742L10.3125 13.6797L15.793 8.19922C15.9809 8.01366 16.2346 7.90998 16.4987 7.91081C16.7628 7.91165 17.0159 8.01694 17.2026 8.20368C17.3893 8.39043 17.4946 8.64348 17.4954 8.90757C17.4963 9.17167 17.3926 9.42537 17.207 9.61328Z" fill="#00C572"/>
</svg>
