<svg width="120" height="120" viewBox="0 0 120 120" fill="none" xmlns="http://www.w3.org/2000/svg">
<path d="M92.0992 41.0995C89.0442 34.0795 83.7716 28.2549 77.0896 24.5181C70.4075 20.7814 62.6845 19.3386 55.104 20.411C47.5236 21.4834 40.5038 25.0117 35.1205 30.4554C29.7371 35.899 26.2872 42.9575 25.2992 50.5495C20.5321 51.6911 16.3503 54.5436 13.5479 58.5654C10.7455 62.5872 9.51763 67.4981 10.0975 72.3656C10.6774 77.233 13.0247 81.718 16.6935 84.9688C20.3624 88.2196 25.0974 90.0098 29.9992 89.9995C31.3253 89.9995 32.5971 89.4727 33.5347 88.535C34.4724 87.5973 34.9992 86.3256 34.9992 84.9995C34.9992 83.6734 34.4724 82.4016 33.5347 81.4639C32.5971 80.5263 31.3253 79.9995 29.9992 79.9995C27.347 79.9995 24.8035 78.9459 22.9281 77.0705C21.0528 75.1952 19.9992 72.6516 19.9992 69.9995C19.9992 67.3473 21.0528 64.8038 22.9281 62.9284C24.8035 61.053 27.347 59.9995 29.9992 59.9995C31.3253 59.9995 32.5971 59.4727 33.5347 58.535C34.4724 57.5973 34.9992 56.3256 34.9992 54.9995C35.012 49.0859 37.1206 43.3682 40.9506 38.8624C44.7805 34.3565 50.0837 31.3542 55.918 30.3888C61.7523 29.4235 67.7399 30.5575 72.8171 33.5895C77.8942 36.6215 81.7323 41.3552 83.6492 46.9495C83.935 47.8087 84.4488 48.5741 85.1357 49.1641C85.8225 49.7542 86.6567 50.1466 87.5492 50.2995C90.8795 50.9288 93.8986 52.6675 96.1143 55.2321C98.3301 57.7968 99.612 61.0363 99.7512 64.4227C99.8904 67.8091 98.8786 71.1428 96.8807 73.8806C94.8829 76.6185 92.0167 78.599 88.7492 79.4995C87.4629 79.831 86.361 80.6599 85.6859 81.8039C85.0107 82.9479 84.8177 84.3132 85.1492 85.5995C85.4807 86.8858 86.3097 87.9877 87.4536 88.6628C88.5976 89.338 89.9629 89.531 91.2492 89.1995C96.5112 87.809 101.176 84.7394 104.534 80.4568C107.893 76.1742 109.762 70.9125 109.858 65.4708C109.955 60.0291 108.272 54.7047 105.067 50.3061C101.862 45.9075 97.3087 42.675 92.0992 41.0995ZM63.5492 51.4495C63.0737 50.9943 62.513 50.6374 61.8992 50.3995C60.6819 49.8994 59.3165 49.8994 58.0992 50.3995C57.4855 50.6374 56.9247 50.9943 56.4492 51.4495L41.4492 66.4495C40.5077 67.391 39.9788 68.668 39.9788 69.9995C39.9788 71.331 40.5077 72.608 41.4492 73.5495C42.3907 74.491 43.6677 75.0199 44.9992 75.0199C46.3307 75.0199 47.6077 74.491 48.5492 73.5495L54.9992 67.0495V94.9995C54.9992 96.3256 55.526 97.5973 56.4637 98.535C57.4014 99.4727 58.6731 99.9995 59.9992 99.9995C61.3253 99.9995 62.5971 99.4727 63.5347 98.535C64.4724 97.5973 64.9992 96.3256 64.9992 94.9995V67.0495L71.4492 73.5495C71.914 74.0181 72.467 74.3901 73.0763 74.6439C73.6856 74.8978 74.3392 75.0285 74.9992 75.0285C75.6593 75.0285 76.3128 74.8978 76.9221 74.6439C77.5314 74.3901 78.0844 74.0181 78.5492 73.5495C79.0179 73.0847 79.3898 72.5317 79.6437 71.9224C79.8975 71.3131 80.0282 70.6595 80.0282 69.9995C80.0282 69.3394 79.8975 68.6859 79.6437 68.0766C79.3898 67.4673 79.0179 66.9143 78.5492 66.4495L63.5492 51.4495Z" fill="#888888"/>
</svg>
