<svg width="49" height="48" viewBox="0 0 49 48" fill="none" xmlns="http://www.w3.org/2000/svg">
<path d="M18.8834 20H20.8757C21.4041 20 21.9109 19.7893 22.2845 19.4142C22.6581 19.0391 22.868 18.5304 22.868 18C22.868 17.4696 22.6581 16.9609 22.2845 16.5858C21.9109 16.2107 21.4041 16 20.8757 16H18.8834C18.355 16 17.8483 16.2107 17.4746 16.5858C17.101 16.9609 16.8911 17.4696 16.8911 18C16.8911 18.5304 17.101 19.0391 17.4746 19.4142C17.8483 19.7893 18.355 20 18.8834 20ZM18.8834 24C18.355 24 17.8483 24.2107 17.4746 24.5858C17.101 24.9609 16.8911 25.4696 16.8911 26C16.8911 26.5304 17.101 27.0391 17.4746 27.4142C17.8483 27.7893 18.355 28 18.8834 28H30.8373C31.3657 28 31.8724 27.7893 32.246 27.4142C32.6197 27.0391 32.8296 26.5304 32.8296 26C32.8296 25.4696 32.6197 24.9609 32.246 24.5858C31.8724 24.2107 31.3657 24 30.8373 24H18.8834ZM40.7988 17.88C40.778 17.6963 40.738 17.5153 40.6793 17.34V17.16C40.5835 16.9544 40.4557 16.7653 40.3007 16.6L28.3469 4.6C28.1822 4.44443 27.9939 4.31616 27.789 4.22C27.7296 4.21152 27.6692 4.21152 27.6097 4.22C27.4073 4.10348 27.1838 4.02869 26.9523 4H14.8988C13.3136 4 11.7934 4.63214 10.6725 5.75736C9.55158 6.88258 8.92188 8.4087 8.92188 10V38C8.92188 39.5913 9.55158 41.1174 10.6725 42.2426C11.7934 43.3679 13.3136 44 14.8988 44H34.8219C36.4071 44 37.9273 43.3679 39.0482 42.2426C40.1691 41.1174 40.7988 39.5913 40.7988 38V18C40.7988 18 40.7988 18 40.7988 17.88ZM28.845 10.82L34.005 16H30.8373C30.3089 16 29.8021 15.7893 29.4285 15.4142C29.0549 15.0391 28.845 14.5304 28.845 14V10.82ZM36.8142 38C36.8142 38.5304 36.6043 39.0391 36.2306 39.4142C35.857 39.7893 35.3503 40 34.8219 40H14.8988C14.3704 40 13.8637 39.7893 13.49 39.4142C13.1164 39.0391 12.9065 38.5304 12.9065 38V10C12.9065 9.46957 13.1164 8.96086 13.49 8.58579C13.8637 8.21071 14.3704 8 14.8988 8H24.8603V14C24.8603 15.5913 25.49 17.1174 26.6109 18.2426C27.7318 19.3679 29.2521 20 30.8373 20H36.8142V38ZM30.8373 32H18.8834C18.355 32 17.8483 32.2107 17.4746 32.5858C17.101 32.9609 16.8911 33.4696 16.8911 34C16.8911 34.5304 17.101 35.0391 17.4746 35.4142C17.8483 35.7893 18.355 36 18.8834 36H30.8373C31.3657 36 31.8724 35.7893 32.246 35.4142C32.6197 35.0391 32.8296 34.5304 32.8296 34C32.8296 33.4696 32.6197 32.9609 32.246 32.5858C31.8724 32.2107 31.3657 32 30.8373 32Z" fill="#AAAAAA"/>
</svg>
