<svg width="16" height="16" viewBox="0 0 16 16" fill="none" xmlns="http://www.w3.org/2000/svg">
<path d="M7.9987 14.6668C11.6806 14.6668 14.6654 11.6821 14.6654 8.00016C14.6654 4.31826 11.6806 1.3335 7.9987 1.3335C4.3168 1.3335 1.33203 4.31826 1.33203 8.00016C1.33203 11.6821 4.3168 14.6668 7.9987 14.6668Z" fill="white"/>
<path d="M7.9987 11.3333C8.36689 11.3333 8.66536 11.0349 8.66536 10.6667C8.66536 10.2985 8.36689 10 7.9987 10C7.63051 10 7.33203 10.2985 7.33203 10.6667C7.33203 11.0349 7.63051 11.3333 7.9987 11.3333Z" fill="#165F66"/>
<path d="M7.9987 8.6665C7.82189 8.6665 7.65232 8.59627 7.52729 8.47124C7.40227 8.34622 7.33203 8.17665 7.33203 7.99984V5.33317C7.33203 5.15636 7.40227 4.98679 7.52729 4.86177C7.65232 4.73674 7.82189 4.6665 7.9987 4.6665C8.17551 4.6665 8.34508 4.73674 8.4701 4.86177C8.59513 4.98679 8.66536 5.15636 8.66536 5.33317V7.99984C8.66536 8.17665 8.59513 8.34622 8.4701 8.47124C8.34508 8.59627 8.17551 8.6665 7.9987 8.6665Z" fill="#165F66"/>
</svg>
