<svg width="16" height="16" viewBox="0 0 16 16" fill="none" xmlns="http://www.w3.org/2000/svg">
<path d="M12.6667 2.66667H10V2C10 1.46957 9.78929 0.960859 9.41421 0.585786C9.03914 0.210714 8.53043 0 8 0C7.46957 0 6.96086 0.210714 6.58579 0.585786C6.21071 0.960859 6 1.46957 6 2V2.66667H3.33333C2.4496 2.66773 1.60237 3.01925 0.97748 3.64415C0.352588 4.26904 0.00105857 5.11627 0 6L0 12.6667C0.00105857 13.5504 0.352588 14.3976 0.97748 15.0225C1.60237 15.6474 2.4496 15.9989 3.33333 16H12.6667C13.5504 15.9989 14.3976 15.6474 15.0225 15.0225C15.6474 14.3976 15.9989 13.5504 16 12.6667V6C15.9989 5.11627 15.6474 4.26904 15.0225 3.64415C14.3976 3.01925 13.5504 2.66773 12.6667 2.66667ZM7.33333 2C7.33333 1.82319 7.40357 1.65362 7.5286 1.5286C7.65362 1.40357 7.82319 1.33333 8 1.33333C8.17681 1.33333 8.34638 1.40357 8.47141 1.5286C8.59643 1.65362 8.66667 1.82319 8.66667 2V3.33333C8.66667 3.51014 8.59643 3.67971 8.47141 3.80474C8.34638 3.92976 8.17681 4 8 4C7.82319 4 7.65362 3.92976 7.5286 3.80474C7.40357 3.67971 7.33333 3.51014 7.33333 3.33333V2ZM14.6667 12.6667C14.6667 13.1971 14.456 13.7058 14.0809 14.0809C13.7058 14.456 13.1971 14.6667 12.6667 14.6667H3.33333C2.8029 14.6667 2.29419 14.456 1.91912 14.0809C1.54405 13.7058 1.33333 13.1971 1.33333 12.6667V6C1.33333 5.46957 1.54405 4.96086 1.91912 4.58579C2.29419 4.21071 2.8029 4 3.33333 4H6.12267C6.25843 4.3897 6.5121 4.72749 6.8485 4.96651C7.18489 5.20554 7.58733 5.33396 8 5.33396C8.41267 5.33396 8.81511 5.20554 9.1515 4.96651C9.4879 4.72749 9.74157 4.3897 9.87733 4H12.6667C13.1971 4 13.7058 4.21071 14.0809 4.58579C14.456 4.96086 14.6667 5.46957 14.6667 6V12.6667ZM6.66667 6.66667H3.33333C3.15652 6.66667 2.98695 6.73691 2.86193 6.86193C2.7369 6.98695 2.66667 7.15652 2.66667 7.33333V12.6667C2.66667 12.8435 2.7369 13.013 2.86193 13.1381C2.98695 13.2631 3.15652 13.3333 3.33333 13.3333H6.66667C6.84348 13.3333 7.01305 13.2631 7.13807 13.1381C7.2631 13.013 7.33333 12.8435 7.33333 12.6667V7.33333C7.33333 7.15652 7.2631 6.98695 7.13807 6.86193C7.01305 6.73691 6.84348 6.66667 6.66667 6.66667ZM6 12H4V8H6V12ZM13.3333 10C13.3333 10.1768 13.2631 10.3464 13.1381 10.4714C13.013 10.5964 12.8435 10.6667 12.6667 10.6667H9.33333C9.15652 10.6667 8.98695 10.5964 8.86193 10.4714C8.73691 10.3464 8.66667 10.1768 8.66667 10C8.66667 9.82319 8.73691 9.65362 8.86193 9.5286C8.98695 9.40357 9.15652 9.33333 9.33333 9.33333H12.6667C12.8435 9.33333 13.013 9.40357 13.1381 9.5286C13.2631 9.65362 13.3333 9.82319 13.3333 10ZM13.3333 7.33333C13.3333 7.51014 13.2631 7.67971 13.1381 7.80474C13.013 7.92976 12.8435 8 12.6667 8H9.33333C9.15652 8 8.98695 7.92976 8.86193 7.80474C8.73691 7.67971 8.66667 7.51014 8.66667 7.33333C8.66667 7.15652 8.73691 6.98695 8.86193 6.86193C8.98695 6.73691 9.15652 6.66667 9.33333 6.66667H12.6667C12.8435 6.66667 13.013 6.73691 13.1381 6.86193C13.2631 6.98695 13.3333 7.15652 13.3333 7.33333ZM12 12.6667C12 12.8435 11.9298 13.013 11.8047 13.1381C11.6797 13.2631 11.5101 13.3333 11.3333 13.3333H9.33333C9.15652 13.3333 8.98695 13.2631 8.86193 13.1381C8.73691 13.013 8.66667 12.8435 8.66667 12.6667C8.66667 12.4899 8.73691 12.3203 8.86193 12.1953C8.98695 12.0702 9.15652 12 9.33333 12H11.3333C11.5101 12 11.6797 12.0702 11.8047 12.1953C11.9298 12.3203 12 12.4899 12 12.6667Z" fill="white"/>
</svg>
