<svg width="25" height="24" viewBox="0 0 25 24" fill="none" xmlns="http://www.w3.org/2000/svg">
<path d="M10.1235 18C10.3877 18 10.641 17.8946 10.8279 17.7071C11.0147 17.5196 11.1196 17.2652 11.1196 17V11C11.1196 10.7348 11.0147 10.4804 10.8279 10.2929C10.641 10.1054 10.3877 10 10.1235 10C9.85927 10 9.6059 10.1054 9.41908 10.2929C9.23227 10.4804 9.12731 10.7348 9.12731 11V17C9.12731 17.2652 9.23227 17.5196 9.41908 17.7071C9.6059 17.8946 9.85927 18 10.1235 18ZM20.085 6H16.1004V5C16.1004 4.20435 15.7855 3.44129 15.2251 2.87868C14.6646 2.31607 13.9045 2 13.1119 2H11.1196C10.327 2 9.56691 2.31607 9.00646 2.87868C8.44601 3.44129 8.13116 4.20435 8.13116 5V6H4.14654C3.88235 6 3.62897 6.10536 3.44216 6.29289C3.25534 6.48043 3.15039 6.73478 3.15039 7C3.15039 7.26522 3.25534 7.51957 3.44216 7.70711C3.62897 7.89464 3.88235 8 4.14654 8H5.1427V19C5.1427 19.7956 5.45755 20.5587 6.018 21.1213C6.57844 21.6839 7.33857 22 8.13116 22H16.1004C16.893 22 17.6531 21.6839 18.2136 21.1213C18.774 20.5587 19.0889 19.7956 19.0889 19V8H20.085C20.3492 8 20.6026 7.89464 20.7894 7.70711C20.9762 7.51957 21.0812 7.26522 21.0812 7C21.0812 6.73478 20.9762 6.48043 20.7894 6.29289C20.6026 6.10536 20.3492 6 20.085 6ZM10.1235 5C10.1235 4.73478 10.2284 4.48043 10.4152 4.29289C10.6021 4.10536 10.8554 4 11.1196 4H13.1119C13.3761 4 13.6295 4.10536 13.8163 4.29289C14.0031 4.48043 14.1081 4.73478 14.1081 5V6H10.1235V5ZM17.0965 19C17.0965 19.2652 16.9916 19.5196 16.8048 19.7071C16.618 19.8946 16.3646 20 16.1004 20H8.13116C7.86696 20 7.61359 19.8946 7.42677 19.7071C7.23996 19.5196 7.13501 19.2652 7.13501 19V8H17.0965V19ZM14.1081 18C14.3723 18 14.6257 17.8946 14.8125 17.7071C14.9993 17.5196 15.1042 17.2652 15.1042 17V11C15.1042 10.7348 14.9993 10.4804 14.8125 10.2929C14.6257 10.1054 14.3723 10 14.1081 10C13.8439 10 13.5905 10.1054 13.4037 10.2929C13.2169 10.4804 13.1119 10.7348 13.1119 11V17C13.1119 17.2652 13.2169 17.5196 13.4037 17.7071C13.5905 17.8946 13.8439 18 14.1081 18Z" fill="#ED1C24"/>
</svg>
