<svg width="440" height="128" viewBox="0 0 440 128" fill="none" xmlns="http://www.w3.org/2000/svg">
<g filter="url(#filter0_d_3733_91999)">
<rect x="16" y="12" width="408" height="96" rx="24" fill="white"/>
<rect x="16.5" y="12.5" width="407" height="95" rx="23.5" stroke="#F4F4F4"/>
</g>
<path d="M395.469 67.5316C395.32 67.383 395.202 67.2065 395.122 67.0124C395.041 66.8182 395 66.61 395 66.3998C395 66.1896 395.041 65.9815 395.122 65.7873C395.202 65.5931 395.32 65.4167 395.469 65.2681L400.36 60.3765C400.46 60.2765 400.516 60.1409 400.516 59.9994C400.516 59.858 400.46 59.7224 400.36 59.6224L395.469 54.7318C395.169 54.4318 395 54.0249 395 53.6005C395 53.1761 395.168 52.7691 395.468 52.4689C395.768 52.1688 396.175 52.0001 396.6 52C397.024 51.9999 397.431 52.1684 397.731 52.4684L402.623 57.36C402.97 57.7067 403.245 58.1183 403.432 58.5712C403.62 59.0242 403.717 59.5097 403.717 60C403.717 60.4903 403.62 60.9758 403.432 61.4287C403.245 61.8817 402.97 62.2932 402.623 62.6399L397.731 67.5316C397.431 67.8315 397.024 68 396.6 68C396.176 68 395.769 67.8315 395.469 67.5316Z" fill="#444444"/>
<path d="M118.34 66.18C117.233 66.18 116.22 66.04 115.3 65.76C114.38 65.4667 113.6 65.06 112.96 64.54L113.62 62.9C114.287 63.4067 115 63.7867 115.76 64.04C116.52 64.2933 117.38 64.42 118.34 64.42C119.473 64.42 120.307 64.22 120.84 63.82C121.387 63.4067 121.66 62.8733 121.66 62.22C121.66 61.6867 121.467 61.2667 121.08 60.96C120.693 60.64 120.047 60.3867 119.14 60.2L117 59.76C115.733 59.4933 114.787 59.0533 114.16 58.44C113.547 57.8267 113.24 57 113.24 55.96C113.24 55.12 113.46 54.38 113.9 53.74C114.353 53.1 114.98 52.6067 115.78 52.26C116.58 51.9 117.5 51.72 118.54 51.72C119.5 51.72 120.387 51.8667 121.2 52.16C122.027 52.44 122.727 52.8533 123.3 53.4L122.62 54.98C121.487 53.98 120.12 53.48 118.52 53.48C117.533 53.48 116.747 53.7 116.16 54.14C115.587 54.58 115.3 55.1667 115.3 55.9C115.3 56.46 115.48 56.9067 115.84 57.24C116.2 57.5733 116.8 57.8267 117.64 58L119.76 58.44C121.093 58.72 122.087 59.1533 122.74 59.74C123.393 60.3133 123.72 61.0933 123.72 62.08C123.72 62.9067 123.5 63.6267 123.06 64.24C122.62 64.8533 122 65.3333 121.2 65.68C120.4 66.0133 119.447 66.18 118.34 66.18ZM130.441 66.18C128.841 66.18 127.581 65.7333 126.661 64.84C125.741 63.9333 125.281 62.7 125.281 61.14C125.281 60.14 125.481 59.26 125.881 58.5C126.295 57.7267 126.861 57.1267 127.581 56.7C128.301 56.2733 129.128 56.06 130.061 56.06C131.408 56.06 132.468 56.4933 133.241 57.36C134.015 58.2133 134.401 59.3933 134.401 60.9V61.58H127.241C127.388 63.6067 128.461 64.62 130.461 64.62C131.021 64.62 131.568 64.5333 132.101 64.36C132.648 64.1867 133.161 63.9 133.641 63.5L134.241 64.9C133.801 65.3 133.235 65.6133 132.541 65.84C131.848 66.0667 131.148 66.18 130.441 66.18ZM130.141 57.48C129.301 57.48 128.635 57.74 128.141 58.26C127.648 58.78 127.348 59.4733 127.241 60.34H132.701C132.661 59.4333 132.421 58.7333 131.981 58.24C131.541 57.7333 130.928 57.48 130.141 57.48ZM136.604 66V56.24H138.564V57.86C138.897 57.2733 139.35 56.8267 139.924 56.52C140.51 56.2133 141.164 56.06 141.884 56.06C144.19 56.06 145.344 57.3667 145.344 59.98V66H143.324V60.1C143.324 59.26 143.157 58.6467 142.824 58.26C142.504 57.8733 141.997 57.68 141.304 57.68C140.49 57.68 139.837 57.94 139.344 58.46C138.864 58.9667 138.624 59.64 138.624 60.48V66H136.604ZM151.847 66.18C150.994 66.18 150.24 65.98 149.587 65.58C148.947 65.1667 148.447 64.58 148.087 63.82C147.727 63.06 147.547 62.16 147.547 61.12C147.547 60.08 147.727 59.1867 148.087 58.44C148.447 57.68 148.947 57.0933 149.587 56.68C150.227 56.2667 150.98 56.06 151.847 56.06C152.58 56.06 153.234 56.22 153.807 56.54C154.38 56.86 154.807 57.2933 155.087 57.84V51.9H157.107V66H155.127V64.3C154.847 64.8867 154.414 65.3467 153.827 65.68C153.254 66.0133 152.594 66.18 151.847 66.18ZM152.367 64.62C153.194 64.62 153.86 64.32 154.367 63.72C154.874 63.12 155.127 62.2533 155.127 61.12C155.127 59.9867 154.874 59.1267 154.367 58.54C153.86 57.94 153.194 57.64 152.367 57.64C151.527 57.64 150.854 57.94 150.347 58.54C149.84 59.1267 149.587 59.9867 149.587 61.12C149.587 62.2533 149.84 63.12 150.347 63.72C150.854 64.32 151.527 64.62 152.367 64.62ZM169.877 66L163.657 51.9H165.877L170.817 63.38L175.757 51.9H177.877L171.657 66H169.877ZM179.021 53.98V51.88H181.381V53.98H179.021ZM179.201 66V56.24H181.221V66H179.201ZM187.185 66.18C186.505 66.18 185.898 66.0467 185.365 65.78C184.831 65.5133 184.405 65.1533 184.085 64.7C183.778 64.2467 183.625 63.7333 183.625 63.16C183.625 62.44 183.805 61.8733 184.165 61.46C184.538 61.0467 185.145 60.7467 185.985 60.56C186.838 60.3733 187.985 60.28 189.425 60.28H190.105V59.76C190.105 59 189.945 58.4533 189.625 58.12C189.305 57.7867 188.778 57.62 188.045 57.62C187.485 57.62 186.925 57.7067 186.365 57.88C185.805 58.04 185.231 58.3 184.645 58.66L184.025 57.24C184.531 56.88 185.165 56.5933 185.925 56.38C186.685 56.1667 187.411 56.06 188.105 56.06C189.438 56.06 190.425 56.38 191.065 57.02C191.705 57.6467 192.025 58.6333 192.025 59.98V66H190.125V64.38C189.885 64.94 189.511 65.38 189.005 65.7C188.498 66.02 187.891 66.18 187.185 66.18ZM187.585 64.74C188.305 64.74 188.905 64.4867 189.385 63.98C189.865 63.4733 190.105 62.8333 190.105 62.06V61.52H189.445C188.471 61.52 187.705 61.5667 187.145 61.66C186.598 61.7533 186.205 61.9133 185.965 62.14C185.738 62.3533 185.625 62.6533 185.625 63.04C185.625 63.5467 185.798 63.96 186.145 64.28C186.491 64.5867 186.971 64.74 187.585 64.74ZM204.121 66L199.181 51.9H201.301L205.081 63L208.961 51.9H210.541L214.381 63.12L218.241 51.9H220.261L215.281 66H213.541L209.721 55.04L205.861 66H204.121ZM222.209 66V51.9H224.229V57.76C224.562 57.2 225.009 56.78 225.569 56.5C226.142 56.2067 226.782 56.06 227.489 56.06C229.796 56.06 230.949 57.3667 230.949 59.98V66H228.929V60.1C228.929 59.26 228.762 58.6467 228.429 58.26C228.109 57.8733 227.602 57.68 226.909 57.68C226.096 57.68 225.442 57.94 224.949 58.46C224.469 58.9667 224.229 59.64 224.229 60.48V66H222.209ZM236.853 66.18C236.173 66.18 235.566 66.0467 235.033 65.78C234.499 65.5133 234.073 65.1533 233.753 64.7C233.446 64.2467 233.293 63.7333 233.293 63.16C233.293 62.44 233.473 61.8733 233.833 61.46C234.206 61.0467 234.813 60.7467 235.653 60.56C236.506 60.3733 237.653 60.28 239.093 60.28H239.773V59.76C239.773 59 239.613 58.4533 239.293 58.12C238.973 57.7867 238.446 57.62 237.713 57.62C237.153 57.62 236.593 57.7067 236.033 57.88C235.473 58.04 234.899 58.3 234.313 58.66L233.693 57.24C234.199 56.88 234.833 56.5933 235.593 56.38C236.353 56.1667 237.079 56.06 237.773 56.06C239.106 56.06 240.093 56.38 240.733 57.02C241.373 57.6467 241.693 58.6333 241.693 59.98V66H239.793V64.38C239.553 64.94 239.179 65.38 238.673 65.7C238.166 66.02 237.559 66.18 236.853 66.18ZM237.253 64.74C237.973 64.74 238.573 64.4867 239.053 63.98C239.533 63.4733 239.773 62.8333 239.773 62.06V61.52H239.113C238.139 61.52 237.373 61.5667 236.813 61.66C236.266 61.7533 235.873 61.9133 235.633 62.14C235.406 62.3533 235.293 62.6533 235.293 63.04C235.293 63.5467 235.466 63.96 235.813 64.28C236.159 64.5867 236.639 64.74 237.253 64.74ZM248.635 66.18C247.408 66.18 246.495 65.8667 245.895 65.24C245.295 64.6133 244.995 63.7067 244.995 62.52V57.8H243.095V56.24H244.995V53.3H247.015V56.24H250.035V57.8H247.015V62.36C247.015 63.0667 247.161 63.6 247.455 63.96C247.761 64.32 248.255 64.5 248.935 64.5C249.148 64.5 249.355 64.48 249.555 64.44C249.755 64.3867 249.955 64.3267 250.155 64.26L250.475 65.78C250.275 65.9 249.995 65.9933 249.635 66.06C249.288 66.14 248.955 66.18 248.635 66.18ZM255.199 66.18C254.399 66.18 253.653 66.08 252.959 65.88C252.266 65.6667 251.686 65.3733 251.219 65L251.799 63.64C252.293 63.9867 252.833 64.2533 253.419 64.44C254.019 64.6267 254.619 64.72 255.219 64.72C255.926 64.72 256.459 64.5933 256.819 64.34C257.179 64.0867 257.359 63.7467 257.359 63.32C257.359 62.9733 257.239 62.7067 256.999 62.52C256.759 62.32 256.399 62.1667 255.919 62.06L254.019 61.68C252.339 61.3333 251.499 60.4667 251.499 59.08C251.499 58.16 251.866 57.4267 252.599 56.88C253.333 56.3333 254.293 56.06 255.479 56.06C256.159 56.06 256.806 56.16 257.419 56.36C258.046 56.56 258.566 56.86 258.979 57.26L258.399 58.62C257.999 58.2733 257.539 58.0067 257.019 57.82C256.499 57.6333 255.986 57.54 255.479 57.54C254.786 57.54 254.259 57.6733 253.899 57.94C253.539 58.1933 253.359 58.54 253.359 58.98C253.359 59.6467 253.799 60.0733 254.679 60.26L256.579 60.64C257.446 60.8133 258.099 61.1067 258.539 61.52C258.993 61.9333 259.219 62.4933 259.219 63.2C259.219 64.1333 258.853 64.8667 258.119 65.4C257.386 65.92 256.413 66.18 255.199 66.18ZM264.587 66.18C263.907 66.18 263.3 66.0467 262.767 65.78C262.234 65.5133 261.807 65.1533 261.487 64.7C261.18 64.2467 261.027 63.7333 261.027 63.16C261.027 62.44 261.207 61.8733 261.567 61.46C261.94 61.0467 262.547 60.7467 263.387 60.56C264.24 60.3733 265.387 60.28 266.827 60.28H267.507V59.76C267.507 59 267.347 58.4533 267.027 58.12C266.707 57.7867 266.18 57.62 265.447 57.62C264.887 57.62 264.327 57.7067 263.767 57.88C263.207 58.04 262.634 58.3 262.047 58.66L261.427 57.24C261.934 56.88 262.567 56.5933 263.327 56.38C264.087 56.1667 264.814 56.06 265.507 56.06C266.84 56.06 267.827 56.38 268.467 57.02C269.107 57.6467 269.427 58.6333 269.427 59.98V66H267.527V64.38C267.287 64.94 266.914 65.38 266.407 65.7C265.9 66.02 265.294 66.18 264.587 66.18ZM264.987 64.74C265.707 64.74 266.307 64.4867 266.787 63.98C267.267 63.4733 267.507 62.8333 267.507 62.06V61.52H266.847C265.874 61.52 265.107 61.5667 264.547 61.66C264 61.7533 263.607 61.9133 263.367 62.14C263.14 62.3533 263.027 62.6533 263.027 63.04C263.027 63.5467 263.2 63.96 263.547 64.28C263.894 64.5867 264.374 64.74 264.987 64.74ZM272.209 69.6V56.24H274.189V57.9C274.469 57.34 274.896 56.8933 275.469 56.56C276.042 56.2267 276.702 56.06 277.449 56.06C278.316 56.06 279.069 56.2667 279.709 56.68C280.362 57.0933 280.862 57.68 281.209 58.44C281.569 59.1867 281.749 60.08 281.749 61.12C281.749 62.16 281.569 63.06 281.209 63.82C280.862 64.58 280.362 65.1667 279.709 65.58C279.069 65.98 278.316 66.18 277.449 66.18C276.729 66.18 276.082 66.0267 275.509 65.72C274.949 65.4 274.522 64.9667 274.229 64.42V69.6H272.209ZM276.949 64.62C277.789 64.62 278.456 64.32 278.949 63.72C279.456 63.12 279.709 62.2533 279.709 61.12C279.709 59.9867 279.456 59.1267 278.949 58.54C278.456 57.94 277.789 57.64 276.949 57.64C276.109 57.64 275.436 57.94 274.929 58.54C274.436 59.1267 274.189 59.9867 274.189 61.12C274.189 62.2533 274.436 63.12 274.929 63.72C275.436 64.32 276.109 64.62 276.949 64.62ZM284.025 69.6V56.24H286.005V57.9C286.285 57.34 286.712 56.8933 287.285 56.56C287.859 56.2267 288.519 56.06 289.265 56.06C290.132 56.06 290.885 56.2667 291.525 56.68C292.179 57.0933 292.679 57.68 293.025 58.44C293.385 59.1867 293.565 60.08 293.565 61.12C293.565 62.16 293.385 63.06 293.025 63.82C292.679 64.58 292.179 65.1667 291.525 65.58C290.885 65.98 290.132 66.18 289.265 66.18C288.545 66.18 287.899 66.0267 287.325 65.72C286.765 65.4 286.339 64.9667 286.045 64.42V69.6H284.025ZM288.765 64.62C289.605 64.62 290.272 64.32 290.765 63.72C291.272 63.12 291.525 62.2533 291.525 61.12C291.525 59.9867 291.272 59.1267 290.765 58.54C290.272 57.94 289.605 57.64 288.765 57.64C287.925 57.64 287.252 57.94 286.745 58.54C286.252 59.1267 286.005 59.9867 286.005 61.12C286.005 62.2533 286.252 63.12 286.745 63.72C287.252 64.32 287.925 64.62 288.765 64.62Z" fill="black"/>
<circle cx="64" cy="60" r="28" fill="#F4FBFC"/>
<path d="M77.3203 52.7301C77.309 52.158 77.2629 51.5872 77.1823 51.0207C77.0867 50.5174 76.9242 50.0292 76.6992 49.569C76.2058 48.5938 75.4142 47.8013 74.4395 47.3068C73.982 47.0824 73.4966 46.92 72.9962 46.824C72.4254 46.7417 71.8501 46.6948 71.2735 46.6834C71.0289 46.6745 70.7123 46.6701 70.5662 46.6701L57.4359 46.668C57.2904 46.668 56.9738 46.6724 56.7289 46.6811C56.1568 46.6923 55.5859 46.7384 55.0195 46.8191C54.5162 46.9147 54.028 47.0771 53.5678 47.3021C52.5926 47.7956 51.8001 48.5872 51.3055 49.5619C51.0812 50.0194 50.9188 50.5048 50.8227 51.0052C50.7405 51.576 50.6935 52.1513 50.682 52.7279C50.6733 52.9725 50.6689 53.2891 50.6689 53.4351L50.6667 66.5654C50.6667 66.7109 50.6711 67.0275 50.6799 67.2725C50.6911 67.8446 50.7372 68.4154 50.8179 68.9819C50.9135 69.4852 51.0759 69.9734 51.3009 70.4336C51.7944 71.4088 52.586 72.2012 53.5606 72.6958C54.0182 72.9201 54.5036 73.0825 55.004 73.1786C55.5748 73.2609 56.1501 73.3078 56.7267 73.3193C56.9712 73.3281 57.2879 73.3325 57.4339 73.3325L70.5642 73.3346C70.7096 73.3346 71.0264 73.3302 71.2712 73.3215C71.8433 73.3102 72.4142 73.2642 72.9807 73.1835C73.4839 73.0878 73.9721 72.9254 74.4323 72.7005C75.4075 72.207 76.2 71.4154 76.6946 70.4407C76.9189 69.9832 77.0813 69.4978 77.1774 68.9974C77.2596 68.4266 77.3066 67.8513 77.3181 67.2747C77.3269 67.0301 77.3313 66.7135 77.3313 66.5675L77.3334 53.4372C77.3334 53.2917 77.329 52.975 77.3203 52.7301ZM64.2891 69.2766H64.2852C62.6981 69.2765 61.1364 68.8789 59.7426 68.12L54.7035 69.4414L56.0521 64.5172C55.0073 62.7044 54.5898 60.5975 54.8643 58.5233C55.1388 56.4491 56.0899 54.5233 57.5702 53.0447C59.0505 51.566 60.9773 50.617 63.0518 50.3449C65.1264 50.0727 67.2327 50.4926 69.0444 51.5393C70.856 52.5861 72.2717 54.2014 73.0719 56.1346C73.8721 58.0678 74.0122 60.2111 73.4704 62.232C72.9286 64.253 71.7352 66.0387 70.0752 67.3124C68.4152 68.586 66.3814 69.2765 64.2891 69.2766Z" fill="#02EF8B"/>
<path d="M64.2921 51.8672C62.8803 51.8669 61.4942 52.2448 60.2779 52.9616C59.0617 53.6785 58.0597 54.7081 57.3761 55.9434C56.6926 57.1787 56.3525 58.5745 56.3912 59.9858C56.4298 61.3971 56.8459 62.7722 57.5961 63.9682L57.784 64.267L56.9858 67.1815L59.976 66.3973L60.2645 66.5685C61.482 67.2894 62.8709 67.6696 64.2858 67.6694H64.2889C66.3827 67.6672 68.3899 66.834 69.8698 65.3528C71.3496 63.8716 72.1811 61.8637 72.1815 59.7699C72.1819 57.6762 71.3513 55.6678 69.872 54.1861C68.3928 52.7043 66.3859 51.8703 64.2921 51.8672H64.2921ZM68.9393 63.1605C68.7644 63.4491 68.5317 63.6984 68.2558 63.8927C67.9799 64.087 67.6668 64.2221 67.3361 64.2895C66.8369 64.3749 66.3247 64.3427 65.8401 64.1955C65.3803 64.0527 64.9284 63.8857 64.4861 63.6953C62.8458 62.8721 61.4476 61.6366 60.4288 60.1101C59.8733 59.4032 59.5363 58.5495 59.459 57.6539C59.4524 57.2841 59.5229 56.9169 59.666 56.5759C59.8091 56.2349 60.0217 55.9274 60.2903 55.6731C60.3696 55.5825 60.4669 55.5094 60.5759 55.4583C60.6849 55.4071 60.8033 55.3791 60.9236 55.3759C61.0819 55.3759 61.2404 55.3774 61.3788 55.3843C61.5246 55.3916 61.7204 55.3289 61.9132 55.792C62.1111 56.2673 62.5861 57.436 62.6454 57.5548C62.6831 57.617 62.7046 57.6877 62.7081 57.7603C62.7115 57.8329 62.6968 57.9053 62.6653 57.9708C62.6054 58.1135 62.5254 58.2469 62.4278 58.367C62.309 58.5056 62.1783 58.6765 62.0716 58.783C61.9526 58.9014 61.8288 59.0299 61.9673 59.2675C62.324 59.8781 62.7693 60.4324 63.2886 60.9124C63.852 61.4133 64.4983 61.8121 65.1986 62.0909C65.4361 62.2098 65.5746 62.19 65.7132 62.0315C65.8518 61.8731 66.3069 61.3382 66.4652 61.1005C66.6234 60.8629 66.7818 60.9024 66.9995 60.9817C67.2172 61.061 68.385 61.6353 68.6226 61.7542C68.8601 61.873 69.0184 61.9325 69.0777 62.0315C69.1428 62.4133 69.0947 62.8058 68.9393 63.1606V63.1605Z" fill="#02EF8B"/>
<defs>
<filter id="filter0_d_3733_91999" x="0" y="0" width="440" height="128" filterUnits="userSpaceOnUse" color-interpolation-filters="sRGB">
<feFlood flood-opacity="0" result="BackgroundImageFix"/>
<feColorMatrix in="SourceAlpha" type="matrix" values="0 0 0 0 0 0 0 0 0 0 0 0 0 0 0 0 0 0 127 0" result="hardAlpha"/>
<feOffset dy="4"/>
<feGaussianBlur stdDeviation="8"/>
<feComposite in2="hardAlpha" operator="out"/>
<feColorMatrix type="matrix" values="0 0 0 0 0.666667 0 0 0 0 0.666667 0 0 0 0 0.666667 0 0 0 0.15 0"/>
<feBlend mode="normal" in2="BackgroundImageFix" result="effect1_dropShadow_3733_91999"/>
<feBlend mode="normal" in="SourceGraphic" in2="effect1_dropShadow_3733_91999" result="shape"/>
</filter>
</defs>
</svg>
