<svg width="1440" height="100" viewBox="0 0 1440 100" fill="none" xmlns="http://www.w3.org/2000/svg">
<g clip-path="url(#clip0_10372_594114)">
<path fill-rule="evenodd" clip-rule="evenodd" d="M0 0L59.625 3.75723C120.375 7.51445 239.625 15.0289 360 27.7457C480.375 40.7514 599.625 59.2486 720 63.0058C840.375 66.763 959.625 55.4913 1080 52.0231C1200.38 48.2659 1319.62 52.0231 1380.38 53.7572L1440 55.4913V100H1380.38C1319.62 100 1200.38 100 1080 100C959.625 100 840.375 100 720 100C599.625 100 480.375 100 360 100C239.625 100 120.375 100 59.625 100H0V0Z" fill="#1E858E"/>
<path opacity="0.8" fill-rule="evenodd" clip-rule="evenodd" d="M-240 40L-184 48C-128 56 -16 72 96 68C208 64 320 40 432 24C544 8 656 0 768 0C880 0 992 8 1104 22C1216 36 1328 56 1384 66L1440 76V100H1384C1328 100 1216 100 1104 100C992 100 880 100 768 100C656 100 544 100 432 100C320 100 208 100 96 100C-16 100 -128 100 -184 100H-240V40Z" fill="#2BBECB"/>
</g>
<defs>
<clipPath id="clip0_10372_594114">
<rect width="1440" height="100" fill="white"/>
</clipPath>
</defs>
</svg>
