<svg width="258" height="196" viewBox="0 0 258 196" fill="none" xmlns="http://www.w3.org/2000/svg">
<g clip-path="url(#clip0_22847_252335)">
<path d="M237.431 195.999C240.209 195.999 242.958 195.433 245.512 194.335C248.067 193.236 250.373 191.629 252.294 189.609C254.214 187.589 255.707 185.199 256.685 182.582C257.662 179.966 258.102 177.177 257.979 174.384C257.303 158.982 247.576 136.908 221.064 116.972C184.276 89.311 206.479 24.5473 158.19 17.9518C78.8177 7.11129 85.8818 79.6115 36.8715 105.46C5.67422 121.913 0.00203826 154.105 0 175.333C0.00501764 180.818 2.17457 186.077 6.03155 189.952C9.88853 193.827 15.1171 196.003 20.5675 195.999H237.431Z" fill="#F4FBFC"/>
<g clip-path="url(#clip1_22847_252335)">
<path d="M192.026 133.609H144.605C142.674 133.609 141.109 135.184 141.109 137.127V163.007C141.109 164.95 142.674 166.525 144.605 166.525H192.026C193.957 166.525 195.522 164.95 195.522 163.007V137.127C195.522 135.184 193.957 133.609 192.026 133.609Z" fill="white"/>
<path opacity="0.1" d="M192.026 133.609H144.605C142.674 133.609 141.109 135.184 141.109 137.127V163.007C141.109 164.95 142.674 166.525 144.605 166.525H192.026C193.957 166.525 195.522 164.95 195.522 163.007V137.127C195.522 135.184 193.957 133.609 192.026 133.609Z" fill="#2BBECB"/>
<path d="M180.537 151.258H176.338C176.082 151.258 175.875 151.466 175.875 151.724V161.09C175.875 161.347 176.082 161.555 176.338 161.555H180.537C180.792 161.555 181 161.347 181 161.09V151.724C181 151.466 180.792 151.258 180.537 151.258Z" fill="white"/>
<path d="M190.654 143.25H186.455C186.199 143.25 185.992 143.459 185.992 143.716V161.09C185.992 161.347 186.199 161.556 186.455 161.556H190.654C190.91 161.556 191.117 161.347 191.117 161.09V143.716C191.117 143.459 190.91 143.25 190.654 143.25Z" fill="white"/>
<path d="M150.177 151.258H145.978C145.723 151.258 145.516 151.466 145.516 151.724V161.09C145.516 161.347 145.723 161.555 145.978 161.555H150.177C150.433 161.555 150.64 161.347 150.64 161.09V151.724C150.64 151.466 150.433 151.258 150.177 151.258Z" fill="white"/>
<path d="M160.295 139.609H156.096C155.84 139.609 155.633 139.818 155.633 140.075V161.091C155.633 161.348 155.84 161.557 156.096 161.557H160.295C160.55 161.557 160.757 161.348 160.757 161.091V140.075C160.757 139.818 160.55 139.609 160.295 139.609Z" fill="white"/>
<path d="M170.412 148.953H166.213C165.957 148.953 165.75 149.162 165.75 149.419V161.093C165.75 161.35 165.957 161.559 166.213 161.559H170.412C170.667 161.559 170.875 161.35 170.875 161.093V149.419C170.875 149.162 170.667 148.953 170.412 148.953Z" fill="white"/>
<path d="M106.685 113.477H46.4993C44.0489 113.477 42.0625 115.476 42.0625 117.942V150.787C42.0625 153.253 44.0489 155.252 46.4993 155.252H106.685C109.135 155.252 111.122 153.253 111.122 150.787V117.942C111.122 115.476 109.135 113.477 106.685 113.477Z" fill="white"/>
<path opacity="0.1" d="M106.685 113.477H46.4993C44.0489 113.477 42.0625 115.476 42.0625 117.942V150.787C42.0625 153.253 44.0489 155.252 46.4993 155.252H106.685C109.135 155.252 111.122 153.253 111.122 150.787V117.942C111.122 115.476 109.135 113.477 106.685 113.477Z" fill="#2BBECB"/>
<path d="M92.0963 135.875H86.7671C86.4427 135.875 86.1797 136.14 86.1797 136.466V148.353C86.1797 148.68 86.4427 148.944 86.7671 148.944H92.0963C92.4207 148.944 92.6837 148.68 92.6837 148.353V136.466C92.6837 136.14 92.4207 135.875 92.0963 135.875Z" fill="white"/>
<path d="M104.94 125.711H99.6108C99.2864 125.711 99.0234 125.976 99.0234 126.302V148.354C99.0234 148.68 99.2864 148.945 99.6108 148.945H104.94C105.264 148.945 105.527 148.68 105.527 148.354V126.302C105.527 125.976 105.264 125.711 104.94 125.711Z" fill="white"/>
<path d="M53.5729 135.875H48.2437C47.9192 135.875 47.6562 136.14 47.6562 136.466V148.353C47.6562 148.68 47.9192 148.944 48.2437 148.944H53.5729C53.8973 148.944 54.1603 148.68 54.1603 148.353V136.466C54.1603 136.14 53.8973 135.875 53.5729 135.875Z" fill="white"/>
<path d="M66.4166 121.09H61.0874C60.763 121.09 60.5 121.355 60.5 121.681V148.354C60.5 148.68 60.763 148.945 61.0874 148.945H66.4166C66.7411 148.945 67.0041 148.68 67.0041 148.354V121.681C67.0041 121.355 66.7411 121.09 66.4166 121.09Z" fill="white"/>
<path d="M79.2604 132.945H73.9312C73.6067 132.945 73.3438 133.21 73.3438 133.536V148.353C73.3438 148.679 73.6067 148.944 73.9312 148.944H79.2604C79.5848 148.944 79.8478 148.679 79.8478 148.353V133.536C79.8478 133.21 79.5848 132.945 79.2604 132.945Z" fill="white"/>
<path d="M220.789 4.08203H151.666C148.852 4.08203 146.57 6.37792 146.57 9.21005V46.9334C146.57 49.7655 148.852 52.0614 151.666 52.0614H220.789C223.603 52.0614 225.884 49.7655 225.884 46.9334V9.21005C225.884 6.37792 223.603 4.08203 220.789 4.08203Z" fill="white"/>
<path opacity="0.1" d="M220.789 4.08203H151.666C148.852 4.08203 146.57 6.37792 146.57 9.21005V46.9334C146.57 49.7655 148.852 52.0614 151.666 52.0614H220.789C223.603 52.0614 225.884 49.7655 225.884 46.9334V9.21005C225.884 6.37792 223.603 4.08203 220.789 4.08203Z" fill="#2BBECB"/>
<path d="M204.037 29.8086H197.917C197.544 29.8086 197.242 30.1125 197.242 30.4875V44.1398C197.242 44.5147 197.544 44.8187 197.917 44.8187H204.037C204.41 44.8187 204.712 44.5147 204.712 44.1398V30.4875C204.712 30.1125 204.41 29.8086 204.037 29.8086Z" fill="white"/>
<path d="M218.787 18.1367H212.667C212.294 18.1367 211.992 18.4407 211.992 18.8156V44.1416C211.992 44.5166 212.294 44.8205 212.667 44.8205H218.787C219.16 44.8205 219.462 44.5166 219.462 44.1416V18.8156C219.462 18.4407 219.16 18.1367 218.787 18.1367Z" fill="white"/>
<path d="M159.787 29.8086H153.667C153.294 29.8086 152.992 30.1125 152.992 30.4875V44.1398C152.992 44.5147 153.294 44.8187 153.667 44.8187H159.787C160.16 44.8187 160.462 44.5147 160.462 44.1398V30.4875C160.462 30.1125 160.16 29.8086 159.787 29.8086Z" fill="white"/>
<path d="M174.537 12.8281H168.417C168.044 12.8281 167.742 13.1321 167.742 13.507V44.1408C167.742 44.5158 168.044 44.8197 168.417 44.8197H174.537C174.91 44.8197 175.212 44.5158 175.212 44.1408V13.507C175.212 13.1321 174.91 12.8281 174.537 12.8281Z" fill="white"/>
<path d="M189.287 26.4453H183.167C182.794 26.4453 182.492 26.7493 182.492 27.1242V44.1409C182.492 44.5158 182.794 44.8198 183.167 44.8198H189.287C189.66 44.8198 189.962 44.5158 189.962 44.1409V27.1242C189.962 26.7493 189.66 26.4453 189.287 26.4453Z" fill="white"/>
<path d="M70.6978 43.6836H36.9779C35.6051 43.6836 34.4922 44.8035 34.4922 46.185V64.5875C34.4922 65.969 35.6051 67.089 36.9779 67.089H70.6978C72.0706 67.089 73.1834 65.969 73.1834 64.5875V46.185C73.1834 44.8035 72.0706 43.6836 70.6978 43.6836Z" fill="white"/>
<path opacity="0.3" d="M70.6978 43.6836H36.9779C35.6051 43.6836 34.4922 44.8035 34.4922 46.185V64.5875C34.4922 65.969 35.6051 67.089 36.9779 67.089H70.6978C72.0706 67.089 73.1834 65.969 73.1834 64.5875V46.185C73.1834 44.8035 72.0706 43.6836 70.6978 43.6836Z" fill="#2BBECB"/>
<path d="M62.5258 56.2344H59.54C59.3582 56.2344 59.2109 56.3826 59.2109 56.5655V63.2256C59.2109 63.4084 59.3582 63.5567 59.54 63.5567H62.5258C62.7076 63.5567 62.8549 63.4084 62.8549 63.2256V56.5655C62.8549 56.3826 62.7076 56.2344 62.5258 56.2344Z" fill="white"/>
<path d="M69.7212 50.5391H66.7353C66.5536 50.5391 66.4062 50.6873 66.4062 50.8702V63.2248C66.4062 63.4077 66.5536 63.5559 66.7353 63.5559H69.7212C69.9029 63.5559 70.0502 63.4077 70.0502 63.2248V50.8702C70.0502 50.6873 69.9029 50.5391 69.7212 50.5391Z" fill="white"/>
<path d="M40.9399 56.2344H37.954C37.7723 56.2344 37.625 56.3826 37.625 56.5655V63.2256C37.625 63.4084 37.7723 63.5567 37.954 63.5567H40.9399C41.1216 63.5567 41.2689 63.4084 41.2689 63.2256V56.5655C41.2689 56.3826 41.1216 56.2344 40.9399 56.2344Z" fill="white"/>
<path d="M48.1352 47.9492H45.1493C44.9676 47.9492 44.8203 48.0975 44.8203 48.2803V63.2244C44.8203 63.4073 44.9676 63.5555 45.1493 63.5555H48.1352C48.3169 63.5555 48.4642 63.4073 48.4642 63.2244V48.2803C48.4642 48.0975 48.3169 47.9492 48.1352 47.9492Z" fill="white"/>
<path d="M55.3305 54.5938H52.3447C52.1629 54.5938 52.0156 54.742 52.0156 54.9249V63.2261C52.0156 63.409 52.1629 63.5572 52.3447 63.5572H55.3305C55.5122 63.5572 55.6596 63.409 55.6596 63.2261V54.9249C55.6596 54.742 55.5122 54.5938 55.3305 54.5938Z" fill="white"/>
<path d="M66.6441 126.645L202.835 126.645C206.179 126.645 208.891 123.916 208.891 120.55V20.2053C208.891 16.8396 206.179 14.1111 202.835 14.1111L66.6441 14.1111C63.2996 14.1111 60.5883 16.8396 60.5883 20.2053V120.55C60.5883 123.916 63.2996 126.645 66.6441 126.645Z" fill="white"/>
<path d="M60.3828 120.549V20.2035C60.3847 18.534 61.0446 16.9333 62.2177 15.7528C63.3908 14.5722 64.9814 13.9081 66.6404 13.9062H202.831C204.49 13.9081 206.081 14.5722 207.254 15.7528C208.427 16.9333 209.087 18.534 209.089 20.2035V120.549C209.087 122.218 208.427 123.819 207.254 124.999C206.081 126.18 204.49 126.844 202.831 126.846H66.6404C64.9814 126.844 63.3908 126.18 62.2177 124.999C61.0446 123.819 60.3847 122.218 60.3828 120.549ZM66.6404 14.3125C65.0884 14.3144 63.6005 14.9356 62.5031 16.04C61.4057 17.1444 60.7883 18.6417 60.7865 20.2035V120.549C60.7883 122.11 61.4056 123.608 62.503 124.712C63.6005 125.817 65.0884 126.438 66.6404 126.44H202.831C204.383 126.438 205.871 125.817 206.969 124.712C208.066 123.608 208.683 122.111 208.685 120.549V20.2035C208.683 18.6417 208.066 17.1443 206.969 16.0399C205.871 14.9355 204.383 14.3143 202.831 14.3125H66.6404Z" fill="#666666"/>
<path d="M60.5859 20.2035V26.3356H208.887V20.2035C208.887 18.5872 208.249 17.0372 207.114 15.8943C205.978 14.7514 204.438 14.1094 202.832 14.1094H66.6417C65.0356 14.1094 63.4953 14.7514 62.3596 15.8943C61.2239 17.0372 60.5859 18.5872 60.5859 20.2035Z" fill="#666666"/>
<path d="M200.877 32.1602H143.092C141.673 32.1602 140.523 33.3173 140.523 34.7447V75.8818C140.523 77.3092 141.673 78.4663 143.092 78.4663H200.877C202.295 78.4663 203.445 77.3092 203.445 75.8818V34.7447C203.445 33.3173 202.295 32.1602 200.877 32.1602Z" fill="white"/>
<path opacity="0.15" d="M200.877 32.1602H143.092C141.673 32.1602 140.523 33.3173 140.523 34.7447V75.8818C140.523 77.3092 141.673 78.4663 143.092 78.4663H200.877C202.295 78.4663 203.445 77.3092 203.445 75.8818V34.7447C203.445 33.3173 202.295 32.1602 200.877 32.1602Z" fill="#2BBECB"/>
<path d="M151.82 37.9375H146.826C146.594 37.9375 146.406 38.1268 146.406 38.3602V72.2644C146.406 72.4978 146.594 72.6871 146.826 72.6871H151.82C152.052 72.6871 152.241 72.4978 152.241 72.2644V38.3602C152.241 38.1268 152.052 37.9375 151.82 37.9375Z" fill="#F4FBFC"/>
<path opacity="0.6" d="M146.406 54.9727H152.24V72.2658C152.24 72.3779 152.196 72.4854 152.117 72.5647C152.038 72.644 151.931 72.6885 151.82 72.6885H146.826C146.715 72.6885 146.608 72.644 146.529 72.5647C146.451 72.4854 146.406 72.3779 146.406 72.2658V54.9727Z" fill="#2BBECB"/>
<path d="M163.149 37.9375H158.154C157.922 37.9375 157.734 38.1268 157.734 38.3602V72.2644C157.734 72.4978 157.922 72.6871 158.154 72.6871H163.149C163.381 72.6871 163.569 72.4978 163.569 72.2644V38.3602C163.569 38.1268 163.381 37.9375 163.149 37.9375Z" fill="#F4FBFC"/>
<path opacity="0.6" d="M157.734 50.1562H163.568V72.2654C163.568 72.3775 163.524 72.485 163.445 72.5643C163.366 72.6436 163.259 72.6881 163.148 72.6881H158.154C158.043 72.6881 157.936 72.6436 157.857 72.5643C157.779 72.485 157.734 72.3775 157.734 72.2654V50.1562Z" fill="#2BBECB"/>
<path d="M197.149 37.9375H192.154C191.922 37.9375 191.734 38.1268 191.734 38.3602V72.2644C191.734 72.4978 191.922 72.6871 192.154 72.6871H197.149C197.381 72.6871 197.569 72.4978 197.569 72.2644V38.3602C197.569 38.1268 197.381 37.9375 197.149 37.9375Z" fill="#F4FBFC"/>
<path opacity="0.6" d="M191.734 45.2969H197.568V72.2655C197.568 72.3776 197.524 72.4851 197.445 72.5644C197.366 72.6437 197.259 72.6882 197.148 72.6882H192.155C192.043 72.6882 191.936 72.6437 191.858 72.5644C191.779 72.4851 191.735 72.3776 191.735 72.2655V45.2969H191.734Z" fill="#2BBECB"/>
<path d="M174.485 37.9375H169.49C169.258 37.9375 169.07 38.1268 169.07 38.3602V72.2644C169.07 72.4978 169.258 72.6871 169.49 72.6871H174.485C174.717 72.6871 174.905 72.4978 174.905 72.2644V38.3602C174.905 38.1268 174.717 37.9375 174.485 37.9375Z" fill="#F4FBFC"/>
<path opacity="0.6" d="M169.07 62.7617H174.904V72.2651C174.904 72.3772 174.86 72.4848 174.781 72.564C174.702 72.6433 174.595 72.6879 174.484 72.6879H169.49C169.379 72.6879 169.272 72.6433 169.193 72.564C169.115 72.4848 169.07 72.3772 169.07 72.2651V62.7617Z" fill="#2BBECB"/>
<path d="M185.813 37.9375H180.819C180.587 37.9375 180.398 38.1268 180.398 38.3602V72.2644C180.398 72.4978 180.587 72.6871 180.819 72.6871H185.813C186.045 72.6871 186.233 72.4978 186.233 72.2644V38.3602C186.233 38.1268 186.045 37.9375 185.813 37.9375Z" fill="#F4FBFC"/>
<path opacity="0.6" d="M180.398 56.6875H186.232V72.2629C186.232 72.375 186.188 72.4825 186.109 72.5618C186.03 72.6411 185.923 72.6856 185.812 72.6856H180.819C180.764 72.6856 180.709 72.6747 180.658 72.6535C180.607 72.6322 180.561 72.6011 180.522 72.5618C180.483 72.5226 180.452 72.476 180.431 72.4247C180.41 72.3734 180.399 72.3184 180.399 72.2629V56.6875H180.398Z" fill="#2BBECB"/>
<path opacity="0.15" d="M199.769 83H143.505C141.474 83 139.828 84.6564 139.828 86.6998V117.36C139.828 119.403 141.474 121.059 143.505 121.059H199.769C201.799 121.059 203.445 119.403 203.445 117.36V86.6998C203.445 84.6564 201.799 83 199.769 83Z" fill="#2BBECB"/>
<path d="M177.882 92.5083C178.637 92.5083 179.249 91.8926 179.249 91.1331C179.249 90.3735 178.637 89.7578 177.882 89.7578C177.127 89.7578 176.516 90.3735 176.516 91.1331C176.516 91.8926 177.127 92.5083 177.882 92.5083Z" fill="#2BBECB"/>
<path d="M177.882 99.5161C178.637 99.5161 179.249 98.9004 179.249 98.1409C179.249 97.3813 178.637 96.7656 177.882 96.7656C177.127 96.7656 176.516 97.3813 176.516 98.1409C176.516 98.9004 177.127 99.5161 177.882 99.5161Z" fill="#666666"/>
<path d="M177.882 106.528C178.637 106.528 179.249 105.912 179.249 105.153C179.249 104.393 178.637 103.777 177.882 103.777C177.127 103.777 176.516 104.393 176.516 105.153C176.516 105.912 177.127 106.528 177.882 106.528Z" fill="white"/>
<path opacity="0.5" d="M177.882 113.54C178.637 113.54 179.249 112.924 179.249 112.164C179.249 111.405 178.637 110.789 177.882 110.789C177.127 110.789 176.516 111.405 176.516 112.164C176.516 112.924 177.127 113.54 177.882 113.54Z" fill="#2BBECB"/>
<path d="M196.849 91.1296C196.849 91.3359 196.767 91.5338 196.622 91.6797C196.477 91.8256 196.281 91.9076 196.076 91.9076H182.94C182.757 91.911 182.579 91.8511 182.435 91.7379C182.291 91.6247 182.19 91.4652 182.148 91.286C182.125 91.1728 182.128 91.0559 182.155 90.9438C182.183 90.8317 182.235 90.7271 182.307 90.6377C182.38 90.5482 182.471 90.4761 182.575 90.4267C182.679 90.3772 182.792 90.3515 182.907 90.3516H196.076C196.177 90.3515 196.278 90.3716 196.371 90.4107C196.465 90.4498 196.551 90.5071 196.622 90.5794C196.694 90.6516 196.751 90.7374 196.79 90.8318C196.829 90.9262 196.849 91.0274 196.849 91.1296Z" fill="white"/>
<path d="M196.847 98.1411C196.847 98.3474 196.766 98.5453 196.621 98.6912C196.476 98.8371 196.279 98.9191 196.074 98.9191H182.947C182.839 98.9207 182.733 98.9007 182.634 98.8602C182.534 98.8196 182.444 98.7595 182.368 98.6832C182.292 98.607 182.232 98.5162 182.192 98.4162C182.151 98.3163 182.131 98.2092 182.133 98.1013C182.143 97.902 182.229 97.7144 182.373 97.5771C182.517 97.4397 182.708 97.3632 182.906 97.3633H196.074C196.176 97.3633 196.276 97.3834 196.37 97.4224C196.464 97.4615 196.549 97.5188 196.621 97.591C196.693 97.6633 196.75 97.749 196.789 97.8434C196.827 97.9378 196.847 98.0389 196.847 98.1411Z" fill="white"/>
<path d="M196.849 105.153C196.849 105.359 196.767 105.557 196.622 105.703C196.477 105.849 196.281 105.931 196.076 105.931H182.827C182.643 105.931 182.466 105.857 182.336 105.726C182.206 105.595 182.133 105.417 182.133 105.232V105.074C182.133 104.888 182.206 104.711 182.336 104.58C182.466 104.449 182.643 104.375 182.827 104.375H196.076C196.177 104.375 196.278 104.395 196.371 104.434C196.465 104.473 196.55 104.531 196.622 104.603C196.694 104.675 196.751 104.761 196.79 104.855C196.829 104.949 196.849 105.051 196.849 105.153Z" fill="white"/>
<path d="M196.849 112.164C196.849 112.37 196.767 112.568 196.622 112.714C196.477 112.86 196.281 112.942 196.076 112.942H182.943C182.76 112.946 182.581 112.886 182.437 112.773C182.292 112.66 182.19 112.5 182.148 112.321C182.126 112.208 182.128 112.091 182.155 111.979C182.183 111.867 182.235 111.762 182.307 111.673C182.38 111.583 182.471 111.511 182.575 111.462C182.679 111.412 182.792 111.387 182.907 111.387H196.075C196.177 111.387 196.277 111.407 196.371 111.446C196.465 111.485 196.55 111.542 196.622 111.614C196.694 111.686 196.751 111.772 196.79 111.866C196.829 111.961 196.849 112.062 196.849 112.164Z" fill="white"/>
<path d="M152.244 101.646C152.245 103.322 152.762 104.957 153.724 106.326C154.686 107.694 156.046 108.729 157.617 109.287L155.408 114.709C152.37 113.556 149.829 111.368 148.23 108.525C146.63 105.681 146.072 102.363 146.654 99.1484C147.236 95.9337 148.92 93.0263 151.412 90.9328C153.905 88.8392 157.049 87.6921 160.296 87.6914V93.5446C158.161 93.5446 156.113 94.398 154.603 95.9173C153.093 97.4365 152.245 99.4971 152.244 101.646Z" fill="#2BBECB"/>
<path d="M174.164 101.647H168.348C168.348 99.4981 167.5 97.4373 165.99 95.9178C164.48 94.3983 162.432 93.5447 160.297 93.5446V87.6914C163.975 87.6914 167.502 89.1617 170.103 91.7789C172.703 94.3961 174.164 97.9457 174.164 101.647Z" fill="#666666"/>
<path d="M174.16 101.648C174.16 104.811 173.093 107.879 171.134 110.351C169.174 112.824 166.439 114.553 163.376 115.257L162.391 109.472C164.099 109.007 165.608 107.989 166.684 106.575C167.76 105.161 168.344 103.43 168.344 101.648H174.16Z" fill="white"/>
<path opacity="0.5" d="M163.378 115.257C160.724 115.862 157.953 115.672 155.406 114.71L157.615 109.289C159.153 109.832 160.818 109.896 162.392 109.472L163.378 115.257Z" fill="#2BBECB"/>
<path opacity="0.15" d="M131.754 32.1602H69.6569C67.6502 32.1602 66.0234 33.7972 66.0234 35.8166V117.402C66.0234 119.421 67.6502 121.058 69.6569 121.058H131.754C133.761 121.058 135.388 119.421 135.388 117.402V35.8166C135.388 33.7972 133.761 32.1602 131.754 32.1602Z" fill="#2BBECB"/>
<path d="M119.472 66.8534C119.472 70.9099 118.277 74.8752 116.037 78.2481C113.798 81.6209 110.615 84.2498 106.891 85.8021C103.167 87.3545 99.069 87.7607 95.1156 86.9693C91.1621 86.178 87.5306 84.2246 84.6803 81.3563C81.8301 78.488 79.889 74.8334 79.1026 70.8549C78.3162 66.8764 78.7198 62.7526 80.2623 59.0049C81.8049 55.2572 84.4171 52.054 87.7686 49.8003C91.1202 47.5466 95.0606 46.3438 99.0915 46.3438V66.8534H119.472Z" fill="#F4FBFC"/>
<path opacity="0.6" d="M121.973 64.1893H101.594V43.6797C106.999 43.6799 112.182 45.8408 116.004 49.6871C119.826 53.5334 121.973 58.75 121.973 64.1893Z" fill="#2BBECB"/>
<path opacity="0.6" d="M77.9603 99.0005C78.7151 99.0005 79.3269 98.3848 79.3269 97.6252C79.3269 96.8657 78.7151 96.25 77.9603 96.25C77.2056 96.25 76.5938 96.8657 76.5938 97.6252C76.5938 98.3848 77.2056 99.0005 77.9603 99.0005Z" fill="#2BBECB"/>
<path d="M77.9603 106.012C78.7151 106.012 79.3269 105.396 79.3269 104.637C79.3269 103.877 78.7151 103.262 77.9603 103.262C77.2056 103.262 76.5938 103.877 76.5938 104.637C76.5938 105.396 77.2056 106.012 77.9603 106.012Z" fill="#F4FBFC"/>
<path opacity="0.6" d="M124.783 97.6259C124.783 97.8322 124.702 98.0301 124.557 98.176C124.412 98.3219 124.215 98.4039 124.01 98.4039H83.0182C82.8354 98.4073 82.657 98.3473 82.5129 98.2341C82.3687 98.1209 82.2676 97.9614 82.2265 97.7821C82.2036 97.6689 82.206 97.552 82.2335 97.4399C82.261 97.3278 82.313 97.2232 82.3856 97.1337C82.4583 97.0443 82.5497 96.9722 82.6534 96.9228C82.7572 96.8733 82.8705 96.8476 82.9853 96.8477H124.01C124.112 96.8477 124.212 96.8678 124.306 96.9069C124.4 96.946 124.485 97.0033 124.557 97.0756C124.629 97.1479 124.685 97.2337 124.724 97.3281C124.763 97.4225 124.783 97.5237 124.783 97.6259Z" fill="#2BBECB"/>
<path d="M124.782 104.633C124.782 104.84 124.701 105.038 124.556 105.184C124.411 105.33 124.214 105.412 124.009 105.412H83.0249C82.9177 105.413 82.8112 105.393 82.7118 105.353C82.6124 105.312 82.5221 105.252 82.4463 105.176C82.3704 105.099 82.3105 105.009 82.27 104.909C82.2296 104.809 82.2096 104.702 82.211 104.594C82.2214 104.394 82.3074 104.207 82.4512 104.069C82.5951 103.932 82.7858 103.855 82.9841 103.855H124.009C124.11 103.855 124.211 103.876 124.305 103.915C124.398 103.954 124.484 104.011 124.556 104.083C124.627 104.156 124.684 104.241 124.723 104.336C124.762 104.43 124.782 104.531 124.782 104.633Z" fill="white"/>
<path d="M224.011 116.469H164.31C161.831 116.469 159.82 118.492 159.82 120.987V141.558C159.82 144.054 161.831 146.077 164.31 146.077H224.011C226.49 146.077 228.501 144.054 228.501 141.558V120.987C228.501 118.492 226.49 116.469 224.011 116.469Z" fill="white"/>
<path opacity="0.4" d="M224.011 116.469H164.31C161.831 116.469 159.82 118.492 159.82 120.987V141.558C159.82 144.054 161.831 146.077 164.31 146.077H224.011C226.49 146.077 228.501 144.054 228.501 141.558V120.987C228.501 118.492 226.49 116.469 224.011 116.469Z" fill="#2BBECB"/>
<path d="M224.009 146.278H164.309C163.065 146.277 161.873 145.779 160.993 144.893C160.113 144.008 159.619 142.808 159.617 141.556V120.987C159.619 119.736 160.113 118.535 160.993 117.65C161.873 116.765 163.065 116.267 164.309 116.266H224.009C225.253 116.267 226.446 116.765 227.325 117.65C228.205 118.535 228.7 119.736 228.701 120.987V141.557C228.7 142.809 228.205 144.009 227.325 144.894C226.446 145.779 225.253 146.277 224.009 146.278ZM164.309 116.671C163.172 116.672 162.082 117.128 161.278 117.937C160.474 118.746 160.022 119.843 160.021 120.987V141.557C160.022 142.701 160.475 143.798 161.279 144.607C162.083 145.416 163.172 145.87 164.309 145.872H224.009C225.146 145.87 226.236 145.415 227.04 144.606C227.844 143.797 228.296 142.7 228.298 141.556V120.987C228.296 119.843 227.844 118.746 227.04 117.937C226.236 117.128 225.146 116.673 224.009 116.672L164.309 116.671Z" fill="#666666"/>
<path d="M165.975 139.768C165.92 139.768 165.867 139.753 165.82 139.725C165.773 139.697 165.735 139.657 165.709 139.609C165.683 139.561 165.67 139.507 165.672 139.452C165.674 139.398 165.691 139.344 165.72 139.298C165.786 139.197 172.383 129.044 182.869 129.044C188.348 129.044 191.667 131.172 194.878 133.229C197.849 135.133 200.656 136.932 205 136.932C213.88 136.932 221.034 123.954 221.105 123.823C221.143 123.752 221.208 123.699 221.285 123.676C221.362 123.654 221.445 123.663 221.516 123.701C221.586 123.74 221.639 123.806 221.661 123.883C221.684 123.961 221.675 124.044 221.636 124.115C221.339 124.663 214.236 137.542 205 137.542C200.48 137.542 197.601 135.697 194.552 133.744C191.415 131.733 188.171 129.654 182.869 129.654C172.719 129.654 166.293 139.528 166.23 139.628C166.202 139.671 166.164 139.706 166.12 139.731C166.075 139.755 166.025 139.768 165.975 139.768Z" fill="white"/>
<path d="M221.458 125.162C222.113 125.162 222.643 124.628 222.643 123.97C222.643 123.311 222.113 122.777 221.458 122.777C220.804 122.777 220.273 123.311 220.273 123.97C220.273 124.628 220.804 125.162 221.458 125.162Z" fill="white"/>
</g>
<path d="M37.509 171.432C36.0531 170.953 34.559 171.491 33.1293 172.585C35.0124 167.8 35.7895 163.478 32.5703 163.283C30.3177 163.147 28.5922 164.886 27.2813 167.359C26.8203 163.011 25.6309 159.769 22.9666 160.844C20.0414 162.024 19.5962 166.069 20.0399 170.301C18.7514 168.139 17.3637 166.934 16.1037 168.202C12.3437 171.986 21.573 182.648 21.573 182.648H23.8651L25.1731 184.077C24.9084 184.641 24.7634 184.976 24.7634 184.976L26.4249 188.379C26.4249 188.379 43.5515 173.423 37.509 171.432Z" fill="#D5FAFD"/>
<path d="M33.4012 196.001H20.4291L18.2578 180.762H35.5725L33.4012 196.001Z" fill="#AAE5EA"/>
<path d="M191.699 76.0826C191.699 76.0826 189.395 74.8519 189.909 68.5372L185.147 67.6484C185.147 67.6484 185.682 73.3112 183.273 75.1089L191.699 76.0826Z" fill="#E98862"/>
<path opacity="0.15" d="M184.25 73.9277L188.206 70.8802L185.099 70.8477C185.009 71.9186 184.721 72.9632 184.25 73.9277Z" fill="black"/>
<path d="M192.607 66.0895C192.277 68.0057 191.238 69.8204 189.558 70.4392C187.727 71.1706 185.747 71.4399 183.788 71.2237C178.576 70.7935 179.607 58.8655 182.082 56.5486C184.557 54.2316 191.82 55.6988 192.704 59.5741C193.16 61.5784 192.92 64.2657 192.607 66.0895Z" fill="#E98862"/>
<path d="M189.628 70.2095C189.727 70.528 189.796 70.6669 190.082 70.4964C191.201 69.8271 193.423 68.3705 194.281 62.9131C195.05 58.0234 192.053 56.0065 189.662 55.2871C187.602 54.6668 182.793 54.539 180.536 55.908C178.591 57.0878 180.536 59.8317 180.536 59.8317C181.396 59.8715 181.569 60.6149 183.597 60.6149C185.165 60.6149 184.616 60.5563 186.084 60.568C188.696 60.5894 187.852 62.5222 187.805 63.0497C187.669 64.5588 188.794 65.3579 188.964 66.6193C189.096 67.8311 189.318 69.0312 189.628 70.2095Z" fill="#444444"/>
<path d="M187.397 65.2423C187.377 65.4835 187.405 65.7262 187.478 65.9565C187.552 66.1869 187.67 66.4004 187.825 66.5849C187.981 66.7695 188.171 66.9213 188.385 67.0319C188.599 67.1424 188.832 67.2095 189.072 67.2293C189.312 67.2491 189.553 67.2212 189.782 67.1472C190.011 67.0732 190.223 66.9545 190.406 66.7979C190.589 66.6414 190.74 66.4501 190.85 66.2348C190.96 66.0196 191.027 65.7847 191.046 65.5435C191.07 65.3016 191.045 65.0573 190.973 64.8252C190.901 64.5932 190.784 64.378 190.627 64.1926C190.471 64.0073 190.279 63.8554 190.064 63.7461C189.848 63.6368 189.612 63.5723 189.371 63.5565C188.066 63.5137 187.479 64.2287 187.397 65.2423Z" fill="#E98862"/>
<path d="M188.203 59.3984L189.551 59.8951C189.551 59.8951 189.073 66.6731 188.696 68.5262C188.319 70.3793 187.263 71.5854 186.067 71.6886C184.23 71.8471 182.899 71.8597 181.551 71.375C180.032 70.8285 180.245 66.7244 180.245 66.7244C180.245 66.7244 185.134 67.2574 186.487 66.6037C187.84 65.9499 188.203 59.3984 188.203 59.3984Z" fill="#444444"/>
<path d="M185.158 64.6152C185.397 64.6152 185.59 64.4207 185.59 64.1807C185.59 63.9407 185.397 63.7461 185.158 63.7461C184.92 63.7461 184.727 63.9407 184.727 64.1807C184.727 64.4207 184.92 64.6152 185.158 64.6152Z" fill="#444444"/>
<path d="M181.752 64.334C181.991 64.334 182.184 64.1394 182.184 63.8994C182.184 63.6594 181.991 63.4648 181.752 63.4648C181.514 63.4648 181.32 63.6594 181.32 63.8994C181.32 64.1394 181.514 64.334 181.752 64.334Z" fill="#444444"/>
<path d="M182.144 62.7539L181 62.7686" stroke="#444444" stroke-width="1.394" stroke-miterlimit="10" stroke-linecap="round"/>
<path d="M186.089 63.1872L184.961 62.9141" stroke="#444444" stroke-width="1.394" stroke-miterlimit="10" stroke-linecap="round"/>
<g opacity="0.15">
<path d="M183.236 66.5885C183.221 66.5885 183.206 66.5864 183.192 66.5821L182.152 66.2598C182.132 66.2535 182.113 66.243 182.098 66.229C182.082 66.2149 182.069 66.1976 182.06 66.1782C182.051 66.1588 182.047 66.1377 182.047 66.1164C182.047 66.0951 182.051 66.0741 182.06 66.0547L182.744 64.5227C182.761 64.4874 182.79 64.4601 182.827 64.4467C182.863 64.4332 182.904 64.4346 182.939 64.4506C182.975 64.4667 183.003 64.496 183.017 64.5324C183.031 64.5688 183.031 64.6094 183.016 64.6455L182.401 66.0227L183.28 66.2941C183.313 66.3049 183.342 66.3275 183.361 66.3578C183.38 66.3881 183.387 66.4241 183.382 66.4595C183.377 66.4948 183.359 66.527 183.332 66.5504C183.305 66.5738 183.271 66.5868 183.236 66.5871V66.5885Z" fill="black"/>
</g>
<path d="M192.262 56.631C192.262 56.631 190.854 58.4199 185.627 54.8403C180.399 51.2607 178.44 53.8563 178.44 55.4407C178.44 57.0251 177.582 60.5898 182.994 60.5898" fill="#444444"/>
<path d="M184.603 68.4775C184.603 68.4775 183.065 68.1844 181.945 68.4775C181.945 68.4775 182.038 67.4492 183.275 67.4492C184.511 67.4492 184.603 68.4775 184.603 68.4775Z" fill="white"/>
<path d="M153.383 89.1089C153.383 89.1089 151.671 87.0639 149.849 86.7398C148.028 86.4157 148.483 87.4703 149.565 88.2571C150.647 89.0439 153.088 90.628 153.088 90.628" fill="#E98862"/>
<path d="M152.131 88.4877C152.131 88.4877 148.732 87.0967 147.275 87.7258C147.275 87.7258 146.005 88.9797 147.25 90.6268C148.444 92.2065 151.559 92.7932 151.559 92.7932L152.131 88.4877Z" fill="#E98862"/>
<path d="M171.771 193.301L177.843 192.574C177.57 190.261 177.261 187.483 177.24 187.027C177.24 187.057 177.24 187.081 177.24 187.099H171.125C171.127 187.284 171.127 187.845 171.771 193.301Z" fill="#E98862"/>
<path d="M196.138 194.033L202.253 194.013C202.253 194.013 202.232 187.659 202.232 187.098H196.117C196.117 187.661 196.138 194.033 196.138 194.033Z" fill="#E98862"/>
<path d="M180.288 191.356L169.516 191.171C169.963 179.754 170.04 166.695 170.16 154.878C170.193 151.949 170.413 149.025 170.818 146.125C172.551 133.606 173.682 121.159 176.015 108.711L176.093 108.734L176.32 107.173L198.473 105.797L199.626 120.36C199.626 120.36 202.511 170.745 203.827 191.005L193.092 191.918C191.157 172.054 188.164 143.112 186.323 122.245C184.209 132.405 182.77 142.924 180.932 152.996C180.564 165.605 180.253 178.785 180.288 191.356Z" fill="#444444"/>
<path d="M188.706 196.415C188.542 196.414 188.379 196.379 188.229 196.312C188.078 196.245 187.943 196.148 187.832 196.026C187.72 195.905 187.635 195.761 187.581 195.605C187.528 195.448 187.506 195.282 187.519 195.117C187.537 194.889 187.619 194.67 187.756 194.487C187.894 194.303 188.08 194.163 188.293 194.083L195.411 191.684C195.548 191.638 195.695 191.623 195.839 191.639C195.983 191.655 196.123 191.703 196.247 191.778C197.226 192.461 198.396 192.81 199.586 192.774C200.513 192.708 201.403 192.381 202.155 191.83C202.221 191.775 202.301 191.741 202.385 191.731C202.47 191.72 202.556 191.734 202.633 191.771C202.71 191.808 202.775 191.866 202.821 191.939C202.866 192.011 202.891 192.096 202.89 192.181V195.684C202.89 195.787 202.87 195.889 202.831 195.985C202.791 196.08 202.734 196.167 202.661 196.24C202.588 196.313 202.502 196.37 202.407 196.41C202.312 196.449 202.21 196.469 202.107 196.468L188.706 196.415Z" fill="#AAE5EA"/>
<path d="M164.323 196.415C164.159 196.414 163.996 196.379 163.846 196.312C163.695 196.245 163.56 196.148 163.449 196.026C163.338 195.905 163.252 195.761 163.199 195.605C163.145 195.448 163.124 195.282 163.136 195.117C163.154 194.889 163.236 194.67 163.373 194.487C163.511 194.303 163.697 194.163 163.91 194.083L171.028 191.684C171.166 191.638 171.312 191.623 171.456 191.639C171.6 191.655 171.74 191.703 171.864 191.778C172.842 192.461 174.013 192.81 175.203 192.774C176.13 192.708 177.02 192.381 177.771 191.83C177.837 191.775 177.918 191.741 178.002 191.73C178.087 191.72 178.173 191.734 178.25 191.771C178.327 191.808 178.393 191.866 178.438 191.939C178.484 192.011 178.508 192.096 178.508 192.181V195.684C178.508 195.787 178.487 195.889 178.448 195.985C178.408 196.08 178.351 196.167 178.278 196.24C178.205 196.313 178.119 196.37 178.024 196.41C177.929 196.449 177.827 196.469 177.725 196.468L164.323 196.415Z" fill="#AAE5EA"/>
<path d="M168.359 99.2855C168.89 99.2855 169.413 99.1461 169.875 98.8809C170.336 98.6158 170.721 98.2341 170.992 97.7734L181.52 79.8419L176.255 76.7109L166.993 92.4858L152.355 87.4472L150.375 93.2693L167.368 99.119C167.687 99.2292 168.022 99.2854 168.359 99.2855Z" fill="#1A727A"/>
<path d="M174.889 108.152C176.109 110.974 200.082 112.146 200.402 107.182C200.606 104.024 197.84 101.266 197.84 95.1096C197.84 88.9531 203.468 81.0912 198.882 76.476C197.551 75.1369 195.254 74.2725 192.453 74.2695C192.243 75.9134 182.326 75.9193 182.25 74.3076C181.871 74.3135 181.577 74.3193 181.394 74.3281C171.732 74.7472 175.978 85.8119 176.071 93.9404C176.183 103.452 173.63 105.245 174.889 108.152Z" fill="#1A727A"/>
<path d="M176.404 111.683C176.683 111.409 176.904 111.079 177.052 110.716C177.201 110.353 177.275 109.963 177.27 109.57C177.264 109.177 177.179 108.79 177.021 108.431C176.862 108.072 176.632 107.749 176.346 107.482L148.996 81.9998C148.703 81.7276 148.357 81.519 147.981 81.3866C147.605 81.2543 147.205 81.2012 146.808 81.2305C146.41 81.2598 146.023 81.371 145.67 81.5572C145.316 81.7434 145.005 82.0005 144.755 82.3127C144.295 82.9112 144.077 83.6625 144.145 84.4158C144.213 85.1692 144.561 85.8689 145.12 86.3747L172.432 111.743C172.976 112.247 173.691 112.523 174.43 112.512C175.169 112.501 175.876 112.204 176.404 111.684L176.404 111.683Z" fill="#FF4D53"/>
<path d="M175.425 81.0625C175.152 80.7819 174.825 80.56 174.464 80.4103C174.103 80.2606 173.715 80.1862 173.325 80.1917C172.935 80.1972 172.55 80.2824 172.193 80.4421C171.836 80.6019 171.516 80.8329 171.25 81.1211L145.928 108.645C145.658 108.94 145.451 109.288 145.319 109.666C145.188 110.045 145.135 110.447 145.164 110.847C145.193 111.247 145.304 111.637 145.489 111.992C145.674 112.348 145.929 112.661 146.239 112.913C146.834 113.376 147.581 113.595 148.329 113.527C149.078 113.459 149.773 113.109 150.276 112.547L175.484 85.0606C175.985 84.5139 176.259 83.7942 176.248 83.0503C176.237 82.3063 175.943 81.595 175.426 81.0634L175.425 81.0625Z" fill="#FF4D53"/>
<path d="M182.25 74.3076C182.326 75.9193 183.196 78.2899 185.884 78.4686C189.465 78.706 192.243 75.9134 192.453 74.2695H192.444C188.918 74.2692 184.306 74.2751 182.25 74.3076Z" fill="#E98862"/>
<path d="M174.107 96.8692C174.107 96.8692 174.782 93.0097 172.009 92.6906C170.26 92.4893 165.863 90.0425 165.028 92.0876C164.305 93.8618 168.504 95.974 170.008 96.3658C171.354 96.7142 174.107 96.8692 174.107 96.8692Z" fill="#E98862"/>
<path d="M172.955 92.9966C172.955 92.9966 169.383 91.0251 168.405 91.0711C167.54 91.1118 169.012 92.7964 169.012 92.7964L172.955 92.9966Z" fill="#E98862"/>
<path d="M188.507 103.186C189.12 103.186 189.72 103.007 190.235 102.671C190.749 102.335 191.156 101.857 191.406 101.293L200.302 81.2504L194.504 78.6445L186.754 96.109L171.832 91.5002L169.969 97.6078L187.575 103.046C187.877 103.139 188.191 103.186 188.507 103.186Z" fill="#1A727A"/>
<path d="M145.534 88.3427C145.458 88.2318 145.422 88.0983 145.431 87.9639C145.44 87.8295 145.495 87.7023 145.585 87.6031C146.027 87.1228 146.846 86.3612 147.385 86.6428C148.154 87.044 149.693 88.5346 149.265 89.3094C148.838 90.0841 147.955 90.9345 147.384 90.6766C146.952 90.4818 146.027 89.0647 145.534 88.3427Z" fill="#E98862"/>
</g>
<defs>
<clipPath id="clip0_22847_252335">
<rect width="258" height="196" fill="white"/>
</clipPath>
<clipPath id="clip1_22847_252335">
<rect width="194.211" height="196" fill="white" transform="translate(34.4922 4.08203)"/>
</clipPath>
</defs>
</svg>
