<svg width="440" height="128" viewBox="0 0 440 128" fill="none" xmlns="http://www.w3.org/2000/svg">
<g filter="url(#filter0_d_3733_91998)">
<rect x="16" y="12" width="408" height="96" rx="24" fill="white"/>
<rect x="16.5" y="12.5" width="407" height="95" rx="23.5" stroke="#F4F4F4"/>
</g>
<path d="M395.469 67.5316C395.32 67.383 395.202 67.2065 395.122 67.0124C395.041 66.8182 395 66.61 395 66.3998C395 66.1896 395.041 65.9815 395.122 65.7873C395.202 65.5931 395.32 65.4167 395.469 65.2681L400.36 60.3765C400.46 60.2765 400.516 60.1409 400.516 59.9994C400.516 59.858 400.46 59.7224 400.36 59.6224L395.469 54.7318C395.169 54.4318 395 54.0249 395 53.6005C395 53.1761 395.168 52.7691 395.468 52.4689C395.768 52.1688 396.175 52.0001 396.6 52C397.024 51.9999 397.431 52.1684 397.731 52.4684L402.623 57.36C402.97 57.7067 403.245 58.1183 403.432 58.5712C403.62 59.0242 403.717 59.5097 403.717 60C403.717 60.4903 403.62 60.9758 403.432 61.4287C403.245 61.8817 402.97 62.2932 402.623 62.6399L397.731 67.5316C397.431 67.8315 397.024 68 396.6 68C396.176 68 395.769 67.8315 395.469 67.5316Z" fill="#444444"/>
<path d="M118.34 66.18C117.233 66.18 116.22 66.04 115.3 65.76C114.38 65.4667 113.6 65.06 112.96 64.54L113.62 62.9C114.287 63.4067 115 63.7867 115.76 64.04C116.52 64.2933 117.38 64.42 118.34 64.42C119.473 64.42 120.307 64.22 120.84 63.82C121.387 63.4067 121.66 62.8733 121.66 62.22C121.66 61.6867 121.467 61.2667 121.08 60.96C120.693 60.64 120.047 60.3867 119.14 60.2L117 59.76C115.733 59.4933 114.787 59.0533 114.16 58.44C113.547 57.8267 113.24 57 113.24 55.96C113.24 55.12 113.46 54.38 113.9 53.74C114.353 53.1 114.98 52.6067 115.78 52.26C116.58 51.9 117.5 51.72 118.54 51.72C119.5 51.72 120.387 51.8667 121.2 52.16C122.027 52.44 122.727 52.8533 123.3 53.4L122.62 54.98C121.487 53.98 120.12 53.48 118.52 53.48C117.533 53.48 116.747 53.7 116.16 54.14C115.587 54.58 115.3 55.1667 115.3 55.9C115.3 56.46 115.48 56.9067 115.84 57.24C116.2 57.5733 116.8 57.8267 117.64 58L119.76 58.44C121.093 58.72 122.087 59.1533 122.74 59.74C123.393 60.3133 123.72 61.0933 123.72 62.08C123.72 62.9067 123.5 63.6267 123.06 64.24C122.62 64.8533 122 65.3333 121.2 65.68C120.4 66.0133 119.447 66.18 118.34 66.18ZM130.441 66.18C128.841 66.18 127.581 65.7333 126.661 64.84C125.741 63.9333 125.281 62.7 125.281 61.14C125.281 60.14 125.481 59.26 125.881 58.5C126.295 57.7267 126.861 57.1267 127.581 56.7C128.301 56.2733 129.128 56.06 130.061 56.06C131.408 56.06 132.468 56.4933 133.241 57.36C134.015 58.2133 134.401 59.3933 134.401 60.9V61.58H127.241C127.388 63.6067 128.461 64.62 130.461 64.62C131.021 64.62 131.568 64.5333 132.101 64.36C132.648 64.1867 133.161 63.9 133.641 63.5L134.241 64.9C133.801 65.3 133.235 65.6133 132.541 65.84C131.848 66.0667 131.148 66.18 130.441 66.18ZM130.141 57.48C129.301 57.48 128.635 57.74 128.141 58.26C127.648 58.78 127.348 59.4733 127.241 60.34H132.701C132.661 59.4333 132.421 58.7333 131.981 58.24C131.541 57.7333 130.928 57.48 130.141 57.48ZM136.604 66V56.24H138.564V57.86C138.897 57.2733 139.35 56.8267 139.924 56.52C140.51 56.2133 141.164 56.06 141.884 56.06C144.19 56.06 145.344 57.3667 145.344 59.98V66H143.324V60.1C143.324 59.26 143.157 58.6467 142.824 58.26C142.504 57.8733 141.997 57.68 141.304 57.68C140.49 57.68 139.837 57.94 139.344 58.46C138.864 58.9667 138.624 59.64 138.624 60.48V66H136.604ZM151.847 66.18C150.994 66.18 150.24 65.98 149.587 65.58C148.947 65.1667 148.447 64.58 148.087 63.82C147.727 63.06 147.547 62.16 147.547 61.12C147.547 60.08 147.727 59.1867 148.087 58.44C148.447 57.68 148.947 57.0933 149.587 56.68C150.227 56.2667 150.98 56.06 151.847 56.06C152.58 56.06 153.234 56.22 153.807 56.54C154.38 56.86 154.807 57.2933 155.087 57.84V51.9H157.107V66H155.127V64.3C154.847 64.8867 154.414 65.3467 153.827 65.68C153.254 66.0133 152.594 66.18 151.847 66.18ZM152.367 64.62C153.194 64.62 153.86 64.32 154.367 63.72C154.874 63.12 155.127 62.2533 155.127 61.12C155.127 59.9867 154.874 59.1267 154.367 58.54C153.86 57.94 153.194 57.64 152.367 57.64C151.527 57.64 150.854 57.94 150.347 58.54C149.84 59.1267 149.587 59.9867 149.587 61.12C149.587 62.2533 149.84 63.12 150.347 63.72C150.854 64.32 151.527 64.62 152.367 64.62ZM169.877 66L163.657 51.9H165.877L170.817 63.38L175.757 51.9H177.877L171.657 66H169.877ZM179.021 53.98V51.88H181.381V53.98H179.021ZM179.201 66V56.24H181.221V66H179.201ZM187.185 66.18C186.505 66.18 185.898 66.0467 185.365 65.78C184.831 65.5133 184.405 65.1533 184.085 64.7C183.778 64.2467 183.625 63.7333 183.625 63.16C183.625 62.44 183.805 61.8733 184.165 61.46C184.538 61.0467 185.145 60.7467 185.985 60.56C186.838 60.3733 187.985 60.28 189.425 60.28H190.105V59.76C190.105 59 189.945 58.4533 189.625 58.12C189.305 57.7867 188.778 57.62 188.045 57.62C187.485 57.62 186.925 57.7067 186.365 57.88C185.805 58.04 185.231 58.3 184.645 58.66L184.025 57.24C184.531 56.88 185.165 56.5933 185.925 56.38C186.685 56.1667 187.411 56.06 188.105 56.06C189.438 56.06 190.425 56.38 191.065 57.02C191.705 57.6467 192.025 58.6333 192.025 59.98V66H190.125V64.38C189.885 64.94 189.511 65.38 189.005 65.7C188.498 66.02 187.891 66.18 187.185 66.18ZM187.585 64.74C188.305 64.74 188.905 64.4867 189.385 63.98C189.865 63.4733 190.105 62.8333 190.105 62.06V61.52H189.445C188.471 61.52 187.705 61.5667 187.145 61.66C186.598 61.7533 186.205 61.9133 185.965 62.14C185.738 62.3533 185.625 62.6533 185.625 63.04C185.625 63.5467 185.798 63.96 186.145 64.28C186.491 64.5867 186.971 64.74 187.585 64.74ZM200.321 66V51.9H202.061L207.281 61.64L212.481 51.9H214.181V66H212.321V55.66L207.901 63.84H206.641L202.201 55.7V66H200.321ZM221.867 66.18C220.267 66.18 219.007 65.7333 218.087 64.84C217.167 63.9333 216.707 62.7 216.707 61.14C216.707 60.14 216.907 59.26 217.307 58.5C217.721 57.7267 218.287 57.1267 219.007 56.7C219.727 56.2733 220.554 56.06 221.487 56.06C222.834 56.06 223.894 56.4933 224.667 57.36C225.441 58.2133 225.827 59.3933 225.827 60.9V61.58H218.667C218.814 63.6067 219.887 64.62 221.887 64.62C222.447 64.62 222.994 64.5333 223.527 64.36C224.074 64.1867 224.587 63.9 225.067 63.5L225.667 64.9C225.227 65.3 224.661 65.6133 223.967 65.84C223.274 66.0667 222.574 66.18 221.867 66.18ZM221.567 57.48C220.727 57.48 220.061 57.74 219.567 58.26C219.074 58.78 218.774 59.4733 218.667 60.34H224.127C224.087 59.4333 223.847 58.7333 223.407 58.24C222.967 57.7333 222.354 57.48 221.567 57.48ZM231.449 66.18C230.649 66.18 229.903 66.08 229.209 65.88C228.516 65.6667 227.936 65.3733 227.469 65L228.049 63.64C228.543 63.9867 229.083 64.2533 229.669 64.44C230.269 64.6267 230.869 64.72 231.469 64.72C232.176 64.72 232.709 64.5933 233.069 64.34C233.429 64.0867 233.609 63.7467 233.609 63.32C233.609 62.9733 233.489 62.7067 233.249 62.52C233.009 62.32 232.649 62.1667 232.169 62.06L230.269 61.68C228.589 61.3333 227.749 60.4667 227.749 59.08C227.749 58.16 228.116 57.4267 228.849 56.88C229.583 56.3333 230.543 56.06 231.729 56.06C232.409 56.06 233.056 56.16 233.669 56.36C234.296 56.56 234.816 56.86 235.229 57.26L234.649 58.62C234.249 58.2733 233.789 58.0067 233.269 57.82C232.749 57.6333 232.236 57.54 231.729 57.54C231.036 57.54 230.509 57.6733 230.149 57.94C229.789 58.1933 229.609 58.54 229.609 58.98C229.609 59.6467 230.049 60.0733 230.929 60.26L232.829 60.64C233.696 60.8133 234.349 61.1067 234.789 61.52C235.243 61.9333 235.469 62.4933 235.469 63.2C235.469 64.1333 235.103 64.8667 234.369 65.4C233.636 65.92 232.663 66.18 231.449 66.18ZM241.137 66.18C240.337 66.18 239.59 66.08 238.897 65.88C238.204 65.6667 237.624 65.3733 237.157 65L237.737 63.64C238.23 63.9867 238.77 64.2533 239.357 64.44C239.957 64.6267 240.557 64.72 241.157 64.72C241.864 64.72 242.397 64.5933 242.757 64.34C243.117 64.0867 243.297 63.7467 243.297 63.32C243.297 62.9733 243.177 62.7067 242.937 62.52C242.697 62.32 242.337 62.1667 241.857 62.06L239.957 61.68C238.277 61.3333 237.437 60.4667 237.437 59.08C237.437 58.16 237.804 57.4267 238.537 56.88C239.27 56.3333 240.23 56.06 241.417 56.06C242.097 56.06 242.744 56.16 243.357 56.36C243.984 56.56 244.504 56.86 244.917 57.26L244.337 58.62C243.937 58.2733 243.477 58.0067 242.957 57.82C242.437 57.6333 241.924 57.54 241.417 57.54C240.724 57.54 240.197 57.6733 239.837 57.94C239.477 58.1933 239.297 58.54 239.297 58.98C239.297 59.6467 239.737 60.0733 240.617 60.26L242.517 60.64C243.384 60.8133 244.037 61.1067 244.477 61.52C244.93 61.9333 245.157 62.4933 245.157 63.2C245.157 64.1333 244.79 64.8667 244.057 65.4C243.324 65.92 242.35 66.18 241.137 66.18ZM250.524 66.18C249.844 66.18 249.238 66.0467 248.704 65.78C248.171 65.5133 247.744 65.1533 247.424 64.7C247.118 64.2467 246.964 63.7333 246.964 63.16C246.964 62.44 247.144 61.8733 247.504 61.46C247.878 61.0467 248.484 60.7467 249.324 60.56C250.178 60.3733 251.324 60.28 252.764 60.28H253.444V59.76C253.444 59 253.284 58.4533 252.964 58.12C252.644 57.7867 252.118 57.62 251.384 57.62C250.824 57.62 250.264 57.7067 249.704 57.88C249.144 58.04 248.571 58.3 247.984 58.66L247.364 57.24C247.871 56.88 248.504 56.5933 249.264 56.38C250.024 56.1667 250.751 56.06 251.444 56.06C252.778 56.06 253.764 56.38 254.404 57.02C255.044 57.6467 255.364 58.6333 255.364 59.98V66H253.464V64.38C253.224 64.94 252.851 65.38 252.344 65.7C251.838 66.02 251.231 66.18 250.524 66.18ZM250.924 64.74C251.644 64.74 252.244 64.4867 252.724 63.98C253.204 63.4733 253.444 62.8333 253.444 62.06V61.52H252.784C251.811 61.52 251.044 61.5667 250.484 61.66C249.938 61.7533 249.544 61.9133 249.304 62.14C249.078 62.3533 248.964 62.6533 248.964 63.04C248.964 63.5467 249.138 63.96 249.484 64.28C249.831 64.5867 250.311 64.74 250.924 64.74ZM262.567 69.78C261.687 69.78 260.867 69.6733 260.107 69.46C259.347 69.26 258.673 68.94 258.087 68.5L258.707 67.06C259.293 67.46 259.893 67.7533 260.507 67.94C261.12 68.1267 261.76 68.22 262.427 68.22C264.293 68.22 265.227 67.2867 265.227 65.42V63.88C264.947 64.4667 264.507 64.9267 263.907 65.26C263.32 65.5933 262.66 65.76 261.927 65.76C261.047 65.76 260.28 65.56 259.627 65.16C258.973 64.7467 258.467 64.18 258.107 63.46C257.747 62.7267 257.567 61.8733 257.567 60.9C257.567 59.94 257.747 59.1 258.107 58.38C258.467 57.6467 258.973 57.08 259.627 56.68C260.28 56.2667 261.047 56.06 261.927 56.06C262.673 56.06 263.34 56.2267 263.927 56.56C264.513 56.8933 264.947 57.3533 265.227 57.94V56.24H267.187V65.18C267.187 66.7133 266.793 67.86 266.007 68.62C265.22 69.3933 264.073 69.78 262.567 69.78ZM262.407 64.18C263.26 64.18 263.94 63.8867 264.447 63.3C264.953 62.7133 265.207 61.9133 265.207 60.9C265.207 59.8867 264.953 59.0933 264.447 58.52C263.94 57.9333 263.26 57.64 262.407 57.64C261.553 57.64 260.873 57.9333 260.367 58.52C259.86 59.0933 259.607 59.8867 259.607 60.9C259.607 61.9133 259.86 62.7133 260.367 63.3C260.873 63.8867 261.553 64.18 262.407 64.18ZM274.602 66.18C273.002 66.18 271.742 65.7333 270.822 64.84C269.902 63.9333 269.442 62.7 269.442 61.14C269.442 60.14 269.642 59.26 270.042 58.5C270.455 57.7267 271.022 57.1267 271.742 56.7C272.462 56.2733 273.288 56.06 274.222 56.06C275.568 56.06 276.628 56.4933 277.402 57.36C278.175 58.2133 278.562 59.3933 278.562 60.9V61.58H271.402C271.548 63.6067 272.622 64.62 274.622 64.62C275.182 64.62 275.728 64.5333 276.262 64.36C276.808 64.1867 277.322 63.9 277.802 63.5L278.402 64.9C277.962 65.3 277.395 65.6133 276.702 65.84C276.008 66.0667 275.308 66.18 274.602 66.18ZM274.302 57.48C273.462 57.48 272.795 57.74 272.302 58.26C271.808 58.78 271.508 59.4733 271.402 60.34H276.862C276.822 59.4333 276.582 58.7333 276.142 58.24C275.702 57.7333 275.088 57.48 274.302 57.48ZM284.184 66.18C283.384 66.18 282.637 66.08 281.944 65.88C281.25 65.6667 280.67 65.3733 280.204 65L280.784 63.64C281.277 63.9867 281.817 64.2533 282.404 64.44C283.004 64.6267 283.604 64.72 284.204 64.72C284.91 64.72 285.444 64.5933 285.804 64.34C286.164 64.0867 286.344 63.7467 286.344 63.32C286.344 62.9733 286.224 62.7067 285.984 62.52C285.744 62.32 285.384 62.1667 284.904 62.06L283.004 61.68C281.324 61.3333 280.484 60.4667 280.484 59.08C280.484 58.16 280.85 57.4267 281.584 56.88C282.317 56.3333 283.277 56.06 284.464 56.06C285.144 56.06 285.79 56.16 286.404 56.36C287.03 56.56 287.55 56.86 287.964 57.26L287.384 58.62C286.984 58.2733 286.524 58.0067 286.004 57.82C285.484 57.6333 284.97 57.54 284.464 57.54C283.77 57.54 283.244 57.6733 282.884 57.94C282.524 58.1933 282.344 58.54 282.344 58.98C282.344 59.6467 282.784 60.0733 283.664 60.26L285.564 60.64C286.43 60.8133 287.084 61.1067 287.524 61.52C287.977 61.9333 288.204 62.4933 288.204 63.2C288.204 64.1333 287.837 64.8667 287.104 65.4C286.37 65.92 285.397 66.18 284.184 66.18ZM298.885 69.88C297.978 68.4 297.318 66.9067 296.905 65.4C296.505 63.88 296.305 62.3267 296.305 60.74C296.305 59.1533 296.505 57.6067 296.905 56.1C297.318 54.58 297.978 53.08 298.885 51.6L300.305 52.16C299.665 53.6667 299.198 55.1067 298.905 56.48C298.612 57.8533 298.465 59.2733 298.465 60.74C298.465 62.1933 298.612 63.6133 298.905 65C299.198 66.3733 299.665 67.8133 300.305 69.32L298.885 69.88ZM307.344 66.18C306.237 66.18 305.224 66.04 304.304 65.76C303.384 65.4667 302.604 65.06 301.964 64.54L302.624 62.9C303.291 63.4067 304.004 63.7867 304.764 64.04C305.524 64.2933 306.384 64.42 307.344 64.42C308.477 64.42 309.311 64.22 309.844 63.82C310.391 63.4067 310.664 62.8733 310.664 62.22C310.664 61.6867 310.471 61.2667 310.084 60.96C309.697 60.64 309.051 60.3867 308.144 60.2L306.004 59.76C304.737 59.4933 303.791 59.0533 303.164 58.44C302.551 57.8267 302.244 57 302.244 55.96C302.244 55.12 302.464 54.38 302.904 53.74C303.357 53.1 303.984 52.6067 304.784 52.26C305.584 51.9 306.504 51.72 307.544 51.72C308.504 51.72 309.391 51.8667 310.204 52.16C311.031 52.44 311.731 52.8533 312.304 53.4L311.624 54.98C310.491 53.98 309.124 53.48 307.524 53.48C306.537 53.48 305.751 53.7 305.164 54.14C304.591 54.58 304.304 55.1667 304.304 55.9C304.304 56.46 304.484 56.9067 304.844 57.24C305.204 57.5733 305.804 57.8267 306.644 58L308.764 58.44C310.097 58.72 311.091 59.1533 311.744 59.74C312.397 60.3133 312.724 61.0933 312.724 62.08C312.724 62.9067 312.504 63.6267 312.064 64.24C311.624 64.8533 311.004 65.3333 310.204 65.68C309.404 66.0133 308.451 66.18 307.344 66.18ZM315.125 66V51.9H316.865L322.085 61.64L327.285 51.9H328.985V66H327.125V55.66L322.705 63.84H321.445L317.005 55.7V66H315.125ZM337.012 66.18C335.905 66.18 334.892 66.04 333.972 65.76C333.052 65.4667 332.272 65.06 331.632 64.54L332.292 62.9C332.959 63.4067 333.672 63.7867 334.432 64.04C335.192 64.2933 336.052 64.42 337.012 64.42C338.145 64.42 338.979 64.22 339.512 63.82C340.059 63.4067 340.332 62.8733 340.332 62.22C340.332 61.6867 340.139 61.2667 339.752 60.96C339.365 60.64 338.719 60.3867 337.812 60.2L335.672 59.76C334.405 59.4933 333.459 59.0533 332.832 58.44C332.219 57.8267 331.912 57 331.912 55.96C331.912 55.12 332.132 54.38 332.572 53.74C333.025 53.1 333.652 52.6067 334.452 52.26C335.252 51.9 336.172 51.72 337.212 51.72C338.172 51.72 339.059 51.8667 339.872 52.16C340.699 52.44 341.399 52.8533 341.972 53.4L341.292 54.98C340.159 53.98 338.792 53.48 337.192 53.48C336.205 53.48 335.419 53.7 334.832 54.14C334.259 54.58 333.972 55.1667 333.972 55.9C333.972 56.46 334.152 56.9067 334.512 57.24C334.872 57.5733 335.472 57.8267 336.312 58L338.432 58.44C339.765 58.72 340.759 59.1533 341.412 59.74C342.065 60.3133 342.392 61.0933 342.392 62.08C342.392 62.9067 342.172 63.6267 341.732 64.24C341.292 64.8533 340.672 65.3333 339.872 65.68C339.072 66.0133 338.119 66.18 337.012 66.18ZM345.233 69.88L343.813 69.32C344.44 67.7867 344.9 66.3333 345.193 64.96C345.487 63.5867 345.633 62.18 345.633 60.74C345.633 59.3 345.487 57.8933 345.193 56.52C344.9 55.1467 344.44 53.6933 343.813 52.16L345.233 51.6C346.14 53.0933 346.793 54.6 347.193 56.12C347.607 57.6267 347.813 59.1667 347.813 60.74C347.813 62.3267 347.607 63.88 347.193 65.4C346.793 66.9067 346.14 68.4 345.233 69.88Z" fill="black"/>
<circle cx="64" cy="60" r="28" fill="#F4FBFC"/>
<path d="M73.4268 61.332C73.0768 61.2866 72.7231 61.3818 72.4431 61.5967C72.1632 61.8117 71.9799 62.1288 71.9334 62.4787C71.6536 64.7389 70.5571 66.8188 68.8503 68.3267C67.1435 69.8346 64.9442 70.6664 62.6668 70.6654H55.2134L56.0801 69.7987C56.3284 69.5489 56.4678 69.2109 56.4678 68.8587C56.4678 68.5065 56.3284 68.1685 56.0801 67.9187C54.78 66.6135 53.8953 64.9528 53.5373 63.1457C53.1793 61.3387 53.3641 59.4661 54.0684 57.7638C54.7727 56.0616 55.9649 54.6058 57.495 53.5799C59.0251 52.554 60.8246 52.0038 62.6668 51.9987C63.0204 51.9987 63.3595 51.8582 63.6096 51.6082C63.8596 51.3581 64.0001 51.019 64.0001 50.6654C64.0001 50.3117 63.8596 49.9726 63.6096 49.7226C63.3595 49.4725 63.0204 49.332 62.6668 49.332C60.4124 49.3414 58.2063 49.9857 56.3012 51.191C54.396 52.3962 52.8689 54.1138 51.8949 56.1469C50.9208 58.1799 50.5391 60.4463 50.7935 62.6862C51.0479 64.9262 51.9282 67.0492 53.3334 68.812L51.0534 71.052C50.8684 71.2395 50.7431 71.4776 50.6933 71.7363C50.6434 71.9949 50.6713 72.2626 50.7734 72.5054C50.8735 72.7489 51.0433 72.9573 51.2616 73.1044C51.4799 73.2515 51.7369 73.3307 52.0001 73.332H62.6668C65.5887 73.3324 68.4104 72.2667 70.6025 70.3348C72.7946 68.4029 74.2066 65.7375 74.5734 62.8387C74.5978 62.6644 74.5875 62.4869 74.5429 62.3167C74.4984 62.1464 74.4206 61.9866 74.314 61.8465C74.2074 61.7064 74.0741 61.5889 73.9218 61.5006C73.7695 61.4123 73.6013 61.355 73.4268 61.332Z" fill="#2BBECB"/>
<ellipse cx="64.9525" cy="56.9537" rx="2.28571" ry="2.28571" fill="#EB008B"/>
<ellipse cx="70.6668" cy="56.9537" rx="2.28572" ry="2.28571" fill="#EB008B"/>
<ellipse cx="76.3812" cy="56.9537" rx="2.28571" ry="2.28571" fill="#EB008B"/>
<defs>
<filter id="filter0_d_3733_91998" x="0" y="0" width="440" height="128" filterUnits="userSpaceOnUse" color-interpolation-filters="sRGB">
<feFlood flood-opacity="0" result="BackgroundImageFix"/>
<feColorMatrix in="SourceAlpha" type="matrix" values="0 0 0 0 0 0 0 0 0 0 0 0 0 0 0 0 0 0 127 0" result="hardAlpha"/>
<feOffset dy="4"/>
<feGaussianBlur stdDeviation="8"/>
<feComposite in2="hardAlpha" operator="out"/>
<feColorMatrix type="matrix" values="0 0 0 0 0.666667 0 0 0 0 0.666667 0 0 0 0 0.666667 0 0 0 0.15 0"/>
<feBlend mode="normal" in2="BackgroundImageFix" result="effect1_dropShadow_3733_91998"/>
<feBlend mode="normal" in="SourceGraphic" in2="effect1_dropShadow_3733_91998" result="shape"/>
</filter>
</defs>
</svg>
