<svg width="125" height="125" viewBox="0 0 125 125" fill="none" xmlns="http://www.w3.org/2000/svg">
<rect x="0.5" y="0.5" width="124" height="124" rx="7.5" fill="white" stroke="#AAAAAA"/>
<g clip-path="url(#clip0_955_59493)">
<path d="M72.7539 44.9219H52.2461C50.3043 44.9242 48.4427 45.6966 47.0697 47.0697C45.6966 48.4427 44.9242 50.3043 44.9219 52.2461V72.7539C44.9242 74.6957 45.6966 76.5573 47.0697 77.9303C48.4427 79.3034 50.3043 80.0758 52.2461 80.0781H72.7539C74.6957 80.0758 76.5573 79.3034 77.9303 77.9303C79.3034 76.5573 80.0758 74.6957 80.0781 72.7539V52.2461C80.0758 50.3043 79.3034 48.4427 77.9303 47.0697C76.5573 45.6966 74.6957 44.9242 72.7539 44.9219V44.9219ZM52.2461 47.8516H72.7539C73.9194 47.8516 75.0372 48.3146 75.8613 49.1387C76.6854 49.9628 77.1484 51.0806 77.1484 52.2461V72.7539C77.1459 73.4065 76.9957 74.05 76.709 74.6362L63.2866 61.2139C62.6065 60.5335 61.799 59.9939 60.9102 59.6257C60.0215 59.2575 59.0689 59.068 58.1069 59.068C57.1449 59.068 56.1924 59.2575 55.3036 59.6257C54.4149 59.9939 53.6074 60.5335 52.9272 61.2139L47.8516 66.2881V52.2461C47.8516 51.0806 48.3146 49.9628 49.1387 49.1387C49.9628 48.3146 51.0806 47.8516 52.2461 47.8516ZM52.2461 77.1484C51.0806 77.1484 49.9628 76.6854 49.1387 75.8613C48.3146 75.0372 47.8516 73.9194 47.8516 72.7539V70.4307L54.9971 63.2852C55.4052 62.8768 55.8898 62.5528 56.4231 62.3318C56.9565 62.1108 57.5281 61.997 58.1055 61.997C58.6828 61.997 59.2545 62.1108 59.7878 62.3318C60.3212 62.5528 60.8058 62.8768 61.2139 63.2852L74.6362 76.709C74.05 76.9957 73.4065 77.1459 72.7539 77.1484H52.2461Z" fill="#AAAAAA"/>
<path d="M68.3613 60.3018C69.3753 60.3018 70.3666 60.0011 71.2097 59.4377C72.0528 58.8744 72.71 58.0736 73.098 57.1368C73.4861 56.2 73.5876 55.1691 73.3898 54.1746C73.1919 53.1801 72.7037 52.2665 71.9866 51.5495C71.2696 50.8325 70.3561 50.3442 69.3615 50.1464C68.367 49.9485 67.3362 50.0501 66.3993 50.4381C65.4625 50.8262 64.6618 51.4833 64.0984 52.3264C63.5351 53.1695 63.2344 54.1608 63.2344 55.1748C63.2344 56.5346 63.7745 57.8386 64.736 58.8001C65.6975 59.7616 67.0016 60.3018 68.3613 60.3018ZM68.3613 52.9775C68.7959 52.9775 69.2207 53.1064 69.5821 53.3478C69.9434 53.5893 70.225 53.9325 70.3913 54.334C70.5576 54.7354 70.6012 55.1772 70.5164 55.6035C70.4316 56.0297 70.2223 56.4212 69.915 56.7285C69.6077 57.0358 69.2162 57.2451 68.79 57.3299C68.3638 57.4146 67.922 57.3711 67.5205 57.2048C67.119 57.0385 66.7758 56.7569 66.5344 56.3955C66.2929 56.0342 66.1641 55.6094 66.1641 55.1748C66.1641 54.5921 66.3956 54.0332 66.8076 53.6211C67.2197 53.209 67.7786 52.9775 68.3613 52.9775Z" fill="#AAAAAA"/>
</g>
<defs>
<clipPath id="clip0_955_59493">
<rect width="35.1562" height="35.1562" fill="white" transform="translate(44.9219 44.9219)"/>
</clipPath>
</defs>
</svg>
