<svg width="24" height="24" viewBox="0 0 24 24" fill="none" xmlns="http://www.w3.org/2000/svg">
<g clip-path="url(#clip0_6623_70916)">
<path d="M4.5 17.5002H2C1.46957 17.5002 0.960859 17.711 0.585786 18.086C0.210714 18.4611 0 18.9698 0 19.5002L0 22.0002C0 22.5307 0.210714 23.0394 0.585786 23.4144C0.960859 23.7895 1.46957 24.0002 2 24.0002H4.5C5.03043 24.0002 5.53914 23.7895 5.91421 23.4144C6.28929 23.0394 6.5 22.5307 6.5 22.0002V19.5002C6.5 18.9698 6.28929 18.4611 5.91421 18.086C5.53914 17.711 5.03043 17.5002 4.5 17.5002ZM4.5 22.0002H2V19.5002H4.5V22.0002Z" fill="#444444"/>
<path d="M22 17.5002H19.5C18.9696 17.5002 18.4609 17.711 18.0858 18.086C17.7107 18.4611 17.5 18.9698 17.5 19.5002V22.0002C17.5 22.5307 17.7107 23.0394 18.0858 23.4144C18.4609 23.7895 18.9696 24.0002 19.5 24.0002H22C22.5304 24.0002 23.0391 23.7895 23.4142 23.4144C23.7893 23.0394 24 22.5307 24 22.0002V19.5002C24 18.9698 23.7893 18.4611 23.4142 18.086C23.0391 17.711 22.5304 17.5002 22 17.5002ZM22 22.0002H19.5V19.5002H22V22.0002Z" fill="#444444"/>
<path d="M4.5 8.74976H2C1.46957 8.74976 0.960859 8.96047 0.585786 9.33554C0.210714 9.71061 0 10.2193 0 10.7498L0 13.2497C0 13.7802 0.210714 14.2889 0.585786 14.664C0.960859 15.039 1.46957 15.2497 2 15.2497H4.5C5.03043 15.2497 5.53914 15.039 5.91421 14.664C6.28929 14.2889 6.5 13.7802 6.5 13.2497V10.7498C6.5 10.2193 6.28929 9.71061 5.91421 9.33554C5.53914 8.96047 5.03043 8.74976 4.5 8.74976ZM4.5 13.2497H2V10.7498H4.5V13.2497Z" fill="#444444"/>
<path d="M22 8.74976H19.5C18.9696 8.74976 18.4609 8.96047 18.0858 9.33554C17.7107 9.71061 17.5 10.2193 17.5 10.7498V13.2497C17.5 13.7802 17.7107 14.2889 18.0858 14.664C18.4609 15.039 18.9696 15.2497 19.5 15.2497H22C22.5304 15.2497 23.0391 15.039 23.4142 14.664C23.7893 14.2889 24 13.7802 24 13.2497V10.7498C24 10.2193 23.7893 9.71061 23.4142 9.33554C23.0391 8.96047 22.5304 8.74976 22 8.74976ZM22 13.2497H19.5V10.7498H22V13.2497Z" fill="#444444"/>
<path d="M4.5 0H2C1.46957 0 0.960859 0.210714 0.585786 0.585786C0.210714 0.960859 0 1.46957 0 2L0 4.5C0 5.03043 0.210714 5.53914 0.585786 5.91421C0.960859 6.28929 1.46957 6.5 2 6.5H4.5C5.03043 6.5 5.53914 6.28929 5.91421 5.91421C6.28929 5.53914 6.5 5.03043 6.5 4.5V2C6.5 1.46957 6.28929 0.960859 5.91421 0.585786C5.53914 0.210714 5.03043 0 4.5 0V0ZM4.5 4.5H2V2H4.5V4.5Z" fill="#444444"/>
<path d="M13.25 17.5002H10.75C10.2196 17.5002 9.71086 17.711 9.33579 18.086C8.96071 18.4611 8.75 18.9698 8.75 19.5002V22.0002C8.75 22.5307 8.96071 23.0394 9.33579 23.4144C9.71086 23.7895 10.2196 24.0002 10.75 24.0002H13.25C13.7804 24.0002 14.2891 23.7895 14.6642 23.4144C15.0393 23.0394 15.25 22.5307 15.25 22.0002V19.5002C15.25 18.9698 15.0393 18.4611 14.6642 18.086C14.2891 17.711 13.7804 17.5002 13.25 17.5002ZM13.25 22.0002H10.75V19.5002H13.25V22.0002Z" fill="#444444"/>
<path d="M13.25 8.74976H10.75C10.2196 8.74976 9.71086 8.96047 9.33579 9.33554C8.96071 9.71061 8.75 10.2193 8.75 10.7498V13.2497C8.75 13.7802 8.96071 14.2889 9.33579 14.664C9.71086 15.039 10.2196 15.2497 10.75 15.2497H13.25C13.7804 15.2497 14.2891 15.039 14.6642 14.664C15.0393 14.2889 15.25 13.7802 15.25 13.2497V10.7498C15.25 10.2193 15.0393 9.71061 14.6642 9.33554C14.2891 8.96047 13.7804 8.74976 13.25 8.74976ZM13.25 13.2497H10.75V10.7498H13.25V13.2497Z" fill="#444444"/>
<path d="M13.25 0H10.75C10.2196 0 9.71086 0.210714 9.33579 0.585786C8.96071 0.960859 8.75 1.46957 8.75 2V4.5C8.75 5.03043 8.96071 5.53914 9.33579 5.91421C9.71086 6.28929 10.2196 6.5 10.75 6.5H13.25C13.7804 6.5 14.2891 6.28929 14.6642 5.91421C15.0393 5.53914 15.25 5.03043 15.25 4.5V2C15.25 1.46957 15.0393 0.960859 14.6642 0.585786C14.2891 0.210714 13.7804 0 13.25 0V0ZM13.25 4.5H10.75V2H13.25V4.5Z" fill="#444444"/>
<path d="M22 0H19.5C18.9696 0 18.4609 0.210714 18.0858 0.585786C17.7107 0.960859 17.5 1.46957 17.5 2V4.5C17.5 5.03043 17.7107 5.53914 18.0858 5.91421C18.4609 6.28929 18.9696 6.5 19.5 6.5H22C22.5304 6.5 23.0391 6.28929 23.4142 5.91421C23.7893 5.53914 24 5.03043 24 4.5V2C24 1.46957 23.7893 0.960859 23.4142 0.585786C23.0391 0.210714 22.5304 0 22 0V0ZM22 4.5H19.5V2H22V4.5Z" fill="#444444"/>
</g>
<defs>
<clipPath id="clip0_6623_70916">
<rect width="24" height="24" fill="white"/>
</clipPath>
</defs>
</svg>
