<svg width="16" height="16" viewBox="0 0 16 16" fill="none" xmlns="http://www.w3.org/2000/svg">
<g clip-path="url(#clip0_8498_33440)">
<path d="M16 14.9999C16 15.2651 15.8946 15.5194 15.7071 15.707C15.5196 15.8945 15.2652 15.9999 15 15.9999H1C0.734784 15.9999 0.48043 15.8945 0.292893 15.707C0.105357 15.5194 0 15.2651 0 14.9999C0 14.7346 0.105357 14.4803 0.292893 14.2928C0.48043 14.1052 0.734784 13.9999 1 13.9999H15C15.2652 13.9999 15.5196 14.1052 15.7071 14.2928C15.8946 14.4803 16 14.7346 16 14.9999ZM0.246667 6.2272C0.0718323 5.90585 -0.0124519 5.54305 0.00281203 5.17754C0.018076 4.81202 0.132315 4.45752 0.333333 4.15186C0.633968 3.69002 1.04236 3.30817 1.52333 3.0392L6.296 0.434528C6.81825 0.148008 7.40432 -0.00219727 8 -0.00219727C8.59568 -0.00219727 9.18175 0.148008 9.704 0.434528L14.4773 3.0392C14.9578 3.30801 15.3659 3.68935 15.6667 4.15053C15.8682 4.45614 15.983 4.81075 15.9987 5.1765C16.0145 5.54225 15.9306 5.90541 15.756 6.2272C15.5847 6.54776 15.3324 6.81794 15.0244 7.0109C14.7164 7.20387 14.3632 7.31291 14 7.3272V10.6665H14.3333C14.5986 10.6665 14.8529 10.7719 15.0404 10.9594C15.228 11.147 15.3333 11.4013 15.3333 11.6665C15.3333 11.9317 15.228 12.1861 15.0404 12.3736C14.8529 12.5612 14.5986 12.6665 14.3333 12.6665H1.66667C1.40145 12.6665 1.1471 12.5612 0.95956 12.3736C0.772024 12.1861 0.666667 11.9317 0.666667 11.6665C0.666667 11.4013 0.772024 11.147 0.95956 10.9594C1.1471 10.7719 1.40145 10.6665 1.66667 10.6665H2V7.3272C1.63725 7.31245 1.28465 7.2032 0.977117 7.01026C0.669583 6.81732 0.417786 6.54738 0.246667 6.2272ZM4 10.6665H5.33333V7.3332H4V10.6665ZM7.33333 7.3332V10.6665H8.66667V7.3332H7.33333ZM12 10.6665V7.3332H10.6667V10.6665H12ZM2 5.25786C2.00401 5.27839 2.0148 5.29697 2.03064 5.31063C2.04647 5.32429 2.06644 5.33224 2.08733 5.3332H13.9127C13.9336 5.33161 13.9534 5.32328 13.9691 5.30945C13.9849 5.29562 13.9957 5.27705 14 5.25653C13.8784 5.06681 13.7137 4.90851 13.5193 4.79453L8.746 2.19053C8.51756 2.06524 8.26121 1.99956 8.00067 1.99956C7.74012 1.99956 7.48378 2.06524 7.25533 2.19053L2.48133 4.79453C2.28585 4.90787 2.1207 5.06684 2 5.25786Z" fill="white"/>
</g>
<defs>
<clipPath id="clip0_8498_33440">
<rect width="16" height="16" fill="white"/>
</clipPath>
</defs>
</svg>
