<svg width="16" height="16" viewBox="0 0 16 16" fill="none" xmlns="http://www.w3.org/2000/svg">
<g clip-path="url(#clip0_8498_33363)">
<path d="M12.3333 16H3.66667C2.69453 15.9989 1.76252 15.6123 1.07511 14.9249C0.387707 14.2375 0.00105878 13.3055 0 12.3333L0 3.66667C0.00105878 2.69453 0.387707 1.76252 1.07511 1.07511C1.76252 0.387707 2.69453 0.00105878 3.66667 0L12.3333 0C13.3055 0.00105878 14.2375 0.387707 14.9249 1.07511C15.6123 1.76252 15.9989 2.69453 16 3.66667V12.3333C15.9989 13.3055 15.6123 14.2375 14.9249 14.9249C14.2375 15.6123 13.3055 15.9989 12.3333 16ZM3.66667 2C3.22464 2 2.80072 2.17559 2.48816 2.48816C2.17559 2.80072 2 3.22464 2 3.66667V12.3333C2 12.7754 2.17559 13.1993 2.48816 13.5118C2.80072 13.8244 3.22464 14 3.66667 14H12.3333C12.7754 14 13.1993 13.8244 13.5118 13.5118C13.8244 13.1993 14 12.7754 14 12.3333V3.66667C14 3.22464 13.8244 2.80072 13.5118 2.48816C13.1993 2.17559 12.7754 2 12.3333 2H3.66667ZM12.6667 4.66667C12.6667 4.31305 12.5262 3.97391 12.2761 3.72386C12.0261 3.47381 11.687 3.33333 11.3333 3.33333H4.66667C4.31305 3.33333 3.97391 3.47381 3.72386 3.72386C3.47381 3.97391 3.33333 4.31305 3.33333 4.66667C3.33333 5.02029 3.47381 5.35943 3.72386 5.60948C3.97391 5.85952 4.31305 6 4.66667 6H11.3333C11.687 6 12.0261 5.85952 12.2761 5.60948C12.5262 5.35943 12.6667 5.02029 12.6667 4.66667ZM4.33333 7.66667C4.13555 7.66667 3.94221 7.72532 3.77776 7.8352C3.61331 7.94508 3.48514 8.10126 3.40945 8.28398C3.33377 8.46671 3.31396 8.66778 3.35255 8.86176C3.39113 9.05574 3.48637 9.23392 3.62623 9.37377C3.76608 9.51363 3.94426 9.60887 4.13824 9.64745C4.33222 9.68604 4.53329 9.66623 4.71602 9.59055C4.89874 9.51486 5.05492 9.38669 5.1648 9.22224C5.27468 9.05779 5.33333 8.86445 5.33333 8.66667C5.33333 8.40145 5.22798 8.1471 5.04044 7.95956C4.8529 7.77202 4.59855 7.66667 4.33333 7.66667ZM7.66667 7.66667C7.46889 7.66667 7.27555 7.72532 7.1111 7.8352C6.94665 7.94508 6.81847 8.10126 6.74279 8.28398C6.6671 8.46671 6.6473 8.66778 6.68588 8.86176C6.72447 9.05574 6.81971 9.23392 6.95956 9.37377C7.09941 9.51363 7.2776 9.60887 7.47158 9.64745C7.66556 9.68604 7.86662 9.66623 8.04935 9.59055C8.23208 9.51486 8.38826 9.38669 8.49814 9.22224C8.60802 9.05779 8.66667 8.86445 8.66667 8.66667C8.66667 8.40145 8.56131 8.1471 8.37377 7.95956C8.18624 7.77202 7.93188 7.66667 7.66667 7.66667ZM4.33333 10.6667C4.13555 10.6667 3.94221 10.7253 3.77776 10.8352C3.61331 10.9451 3.48514 11.1013 3.40945 11.284C3.33377 11.4667 3.31396 11.6678 3.35255 11.8618C3.39113 12.0557 3.48637 12.2339 3.62623 12.3738C3.76608 12.5136 3.94426 12.6089 4.13824 12.6475C4.33222 12.686 4.53329 12.6662 4.71602 12.5905C4.89874 12.5149 5.05492 12.3867 5.1648 12.2222C5.27468 12.0578 5.33333 11.8644 5.33333 11.6667C5.33333 11.4015 5.22798 11.1471 5.04044 10.9596C4.8529 10.772 4.59855 10.6667 4.33333 10.6667ZM7.66667 10.6667C7.46889 10.6667 7.27555 10.7253 7.1111 10.8352C6.94665 10.9451 6.81847 11.1013 6.74279 11.284C6.6671 11.4667 6.6473 11.6678 6.68588 11.8618C6.72447 12.0557 6.81971 12.2339 6.95956 12.3738C7.09941 12.5136 7.2776 12.6089 7.47158 12.6475C7.66556 12.686 7.86662 12.6662 8.04935 12.5905C8.23208 12.5149 8.38826 12.3867 8.49814 12.2222C8.60802 12.0578 8.66667 11.8644 8.66667 11.6667C8.66667 11.4015 8.56131 11.1471 8.37377 10.9596C8.18624 10.772 7.93188 10.6667 7.66667 10.6667ZM12.6667 11.6667C12.6667 11.4015 12.5613 11.1471 12.3738 10.9596C12.1862 10.772 11.9319 10.6667 11.6667 10.6667H11C10.7348 10.6667 10.4804 10.772 10.2929 10.9596C10.1054 11.1471 10 11.4015 10 11.6667C10 11.9319 10.1054 12.1862 10.2929 12.3738C10.4804 12.5613 10.7348 12.6667 11 12.6667H11.6667C11.9319 12.6667 12.1862 12.5613 12.3738 12.3738C12.5613 12.1862 12.6667 11.9319 12.6667 11.6667ZM12.6667 8.66667C12.6667 8.40145 12.5613 8.1471 12.3738 7.95956C12.1862 7.77202 11.9319 7.66667 11.6667 7.66667H11C10.7348 7.66667 10.4804 7.77202 10.2929 7.95956C10.1054 8.1471 10 8.40145 10 8.66667C10 8.93188 10.1054 9.18624 10.2929 9.37377C10.4804 9.56131 10.7348 9.66667 11 9.66667H11.6667C11.9319 9.66667 12.1862 9.56131 12.3738 9.37377C12.5613 9.18624 12.6667 8.93188 12.6667 8.66667Z" fill="white"/>
</g>
<defs>
<clipPath id="clip0_8498_33363">
<rect width="16" height="16" fill="white"/>
</clipPath>
</defs>
</svg>
