<svg width="16" height="16" viewBox="0 0 16 16" fill="none" xmlns="http://www.w3.org/2000/svg">
<g clip-path="url(#clip0_8498_33393)">
<path d="M12.3333 0H3.66667C2.69453 0.00105878 1.76252 0.387707 1.07511 1.07511C0.387707 1.76252 0.00105878 2.69453 0 3.66667L0 9C0.00105878 9.97214 0.387707 10.9042 1.07511 11.5916C1.76252 12.279 2.69453 12.6656 3.66667 12.6667H7V14H5.33333C5.06812 14 4.81376 14.1054 4.62623 14.2929C4.43869 14.4804 4.33333 14.7348 4.33333 15C4.33333 15.2652 4.43869 15.5196 4.62623 15.7071C4.81376 15.8946 5.06812 16 5.33333 16H10.6667C10.9319 16 11.1862 15.8946 11.3738 15.7071C11.5613 15.5196 11.6667 15.2652 11.6667 15C11.6667 14.7348 11.5613 14.4804 11.3738 14.2929C11.1862 14.1054 10.9319 14 10.6667 14H9V12.6667H12.3333C13.3055 12.6656 14.2375 12.279 14.9249 11.5916C15.6123 10.9042 15.9989 9.97214 16 9V3.66667C15.9989 2.69453 15.6123 1.76252 14.9249 1.07511C14.2375 0.387707 13.3055 0.00105878 12.3333 0V0ZM3.66667 2H12.3333C12.7754 2 13.1993 2.17559 13.5118 2.48816C13.8244 2.80072 14 3.22464 14 3.66667V8.66667H2V3.66667C2 3.22464 2.17559 2.80072 2.48816 2.48816C2.80072 2.17559 3.22464 2 3.66667 2Z" fill="white"/>
</g>
<defs>
<clipPath id="clip0_8498_33393">
<rect width="16" height="16" fill="white"/>
</clipPath>
</defs>
</svg>
