<svg width="16" height="16" viewBox="0 0 16 16" fill="none" xmlns="http://www.w3.org/2000/svg">
<g clip-path="url(#clip0_8498_33458)">
<path d="M11.1 10.3653C11.2674 10.5683 11.3481 10.8292 11.3245 11.0912C11.3009 11.3533 11.175 11.5955 10.974 11.7653C10.3185 12.3043 9.50808 12.6201 8.6607 12.6667C8.12467 12.6613 7.60868 12.4622 7.20803 12.106C7.158 12.0642 7.10546 12.0254 7.0507 11.99C6.78201 12.0885 6.53351 12.2351 6.31736 12.4227C6.1167 12.5923 5.85736 12.6761 5.59541 12.656C5.33346 12.6359 5.08994 12.5135 4.91749 12.3153C4.74504 12.1171 4.65752 11.859 4.67384 11.5968C4.69015 11.3346 4.80901 11.0893 5.0047 10.914C5.5825 10.3924 6.31359 10.0718 7.0887 10C7.5896 10.0096 8.07039 10.1989 8.44336 10.5333C8.61403 10.6667 8.62336 10.6667 8.6607 10.6667C9.03978 10.6216 9.39832 10.47 9.6947 10.2293C9.89926 10.0614 10.162 9.98147 10.4255 10.007C10.6889 10.0325 10.9315 10.1613 11.1 10.3653ZM10.332 6.66668H5.66536C5.40015 6.66668 5.14579 6.77204 4.95826 6.95957C4.77072 7.14711 4.66536 7.40146 4.66536 7.66668C4.66536 7.9319 4.77072 8.18625 4.95826 8.37379C5.14579 8.56132 5.40015 8.66668 5.66536 8.66668H10.332C10.5972 8.66668 10.8516 8.56132 11.0391 8.37379C11.2267 8.18625 11.332 7.9319 11.332 7.66668C11.332 7.40146 11.2267 7.14711 11.0391 6.95957C10.8516 6.77204 10.5972 6.66668 10.332 6.66668ZM14.6654 4.77135V12.3333C14.6643 13.3055 14.2777 14.2375 13.5903 14.9249C12.9028 15.6123 11.9708 15.999 10.9987 16H4.9987C4.02656 15.999 3.09455 15.6123 2.40714 14.9249C1.71974 14.2375 1.33309 13.3055 1.33203 12.3333V3.66668C1.33309 2.69454 1.71974 1.76253 2.40714 1.07512C3.09455 0.38772 4.02656 0.00107205 4.9987 1.32674e-05H9.89403C10.3757 -0.00128678 10.8529 0.092967 11.2979 0.277319C11.743 0.461671 12.147 0.732461 12.4867 1.07401L13.5914 2.17868C13.9329 2.51836 14.2037 2.9224 14.3881 3.36744C14.5724 3.81247 14.6667 4.28964 14.6654 4.77135ZM12.6654 12.3333V4.66668H11.332C10.9784 4.66668 10.6393 4.5262 10.3892 4.27616C10.1392 4.02611 9.9987 3.68697 9.9987 3.33335V2.00001H4.9987C4.55667 2.00001 4.13275 2.17561 3.82019 2.48817C3.50763 2.80073 3.33203 3.22465 3.33203 3.66668V12.3333C3.33203 12.7754 3.50763 13.1993 3.82019 13.5119C4.13275 13.8244 4.55667 14 4.9987 14H10.9987C11.4407 14 11.8646 13.8244 12.1772 13.5119C12.4898 13.1993 12.6654 12.7754 12.6654 12.3333Z" fill="white"/>
</g>
<defs>
<clipPath id="clip0_8498_33458">
<rect width="16" height="16" fill="white"/>
</clipPath>
</defs>
</svg>
