<svg width="16" height="16" viewBox="0 0 16 16" fill="none" xmlns="http://www.w3.org/2000/svg">
<g clip-path="url(#clip0_8498_33378)">
<path d="M12.3321 6.33333C12.5973 6.33333 12.8517 6.22798 13.0392 6.04044C13.2268 5.8529 13.3321 5.59855 13.3321 5.33333V4.87533C13.3309 3.93632 12.9573 3.03611 12.2933 2.37212C11.6293 1.70814 10.7291 1.33457 9.79011 1.33333H8.99878V1C8.99878 0.734784 8.89342 0.48043 8.70588 0.292893C8.51835 0.105357 8.26399 0 7.99878 0C7.73356 0 7.47921 0.105357 7.29167 0.292893C7.10413 0.48043 6.99878 0.734784 6.99878 1V1.33333H6.20744C5.3571 1.33207 4.53467 1.63676 3.89041 2.19176C3.24615 2.74675 2.82306 3.515 2.69842 4.35617C2.57378 5.19733 2.75592 6.05526 3.21156 6.77324C3.6672 7.49121 4.36593 8.0213 5.18011 8.26667L6.99878 8.764V12.6667H6.20744C5.79864 12.6661 5.40674 12.5035 5.11767 12.2144C4.8286 11.9254 4.66597 11.5335 4.66544 11.1247V10.6667C4.66544 10.4015 4.56009 10.1471 4.37255 9.95956C4.18501 9.77202 3.93066 9.66667 3.66544 9.66667C3.40023 9.66667 3.14587 9.77202 2.95834 9.95956C2.7708 10.1471 2.66544 10.4015 2.66544 10.6667V11.1247C2.66668 12.0637 3.04025 12.9639 3.70424 13.6279C4.36822 14.2919 5.26843 14.6654 6.20744 14.6667H6.99878V15C6.99878 15.2652 7.10413 15.5196 7.29167 15.7071C7.47921 15.8946 7.73356 16 7.99878 16C8.26399 16 8.51835 15.8946 8.70588 15.7071C8.89342 15.5196 8.99878 15.2652 8.99878 15V14.6667H9.79011C10.6405 14.6679 11.4629 14.3632 12.1071 13.8082C12.7514 13.2532 13.1745 12.485 13.2991 11.6438C13.4238 10.8027 13.2416 9.94474 12.786 9.22676C12.3304 8.50879 11.6316 7.9787 10.8174 7.73333L8.99878 7.23733V3.33333H9.79011C10.1989 3.33386 10.5908 3.49649 10.8799 3.78556C11.169 4.07463 11.3316 4.46653 11.3321 4.87533V5.33333C11.3321 5.59855 11.4375 5.8529 11.625 6.04044C11.8125 6.22798 12.0669 6.33333 12.3321 6.33333ZM10.2534 9.65267C10.6051 9.7635 10.9055 9.99664 11.1001 10.3099C11.2947 10.6231 11.3707 10.9956 11.3143 11.36C11.2579 11.7245 11.0728 12.0566 10.7925 12.2963C10.5123 12.536 10.1555 12.6674 9.78678 12.6667H8.99878V9.31L10.2534 9.65267ZM6.99878 6.69L5.74411 6.34733C5.39269 6.23659 5.09251 6.00371 4.89789 5.69085C4.70326 5.37798 4.62705 5.00579 4.68303 4.6416C4.73902 4.27742 4.9235 3.9453 5.20311 3.70534C5.48272 3.46538 5.83898 3.33342 6.20744 3.33333H6.99878V6.69Z" fill="white"/>
</g>
<defs>
<clipPath id="clip0_8498_33378">
<rect width="16" height="16" fill="white"/>
</clipPath>
</defs>
</svg>
