<svg width="16" height="16" viewBox="0 0 16 16" fill="none" xmlns="http://www.w3.org/2000/svg">
<g clip-path="url(#clip0_3894_65506)">
<path d="M15 14H3.66667C3.22464 14 2.80072 13.8244 2.48816 13.5118C2.17559 13.1993 2 12.7754 2 12.3333V1C2 0.734784 1.89464 0.48043 1.70711 0.292893C1.51957 0.105357 1.26522 0 1 0C0.734784 0 0.48043 0.105357 0.292893 0.292893C0.105357 0.48043 0 0.734784 0 1L0 12.3333C0.00105878 13.3055 0.387707 14.2375 1.07511 14.9249C1.76252 15.6123 2.69453 15.9989 3.66667 16H15C15.2652 16 15.5196 15.8946 15.7071 15.7071C15.8946 15.5196 16 15.2652 16 15C16 14.7348 15.8946 14.4804 15.7071 14.2929C15.5196 14.1054 15.2652 14 15 14Z" fill="white"/>
<path d="M6.33301 6C6.06779 6 5.81344 6.10536 5.6259 6.29289C5.43836 6.48043 5.33301 6.73478 5.33301 7V11.6667C5.33301 11.9319 5.43836 12.1862 5.6259 12.3738C5.81344 12.5613 6.06779 12.6667 6.33301 12.6667C6.59822 12.6667 6.85258 12.5613 7.04011 12.3738C7.22765 12.1862 7.33301 11.9319 7.33301 11.6667V7C7.33301 6.73478 7.22765 6.48043 7.04011 6.29289C6.85258 6.10536 6.59822 6 6.33301 6Z" fill="white"/>
<path d="M9.33301 9V11.6667C9.33301 11.9319 9.43836 12.1862 9.6259 12.3738C9.81344 12.5613 10.0678 12.6667 10.333 12.6667C10.5982 12.6667 10.8526 12.5613 11.0401 12.3738C11.2277 12.1862 11.333 11.9319 11.333 11.6667V9C11.333 8.73478 11.2277 8.48043 11.0401 8.29289C10.8526 8.10536 10.5982 8 10.333 8C10.0678 8 9.81344 8.10536 9.6259 8.29289C9.43836 8.48043 9.33301 8.73478 9.33301 9Z" fill="white"/>
<path d="M13.333 6.33325V11.6666C13.333 11.9318 13.4384 12.1861 13.6259 12.3737C13.8134 12.5612 14.0678 12.6666 14.333 12.6666C14.5982 12.6666 14.8526 12.5612 15.0401 12.3737C15.2277 12.1861 15.333 11.9318 15.333 11.6666V6.33325C15.333 6.06803 15.2277 5.81368 15.0401 5.62614C14.8526 5.43861 14.5982 5.33325 14.333 5.33325C14.0678 5.33325 13.8134 5.43861 13.6259 5.62614C13.4384 5.81368 13.333 6.06803 13.333 6.33325Z" fill="white"/>
<path d="M3.99972 5.00002C4.22669 5.0005 4.44696 4.92308 4.62372 4.78069L6.14238 3.56669C6.44904 3.3205 6.83586 3.1963 7.22852 3.21796C7.62118 3.23961 7.99199 3.4056 8.26971 3.68402C8.91065 4.31681 9.76446 4.68795 10.6644 4.72493C11.5643 4.76191 12.4457 4.46209 13.1364 3.88402L15.6457 1.76069C15.7526 1.67805 15.8417 1.57461 15.9075 1.4566C15.9733 1.33859 16.0145 1.20847 16.0287 1.07408C16.0428 0.939699 16.0296 0.803845 15.9897 0.674724C15.9499 0.545603 15.8843 0.425893 15.7969 0.322823C15.7096 0.219752 15.6022 0.13546 15.4813 0.075036C15.3605 0.0146116 15.2286 -0.0206914 15.0937 -0.0287414C14.9588 -0.0367914 14.8237 -0.0174213 14.6965 0.0281991C14.5693 0.0738195 14.4527 0.144744 14.3537 0.23669L11.845 2.36002C11.5378 2.61624 11.146 2.74865 10.7463 2.73139C10.3466 2.71413 9.96774 2.54844 9.68371 2.26669C9.05842 1.63964 8.22358 1.26562 7.33942 1.2164C6.45526 1.16719 5.58406 1.44625 4.89305 2.00002L3.37505 3.21936C3.21333 3.34882 3.0958 3.52532 3.03872 3.72447C2.98163 3.92361 2.9878 4.13557 3.05638 4.33105C3.12496 4.52653 3.25255 4.6959 3.42154 4.81573C3.59052 4.93557 3.79255 4.99997 3.99972 5.00002Z" fill="white"/>
</g>
<defs>
<clipPath id="clip0_3894_65506">
<rect width="16" height="16" fill="white"/>
</clipPath>
</defs>
</svg>
