<svg width="24" height="24" viewBox="0 0 24 24" fill="none" xmlns="http://www.w3.org/2000/svg">
<g clip-path="url(#clip0_11188_509131)">
<path d="M16.5026 13V9.04737C16.5048 8.47783 16.394 7.9135 16.1766 7.38709C15.9592 6.86068 15.6394 6.38265 15.2359 5.9807L14.5193 5.2667C14.1173 4.86319 13.6393 4.54346 13.1129 4.32603C12.5865 4.1086 12.0221 3.99779 11.4526 4.00003H9.5026C8.53047 4.00109 7.59845 4.38774 6.91105 5.07514C6.22364 5.76255 5.837 6.69456 5.83594 7.6667V13C5.837 13.9722 6.22364 14.9042 6.91105 15.5916C7.59845 16.279 8.53047 16.6656 9.5026 16.6667H12.8359C13.8081 16.6656 14.7401 16.279 15.4275 15.5916C16.1149 14.9042 16.5015 13.9722 16.5026 13ZM7.83594 13V7.6667C7.83594 7.22467 8.01153 6.80075 8.32409 6.48819C8.63665 6.17563 9.06058 6.00003 9.5026 6.00003H11.4553C11.583 6.00204 11.7103 6.01453 11.8359 6.03737V7.33337C11.8359 7.68699 11.9764 8.02613 12.2265 8.27618C12.4765 8.52623 12.8156 8.6667 13.1693 8.6667H14.4653C14.4881 8.79235 14.5006 8.91967 14.5026 9.04737V13C14.5026 13.4421 14.327 13.866 14.0144 14.1785C13.7019 14.4911 13.278 14.6667 12.8359 14.6667H9.5026C9.06058 14.6667 8.63665 14.4911 8.32409 14.1785C8.01153 13.866 7.83594 13.4421 7.83594 13ZM19.8359 9.6667V16.3334C19.8349 17.3055 19.4482 18.2375 18.7608 18.9249C18.0734 19.6123 17.1414 19.999 16.1693 20H10.8359C10.5707 20 10.3164 19.8947 10.1288 19.7071C9.94129 19.5196 9.83594 19.2653 9.83594 19C9.83594 18.7348 9.94129 18.4805 10.1288 18.2929C10.3164 18.1054 10.5707 18 10.8359 18H16.1693C16.6113 18 17.0352 17.8244 17.3478 17.5119C17.6603 17.1993 17.8359 16.7754 17.8359 16.3334V9.6667C17.8359 9.40148 17.9413 9.14713 18.1288 8.95959C18.3164 8.77206 18.5707 8.6667 18.8359 8.6667C19.1012 8.6667 19.3555 8.77206 19.543 8.95959C19.7306 9.14713 19.8359 9.40148 19.8359 9.6667Z" fill="#EB008B"/>
</g>
<defs>
<clipPath id="clip0_11188_509131">
<rect width="16" height="16" fill="white" transform="translate(4.5 4)"/>
</clipPath>
</defs>
</svg>
