<svg width="24" height="24" viewBox="0 0 24 24" fill="none" xmlns="http://www.w3.org/2000/svg">
<path d="M17.0821 9.91667C17.4137 9.91667 17.7316 9.78497 17.966 9.55055C18.2004 9.31613 18.3321 8.99819 18.3321 8.66667V8.09417C18.3306 6.92039 17.8636 5.79514 17.0336 4.96516C16.2037 4.13517 15.0784 3.66821 13.9046 3.66667H12.9155V3.25C12.9155 2.91848 12.7838 2.60054 12.5493 2.36612C12.3149 2.1317 11.997 2 11.6655 2C11.3339 2 11.016 2.1317 10.7816 2.36612C10.5472 2.60054 10.4155 2.91848 10.4155 3.25V3.66667H9.4263C8.36336 3.66508 7.33533 4.04595 6.53001 4.7397C5.72468 5.43344 5.19581 6.39375 5.04002 7.44521C4.88422 8.49667 5.11189 9.56908 5.68144 10.4665C6.25099 11.364 7.12441 12.0266 8.14213 12.3333L10.4155 12.955V17.8333H9.4263C8.91529 17.8327 8.42541 17.6294 8.06408 17.2681C7.70275 16.9067 7.49946 16.4168 7.4988 15.9058V15.3333C7.4988 15.0018 7.3671 14.6839 7.13268 14.4494C6.89826 14.215 6.58032 14.0833 6.2488 14.0833C5.91728 14.0833 5.59933 14.215 5.36491 14.4494C5.13049 14.6839 4.9988 15.0018 4.9988 15.3333V15.9058C5.00034 17.0796 5.4673 18.2049 6.29729 19.0348C7.12727 19.8648 8.25252 20.3318 9.4263 20.3333H10.4155V20.75C10.4155 21.0815 10.5472 21.3995 10.7816 21.6339C11.016 21.8683 11.3339 22 11.6655 22C11.997 22 12.3149 21.8683 12.5493 21.6339C12.7838 21.3995 12.9155 21.0815 12.9155 20.75V20.3333H13.9046C14.9676 20.3349 15.9956 19.954 16.8009 19.2603C17.6062 18.5666 18.1351 17.6062 18.2909 16.5548C18.4467 15.5033 18.219 14.4309 17.6495 13.5335C17.0799 12.636 16.2065 11.9734 15.1888 11.6667L12.9155 11.0467V6.16667H13.9046C14.4156 6.16733 14.9055 6.37062 15.2668 6.73195C15.6282 7.09328 15.8315 7.58317 15.8321 8.09417V8.66667C15.8321 8.99819 15.9638 9.31613 16.1982 9.55055C16.4327 9.78497 16.7506 9.91667 17.0821 9.91667ZM14.4838 14.0658C14.9234 14.2044 15.2989 14.4958 15.5421 14.8873C15.7854 15.2788 15.8804 15.7445 15.8098 16.2001C15.7393 16.6556 15.5079 17.0707 15.1577 17.3704C14.8074 17.67 14.3614 17.8342 13.9005 17.8333H12.9155V13.6375L14.4838 14.0658ZM10.4155 10.3625L8.84713 9.93417C8.40785 9.79573 8.03263 9.50464 7.78935 9.11356C7.54607 8.72248 7.4508 8.25723 7.52078 7.802C7.59077 7.34678 7.82137 6.93163 8.17088 6.63168C8.52039 6.33172 8.96572 6.16677 9.4263 6.16667H10.4155V10.3625Z" fill="black"/>
</svg>
