<svg width="32" height="19" viewBox="0 0 32 19" fill="none" xmlns="http://www.w3.org/2000/svg">
<g clip-path="url(#clip0_18588_224209)" filter="url(#filter0_d_18588_224209)">
<path d="M7.99948 17.3661C12.3441 17.3661 15.8661 13.8441 15.8661 9.49948C15.8661 5.15484 12.3441 1.63281 7.99948 1.63281C3.65484 1.63281 0.132812 5.15484 0.132812 9.49948C0.132812 13.8441 3.65484 17.3661 7.99948 17.3661Z" fill="#2BBECB"/>
<path d="M11.4648 12.6866C13.2604 10.7713 13.1633 7.76294 11.2471 5.96726C9.33162 4.17158 6.32351 4.26881 4.52756 6.1847C2.73204 8.10022 2.82954 11.109 4.74527 12.9045C4.97338 13.118 5.21748 13.3042 5.47268 13.4644L5.28479 14.2686C5.15508 14.8241 5.49562 15.1433 6.04154 14.9779L8.98437 14.0862C8.9873 14.0854 8.98959 14.0846 8.9921 14.0838C9.90778 13.8884 10.7759 13.4216 11.4648 12.6866Z" fill="white"/>
<path d="M6.86144 11.4136H6.25781V10.9608H6.93541L7.05595 10.3034H6.45232V9.85069H7.12992L7.33136 8.72461H7.92165L7.72032 9.85069H8.41157L8.61301 8.72461H9.19685L8.99541 9.85069H9.59904V10.3034H8.91488L8.80069 10.9608H9.40475V11.4136H8.7336L8.52571 12.5397H7.94187L8.14331 11.4136H7.44528L7.24421 12.5397H6.66016L6.86144 11.4136ZM7.63995 10.3035L7.52576 10.9609H8.21701L8.33099 10.3035H7.63995Z" fill="#2BBECB"/>
<path d="M9.47731 8.19913C9.28125 8.13844 9.08003 8.08633 8.86659 8.05364C7.99064 7.9179 7.23368 7.99646 6.57885 8.2746C6.56738 8.22244 6.55261 8.15241 6.53197 8.0579L6.05469 5.76953C6.05469 5.76953 6.7204 6.84702 7.21773 6.82212C7.69928 6.79918 8.09837 5.789 8.09837 5.789C8.09837 5.789 8.48296 6.79646 8.94483 6.82953C9.38877 6.86062 10.1419 5.80884 10.1419 5.80884C10.1419 5.80884 9.65816 7.5643 9.50899 8.08708L9.47731 8.19913Z" fill="#EB008B"/>
<circle cx="8" cy="10" r="6" fill="#2BBECB"/>
<path d="M11.5374 10.6229C11.5209 9.61617 11.1611 8.77935 10.4788 8.09761C9.82963 7.49801 8.97675 7.19141 7.88406 7.19141C6.73934 7.19141 5.78239 7.63462 5.03185 8.50542C4.48558 9.1721 4.19531 10.0094 4.19531 11.0668C4.19531 12.0237 4.50292 12.8917 5.1352 13.5057C5.98292 14.2881 6.76041 14.4823 8.02353 14.5003C8.81048 14.5003 9.8735 14.3036 10.607 13.877C10.54 13.4844 10.3547 13.1048 10.1837 12.8829C9.55299 13.1731 8.7315 13.3737 8.11585 13.3737C6.74937 13.3737 5.94365 12.9626 5.59533 11.7502C7.40272 11.7808 9.66651 11.6244 11.4527 11.1703C11.5046 11.1565 11.5374 10.9656 11.5374 10.6229ZM5.65424 10.7656C5.65424 10.4298 5.80145 9.53705 5.92444 9.23589C6.04814 8.93673 6.28753 8.58512 6.5712 8.55731C7.45389 8.46758 7.55839 10.1084 7.61243 10.6733C6.84885 10.7391 6.24295 10.7909 5.65424 10.7656ZM8.52637 10.5961C8.51075 10.2609 8.46904 9.33838 8.55103 8.92269C8.61481 8.60289 8.78281 8.42386 9.06333 8.38157C9.9413 8.25185 10.3084 9.73916 10.3884 10.3021C9.81702 10.4577 9.14116 10.5779 8.52637 10.5961Z" fill="white"/>
<path d="M6.97085 6.75061C6.78293 6.80078 6.59429 6.86213 6.40666 6.94225C5.63591 7.27509 5.06899 7.72089 4.68398 8.27461C4.64843 8.23935 4.60112 8.18861 4.53762 8.12368L3 6.53043C3 6.53043 4.07621 7.05736 4.4628 6.78687C4.83735 6.52542 4.64929 5.51429 4.64929 5.51429C4.64929 5.51429 5.46619 6.12764 5.85121 5.9231C6.22332 5.72256 6.29858 4.5 6.29858 4.5C6.29858 4.5 6.79611 6.1513 6.93917 6.64654L6.97085 6.75061Z" fill="#EB008B"/>
</g>
<defs>
<filter id="filter0_d_18588_224209" x="-16" y="-10.5" width="48" height="48" filterUnits="userSpaceOnUse" color-interpolation-filters="sRGB">
<feFlood flood-opacity="0" result="BackgroundImageFix"/>
<feColorMatrix in="SourceAlpha" type="matrix" values="0 0 0 0 0 0 0 0 0 0 0 0 0 0 0 0 0 0 127 0" result="hardAlpha"/>
<feOffset dy="4"/>
<feGaussianBlur stdDeviation="8"/>
<feComposite in2="hardAlpha" operator="out"/>
<feColorMatrix type="matrix" values="0 0 0 0 0.666667 0 0 0 0 0.666667 0 0 0 0 0.666667 0 0 0 0.15 0"/>
<feBlend mode="normal" in2="BackgroundImageFix" result="effect1_dropShadow_18588_224209"/>
<feBlend mode="normal" in="SourceGraphic" in2="effect1_dropShadow_18588_224209" result="shape"/>
</filter>
<clipPath id="clip0_18588_224209">
<rect width="16" height="16" fill="white" transform="translate(0 1.5)"/>
</clipPath>
</defs>
</svg>
