<svg width="30" height="30" viewBox="0 0 30 30" fill="none" xmlns="http://www.w3.org/2000/svg">
<rect width="30" height="30" rx="3" fill="#D5FAFD"/>
<path d="M19.474 9.40783L21.592 11.5248L19.474 9.40783ZM20.836 7.54283L15.109 13.2698C14.8131 13.5653 14.6113 13.9418 14.529 14.3518L14 16.9998L16.648 16.4698C17.058 16.3878 17.434 16.1868 17.73 15.8908L23.457 10.1638C23.6291 9.99173 23.7656 9.78742 23.8588 9.56256C23.9519 9.33771 23.9998 9.09671 23.9998 8.85333C23.9998 8.60994 23.9519 8.36895 23.8588 8.14409C23.7656 7.91923 23.6291 7.71492 23.457 7.54283C23.2849 7.37073 23.0806 7.23421 22.8557 7.14108C22.6309 7.04794 22.3899 7 22.1465 7C21.9031 7 21.6621 7.04794 21.4373 7.14108C21.2124 7.23421 21.0081 7.37073 20.836 7.54283V7.54283Z" stroke="#2BBECB" stroke-width="2" stroke-linecap="round" stroke-linejoin="round"/>
<path d="M22 19V22C22 22.5304 21.7893 23.0391 21.4142 23.4142C21.0391 23.7893 20.5304 24 20 24H9C8.46957 24 7.96086 23.7893 7.58579 23.4142C7.21071 23.0391 7 22.5304 7 22V11C7 10.4696 7.21071 9.96086 7.58579 9.58579C7.96086 9.21071 8.46957 9 9 9H12" stroke="#2BBECB" stroke-width="2" stroke-linecap="round" stroke-linejoin="round"/>
</svg>
