<svg width="16" height="16" viewBox="0 0 16 16" fill="none" xmlns="http://www.w3.org/2000/svg">
<path d="M8.00259 3.33331C8.92305 3.33331 9.66924 2.58712 9.66924 1.66666C9.66924 0.746187 8.92305 0 8.00259 0C7.08212 0 6.33594 0.746187 6.33594 1.66666C6.33594 2.58712 7.08212 3.33331 8.00259 3.33331Z" fill="#444444"/>
<path d="M8.00259 9.66729C8.92305 9.66729 9.66924 8.9211 9.66924 8.00064C9.66924 7.08017 8.92305 6.33398 8.00259 6.33398C7.08212 6.33398 6.33594 7.08017 6.33594 8.00064C6.33594 8.9211 7.08212 9.66729 8.00259 9.66729Z" fill="#444444"/>
<path d="M8.00259 15.9993C8.92305 15.9993 9.66924 15.2531 9.66924 14.3327C9.66924 13.4122 8.92305 12.666 8.00259 12.666C7.08212 12.666 6.33594 13.4122 6.33594 14.3327C6.33594 15.2531 7.08212 15.9993 8.00259 15.9993Z" fill="#444444"/>
</svg>
