<svg width="32" height="32" viewBox="0 0 32 32" fill="none" xmlns="http://www.w3.org/2000/svg">
<path d="M24.0007 17.5746V13.3346C23.9987 11.4455 23.3283 9.61793 22.1081 8.17567C20.8879 6.73341 19.1967 5.7695 17.334 5.45464V4.0013C17.334 3.64768 17.1935 3.30854 16.9435 3.05849C16.6934 2.80844 16.3543 2.66797 16.0007 2.66797C15.647 2.66797 15.3079 2.80844 15.0578 3.05849C14.8078 3.30854 14.6673 3.64768 14.6673 4.0013V5.45464C12.8046 5.7695 11.1133 6.73341 9.89316 8.17567C8.67298 9.61793 8.00257 11.4455 8.00065 13.3346V17.5746C7.22258 17.8497 6.54865 18.3587 6.07124 19.0319C5.59382 19.705 5.3363 20.5094 5.33398 21.3346V24.0013C5.33398 24.3549 5.47446 24.6941 5.72451 24.9441C5.97456 25.1942 6.3137 25.3346 6.66732 25.3346H10.854C11.161 26.4645 11.8313 27.4619 12.7614 28.1729C13.6916 28.884 14.8298 29.2693 16.0007 29.2693C17.1715 29.2693 18.3097 28.884 19.2399 28.1729C20.17 27.4619 20.8403 26.4645 21.1473 25.3346H25.334C25.6876 25.3346 26.0267 25.1942 26.2768 24.9441C26.5268 24.6941 26.6673 24.3549 26.6673 24.0013V21.3346C26.665 20.5094 26.4075 19.705 25.9301 19.0319C25.4527 18.3587 24.7787 17.8497 24.0007 17.5746ZM10.6673 13.3346C10.6673 11.9201 11.2292 10.5636 12.2294 9.5634C13.2296 8.56321 14.5862 8.0013 16.0007 8.0013C17.4151 8.0013 18.7717 8.56321 19.7719 9.5634C20.7721 10.5636 21.334 11.9201 21.334 13.3346V17.3346H10.6673V13.3346ZM16.0007 26.668C15.5353 26.6652 15.0787 26.5406 14.6764 26.3067C14.2741 26.0728 13.94 25.7377 13.7073 25.3346H18.294C18.0613 25.7377 17.7272 26.0728 17.3249 26.3067C16.9226 26.5406 16.466 26.6652 16.0007 26.668ZM24.0007 22.668H8.00065V21.3346C8.00065 20.981 8.14113 20.6419 8.39118 20.3918C8.64122 20.1418 8.98036 20.0013 9.33398 20.0013H22.6673C23.0209 20.0013 23.3601 20.1418 23.6101 20.3918C23.8602 20.6419 24.0007 20.981 24.0007 21.3346V22.668Z" fill="#444444"/>
</svg>
