<svg width="16" height="16" viewBox="0 0 16 16" fill="none" xmlns="http://www.w3.org/2000/svg">
<g clip-path="url(#clip0_13153_104533)">
<path d="M12.6667 3.33464H11.2667C11.1119 2.58224 10.7025 1.9062 10.1075 1.42045C9.51245 0.934696 8.76814 0.668938 8 0.667969H3.33333C2.4496 0.669027 1.60237 1.02056 0.97748 1.64545C0.352588 2.27034 0.00105857 3.11757 0 4.0013L0 10.0013C0.00167587 10.5984 0.203692 11.1776 0.573691 11.6463C0.94369 12.1149 1.46026 12.4458 2.04067 12.586C1.97784 12.9196 1.98858 13.2629 2.07213 13.592C2.15568 13.921 2.31002 14.2279 2.5244 14.4911C2.73877 14.7544 3.00801 14.9677 3.31332 15.1162C3.61864 15.2646 3.95267 15.3447 4.29211 15.3507C4.63156 15.3568 4.96823 15.2887 5.27864 15.1512C5.58905 15.0137 5.86572 14.8101 6.08934 14.5547C6.31296 14.2993 6.47815 13.9981 6.57337 13.6722C6.66859 13.3464 6.69156 13.0036 6.64067 12.668H9.362C9.34485 12.7783 9.33571 12.8897 9.33467 13.0013C9.33467 13.6201 9.5805 14.2136 10.0181 14.6512C10.4557 15.0888 11.0492 15.3346 11.668 15.3346C12.2868 15.3346 12.8803 15.0888 13.3179 14.6512C13.7555 14.2136 14.0013 13.6201 14.0013 13.0013C14.0006 12.8619 13.987 12.7229 13.9607 12.586C14.5408 12.4455 15.0571 12.1145 15.4268 11.6459C15.7966 11.1773 15.9984 10.5982 16 10.0013V6.66797C15.9989 5.78424 15.6474 4.93701 15.0225 4.31212C14.3976 3.68722 13.5504 3.33569 12.6667 3.33464ZM14.6667 6.66797V7.33464H11.3333V4.66797H12.6667C13.1971 4.66797 13.7058 4.87868 14.0809 5.25376C14.456 5.62883 14.6667 6.13754 14.6667 6.66797ZM1.33333 10.0013V4.0013C1.33333 3.47087 1.54405 2.96216 1.91912 2.58709C2.29419 2.21202 2.8029 2.0013 3.33333 2.0013H8C8.53043 2.0013 9.03914 2.21202 9.41421 2.58709C9.78929 2.96216 10 3.47087 10 4.0013V11.3346H2.66667C2.31304 11.3346 1.97391 11.1942 1.72386 10.9441C1.47381 10.6941 1.33333 10.3549 1.33333 10.0013ZM5.33333 13.0013C5.33333 13.2665 5.22798 13.5209 5.04044 13.7084C4.8529 13.8959 4.59855 14.0013 4.33333 14.0013C4.06812 14.0013 3.81376 13.8959 3.62623 13.7084C3.43869 13.5209 3.33333 13.2665 3.33333 13.0013C3.33374 12.8874 3.35475 12.7744 3.39533 12.668H5.27133C5.31192 12.7744 5.33292 12.8874 5.33333 13.0013ZM11.6667 14.0013C11.4015 14.0013 11.1471 13.8959 10.9596 13.7084C10.772 13.5209 10.6667 13.2665 10.6667 13.0013C10.667 12.8874 10.688 12.7744 10.7287 12.668H12.6047C12.6454 12.7744 12.6664 12.8874 12.6667 13.0013C12.6667 13.2665 12.5613 13.5209 12.3738 13.7084C12.1862 13.8959 11.9319 14.0013 11.6667 14.0013ZM13.3333 11.3346H11.3333V8.66797H14.6667V10.0013C14.6667 10.3549 14.5262 10.6941 14.2761 10.9441C14.0261 11.1942 13.687 11.3346 13.3333 11.3346Z" fill="white"/>
</g>
<defs>
<clipPath id="clip0_13153_104533">
<rect width="16" height="16" fill="white"/>
</clipPath>
</defs>
</svg>
