<svg width="30" height="30" viewBox="0 0 30 30" fill="none" xmlns="http://www.w3.org/2000/svg">
<rect width="30" height="30" rx="3" fill="#D5FAFD"/>
<path d="M23.9235 15.6C21.9035 10.91 18.1035 8 14.0035 8C9.90348 8 6.10348 10.91 4.08348 15.6C4.02842 15.7262 4 15.8623 4 16C4 16.1377 4.02842 16.2738 4.08348 16.4C6.10348 21.09 9.90348 24 14.0035 24C18.1035 24 21.9035 21.09 23.9235 16.4C23.9785 16.2738 24.007 16.1377 24.007 16C24.007 15.8623 23.9785 15.7262 23.9235 15.6ZM14.0035 22C10.8235 22 7.83348 19.71 6.10348 16C7.83348 12.29 10.8235 10 14.0035 10C17.1835 10 20.1735 12.29 21.9035 16C20.1735 19.71 17.1835 22 14.0035 22ZM14.0035 12C13.2124 12 12.439 12.2346 11.7812 12.6741C11.1234 13.1136 10.6107 13.7384 10.308 14.4693C10.0052 15.2002 9.926 16.0044 10.0803 16.7804C10.2347 17.5563 10.6156 18.269 11.1751 18.8284C11.7345 19.3878 12.4472 19.7688 13.2231 19.9231C13.999 20.0775 14.8033 19.9983 15.5342 19.6955C16.2651 19.3928 16.8898 18.8801 17.3294 18.2223C17.7689 17.5645 18.0035 16.7911 18.0035 16C18.0035 14.9391 17.5821 13.9217 16.8319 13.1716C16.0818 12.4214 15.0644 12 14.0035 12ZM14.0035 18C13.6079 18 13.2212 17.8827 12.8923 17.6629C12.5634 17.4432 12.3071 17.1308 12.1557 16.7654C12.0044 16.3999 11.9647 15.9978 12.0419 15.6098C12.1191 15.2219 12.3096 14.8655 12.5893 14.5858C12.869 14.3061 13.2253 14.1156 13.6133 14.0384C14.0013 13.9613 14.4034 14.0009 14.7689 14.1522C15.1343 14.3036 15.4467 14.56 15.6664 14.8889C15.8862 15.2178 16.0035 15.6044 16.0035 16C16.0035 16.5304 15.7928 17.0391 15.4177 17.4142C15.0426 17.7893 14.5339 18 14.0035 18Z" fill="#27C0CD"/>
</svg>
