<svg width="16" height="16" viewBox="0 0 16 16" fill="none" xmlns="http://www.w3.org/2000/svg">
<g clip-path="url(#clip0_2893_71844)">
<path d="M3 11.668H1.33333C0.979711 11.668 0.640573 11.8084 0.390524 12.0585C0.140476 12.3085 0 12.6477 0 13.0013L0 14.668C0 15.0216 0.140476 15.3607 0.390524 15.6108C0.640573 15.8608 0.979711 16.0013 1.33333 16.0013H3C3.35362 16.0013 3.69276 15.8608 3.94281 15.6108C4.19286 15.3607 4.33333 15.0216 4.33333 14.668V13.0013C4.33333 12.6477 4.19286 12.3085 3.94281 12.0585C3.69276 11.8084 3.35362 11.668 3 11.668ZM3 14.668H1.33333V13.0013H3V14.668Z" fill="white"/>
<path d="M14.6641 11.668H12.9974C12.6438 11.668 12.3046 11.8084 12.0546 12.0585C11.8045 12.3085 11.6641 12.6477 11.6641 13.0013V14.668C11.6641 15.0216 11.8045 15.3607 12.0546 15.6108C12.3046 15.8608 12.6438 16.0013 12.9974 16.0013H14.6641C15.0177 16.0013 15.3568 15.8608 15.6069 15.6108C15.8569 15.3607 15.9974 15.0216 15.9974 14.668V13.0013C15.9974 12.6477 15.8569 12.3085 15.6069 12.0585C15.3568 11.8084 15.0177 11.668 14.6641 11.668ZM14.6641 14.668H12.9974V13.0013H14.6641V14.668Z" fill="white"/>
<path d="M3 5.83203H1.33333C0.979711 5.83203 0.640573 5.97251 0.390524 6.22256C0.140476 6.4726 0 6.81174 0 7.16536L0 8.83203C0 9.18565 0.140476 9.52478 0.390524 9.77483C0.640573 10.0249 0.979711 10.1654 1.33333 10.1654H3C3.35362 10.1654 3.69276 10.0249 3.94281 9.77483C4.19286 9.52478 4.33333 9.18565 4.33333 8.83203V7.16536C4.33333 6.81174 4.19286 6.4726 3.94281 6.22256C3.69276 5.97251 3.35362 5.83203 3 5.83203ZM3 8.83203H1.33333V7.16536H3V8.83203Z" fill="white"/>
<path d="M14.6641 5.83203H12.9974C12.6438 5.83203 12.3046 5.97251 12.0546 6.22256C11.8045 6.4726 11.6641 6.81174 11.6641 7.16536V8.83203C11.6641 9.18565 11.8045 9.52478 12.0546 9.77483C12.3046 10.0249 12.6438 10.1654 12.9974 10.1654H14.6641C15.0177 10.1654 15.3568 10.0249 15.6069 9.77483C15.8569 9.52478 15.9974 9.18565 15.9974 8.83203V7.16536C15.9974 6.81174 15.8569 6.4726 15.6069 6.22256C15.3568 5.97251 15.0177 5.83203 14.6641 5.83203ZM14.6641 8.83203H12.9974V7.16536H14.6641V8.83203Z" fill="white"/>
<path d="M3 0H1.33333C0.979711 0 0.640573 0.140476 0.390524 0.390524C0.140476 0.640573 0 0.979711 0 1.33333L0 3C0 3.35362 0.140476 3.69276 0.390524 3.94281C0.640573 4.19286 0.979711 4.33333 1.33333 4.33333H3C3.35362 4.33333 3.69276 4.19286 3.94281 3.94281C4.19286 3.69276 4.33333 3.35362 4.33333 3V1.33333C4.33333 0.979711 4.19286 0.640573 3.94281 0.390524C3.69276 0.140476 3.35362 0 3 0V0ZM3 3H1.33333V1.33333H3V3Z" fill="white"/>
<path d="M8.83593 11.668H7.16927C6.81565 11.668 6.47651 11.8084 6.22646 12.0585C5.97641 12.3085 5.83594 12.6477 5.83594 13.0013V14.668C5.83594 15.0216 5.97641 15.3607 6.22646 15.6108C6.47651 15.8608 6.81565 16.0013 7.16927 16.0013H8.83593C9.18955 16.0013 9.52869 15.8608 9.77874 15.6108C10.0288 15.3607 10.1693 15.0216 10.1693 14.668V13.0013C10.1693 12.6477 10.0288 12.3085 9.77874 12.0585C9.52869 11.8084 9.18955 11.668 8.83593 11.668ZM8.83593 14.668H7.16927V13.0013H8.83593V14.668Z" fill="white"/>
<path d="M8.83593 5.83203H7.16927C6.81565 5.83203 6.47651 5.97251 6.22646 6.22256C5.97641 6.4726 5.83594 6.81174 5.83594 7.16536V8.83203C5.83594 9.18565 5.97641 9.52478 6.22646 9.77483C6.47651 10.0249 6.81565 10.1654 7.16927 10.1654H8.83593C9.18955 10.1654 9.52869 10.0249 9.77874 9.77483C10.0288 9.52478 10.1693 9.18565 10.1693 8.83203V7.16536C10.1693 6.81174 10.0288 6.4726 9.77874 6.22256C9.52869 5.97251 9.18955 5.83203 8.83593 5.83203ZM8.83593 8.83203H7.16927V7.16536H8.83593V8.83203Z" fill="white"/>
<path d="M8.83593 0H7.16927C6.81565 0 6.47651 0.140476 6.22646 0.390524C5.97641 0.640573 5.83594 0.979711 5.83594 1.33333V3C5.83594 3.35362 5.97641 3.69276 6.22646 3.94281C6.47651 4.19286 6.81565 4.33333 7.16927 4.33333H8.83593C9.18955 4.33333 9.52869 4.19286 9.77874 3.94281C10.0288 3.69276 10.1693 3.35362 10.1693 3V1.33333C10.1693 0.979711 10.0288 0.640573 9.77874 0.390524C9.52869 0.140476 9.18955 0 8.83593 0V0ZM8.83593 3H7.16927V1.33333H8.83593V3Z" fill="white"/>
<path d="M14.6641 0H12.9974C12.6438 0 12.3046 0.140476 12.0546 0.390524C11.8045 0.640573 11.6641 0.979711 11.6641 1.33333V3C11.6641 3.35362 11.8045 3.69276 12.0546 3.94281C12.3046 4.19286 12.6438 4.33333 12.9974 4.33333H14.6641C15.0177 4.33333 15.3568 4.19286 15.6069 3.94281C15.8569 3.69276 15.9974 3.35362 15.9974 3V1.33333C15.9974 0.979711 15.8569 0.640573 15.6069 0.390524C15.3568 0.140476 15.0177 0 14.6641 0V0ZM14.6641 3H12.9974V1.33333H14.6641V3Z" fill="white"/>
</g>
<defs>
<clipPath id="clip0_2893_71844">
<rect width="16" height="16" fill="white"/>
</clipPath>
</defs>
</svg>
