<svg width="24" height="24" viewBox="0 0 24 24" fill="none" xmlns="http://www.w3.org/2000/svg">
<path d="M17.4167 6.16667H15.3125C15.2075 5.0287 14.6816 3.97089 13.8377 3.20025C12.9939 2.4296 11.8928 2.0016 10.75 2H6.58333C5.36816 2.00132 4.20314 2.48463 3.34389 3.34389C2.48463 4.20314 2.00132 5.36816 2 6.58333L2 17.4167C2.00132 18.6318 2.48463 19.7969 3.34389 20.6561C4.20314 21.5154 5.36816 21.9987 6.58333 22H17.4167C18.6318 21.9987 19.7969 21.5154 20.6561 20.6561C21.5154 19.7969 21.9987 18.6318 22 17.4167V10.75C21.9987 9.53483 21.5154 8.36981 20.6561 7.51056C19.7969 6.6513 18.6318 6.16799 17.4167 6.16667ZM4.5 17.4167V6.58333C4.5 6.0308 4.71949 5.50089 5.11019 5.11019C5.50089 4.71949 6.0308 4.5 6.58333 4.5H10.75C11.3025 4.5 11.8324 4.71949 12.2231 5.11019C12.6138 5.50089 12.8333 6.0308 12.8333 6.58333V19.5H6.58333C6.0308 19.5 5.50089 19.2805 5.11019 18.8898C4.71949 18.4991 4.5 17.9692 4.5 17.4167ZM19.5 17.4167C19.5 17.9692 19.2805 18.4991 18.8898 18.8898C18.4991 19.2805 17.9692 19.5 17.4167 19.5H15.3333V8.66667H17.4167C17.9692 8.66667 18.4991 8.88616 18.8898 9.27686C19.2805 9.66756 19.5 10.1975 19.5 10.75V17.4167ZM18.6667 11.5833C18.6667 11.8306 18.5934 12.0722 18.456 12.2778C18.3187 12.4834 18.1234 12.6436 17.895 12.7382C17.6666 12.8328 17.4153 12.8575 17.1728 12.8093C16.9303 12.7611 16.7076 12.642 16.5328 12.4672C16.358 12.2924 16.2389 12.0697 16.1907 11.8272C16.1425 11.5847 16.1672 11.3334 16.2618 11.105C16.3564 10.8766 16.5166 10.6813 16.7222 10.544C16.9278 10.4066 17.1694 10.3333 17.4167 10.3333C17.7482 10.3333 18.0661 10.465 18.3005 10.6994C18.535 10.9339 18.6667 11.2518 18.6667 11.5833ZM18.6667 15.75C18.6667 15.9972 18.5934 16.2389 18.456 16.4445C18.3187 16.65 18.1234 16.8102 17.895 16.9048C17.6666 16.9995 17.4153 17.0242 17.1728 16.976C16.9303 16.9277 16.7076 16.8087 16.5328 16.6339C16.358 16.4591 16.2389 16.2363 16.1907 15.9939C16.1425 15.7514 16.1672 15.5001 16.2618 15.2716C16.3564 15.0432 16.5166 14.848 16.7222 14.7107C16.9278 14.5733 17.1694 14.5 17.4167 14.5C17.7482 14.5 18.0661 14.6317 18.3005 14.8661C18.535 15.1005 18.6667 15.4185 18.6667 15.75ZM7.83333 7.41667C7.83333 7.66389 7.76002 7.90557 7.62267 8.11113C7.48532 8.31669 7.2901 8.47691 7.06169 8.57152C6.83328 8.66613 6.58195 8.69088 6.33947 8.64265C6.09699 8.59442 5.87427 8.47537 5.69945 8.30055C5.52463 8.12573 5.40558 7.90301 5.35735 7.66053C5.30912 7.41805 5.33387 7.16672 5.42848 6.93831C5.52309 6.7099 5.68331 6.51468 5.88887 6.37733C6.09443 6.23998 6.33611 6.16667 6.58333 6.16667C6.91485 6.16667 7.2328 6.29836 7.46722 6.53278C7.70164 6.7672 7.83333 7.08515 7.83333 7.41667ZM7.83333 11.5833C7.83333 11.8306 7.76002 12.0722 7.62267 12.2778C7.48532 12.4834 7.2901 12.6436 7.06169 12.7382C6.83328 12.8328 6.58195 12.8575 6.33947 12.8093C6.09699 12.7611 5.87427 12.642 5.69945 12.4672C5.52463 12.2924 5.40558 12.0697 5.35735 11.8272C5.30912 11.5847 5.33387 11.3334 5.42848 11.105C5.52309 10.8766 5.68331 10.6813 5.88887 10.544C6.09443 10.4066 6.33611 10.3333 6.58333 10.3333C6.91485 10.3333 7.2328 10.465 7.46722 10.6994C7.70164 10.9339 7.83333 11.2518 7.83333 11.5833ZM12 7.41667C12 7.66389 11.9267 7.90557 11.7893 8.11113C11.652 8.31669 11.4568 8.47691 11.2284 8.57152C10.9999 8.66613 10.7486 8.69088 10.5061 8.64265C10.2637 8.59442 10.0409 8.47537 9.86612 8.30055C9.6913 8.12573 9.57225 7.90301 9.52402 7.66053C9.47579 7.41805 9.50054 7.16672 9.59515 6.93831C9.68976 6.7099 9.84998 6.51468 10.0555 6.37733C10.2611 6.23998 10.5028 6.16667 10.75 6.16667C11.0815 6.16667 11.3995 6.29836 11.6339 6.53278C11.8683 6.7672 12 7.08515 12 7.41667ZM12 11.5833C12 11.8306 11.9267 12.0722 11.7893 12.2778C11.652 12.4834 11.4568 12.6436 11.2284 12.7382C10.9999 12.8328 10.7486 12.8575 10.5061 12.8093C10.2637 12.7611 10.0409 12.642 9.86612 12.4672C9.6913 12.2924 9.57225 12.0697 9.52402 11.8272C9.47579 11.5847 9.50054 11.3334 9.59515 11.105C9.68976 10.8766 9.84998 10.6813 10.0555 10.544C10.2611 10.4066 10.5028 10.3333 10.75 10.3333C11.0815 10.3333 11.3995 10.465 11.6339 10.6994C11.8683 10.9339 12 11.2518 12 11.5833ZM7.83333 15.75C7.83333 15.9972 7.76002 16.2389 7.62267 16.4445C7.48532 16.65 7.2901 16.8102 7.06169 16.9048C6.83328 16.9995 6.58195 17.0242 6.33947 16.976C6.09699 16.9277 5.87427 16.8087 5.69945 16.6339C5.52463 16.4591 5.40558 16.2363 5.35735 15.9939C5.30912 15.7514 5.33387 15.5001 5.42848 15.2716C5.52309 15.0432 5.68331 14.848 5.88887 14.7107C6.09443 14.5733 6.33611 14.5 6.58333 14.5C6.91485 14.5 7.2328 14.6317 7.46722 14.8661C7.70164 15.1005 7.83333 15.4185 7.83333 15.75ZM12 15.75C12 15.9972 11.9267 16.2389 11.7893 16.4445C11.652 16.65 11.4568 16.8102 11.2284 16.9048C10.9999 16.9995 10.7486 17.0242 10.5061 16.976C10.2637 16.9277 10.0409 16.8087 9.86612 16.6339C9.6913 16.4591 9.57225 16.2363 9.52402 15.9939C9.47579 15.7514 9.50054 15.5001 9.59515 15.2716C9.68976 15.0432 9.84998 14.848 10.0555 14.7107C10.2611 14.5733 10.5028 14.5 10.75 14.5C11.0815 14.5 11.3995 14.6317 11.6339 14.8661C11.8683 15.1005 12 15.4185 12 15.75Z" fill="black"/>
</svg>
