<svg width="16" height="16" viewBox="0 0 16 16" fill="none" xmlns="http://www.w3.org/2000/svg">
<path d="M13.9987 1.3335H1.9987C1.82189 1.3335 1.65232 1.40373 1.52729 1.52876C1.40227 1.65378 1.33203 1.82335 1.33203 2.00016V14.0002C1.33203 14.177 1.40227 14.3465 1.52729 14.4716C1.65232 14.5966 1.82189 14.6668 1.9987 14.6668H13.9987C14.1755 14.6668 14.3451 14.5966 14.4701 14.4716C14.5951 14.3465 14.6654 14.177 14.6654 14.0002V2.00016C14.6654 1.82335 14.5951 1.65378 14.4701 1.52876C14.3451 1.40373 14.1755 1.3335 13.9987 1.3335ZM13.332 13.3335H2.66536V6.66683H13.332V13.3335ZM13.332 5.3335H2.66536V2.66683H13.332V5.3335Z" fill="white"/>
</svg>
