<svg width="449" height="250" viewBox="0 0 449 250" fill="none" xmlns="http://www.w3.org/2000/svg">
<path d="M436.929 96.8045L432.176 108.965L435.546 110.282L440.299 98.1217L436.929 96.8045Z" fill="#2BBECB"/>
<path d="M140.015 66.9846L137.32 69.3984L146.031 79.1243L148.726 76.7105L140.015 66.9846Z" fill="#EB008B"/>
<path d="M179.952 110.516L169.502 118.344L171.671 121.24L182.121 113.412L179.952 110.516Z" fill="#2BBECB"/>
<path d="M300.813 20.6932L298.334 23.3281L307.843 32.2759L310.322 29.641L300.813 20.6932Z" fill="#2BBECB"/>
<path d="M231.673 23.6023L225.166 34.9219L228.303 36.7251L234.81 25.4056L231.673 23.6023Z" fill="#EB008B"/>
<path d="M326.169 120.405L323.109 122.336L330.077 133.378L333.137 131.447L326.169 120.405Z" fill="#EB008B"/>
<path d="M184.289 174.172L181.053 175.789L186.888 187.469L190.124 185.852L184.289 174.172Z" fill="#EB008B"/>
<path d="M136.937 143.439L133.188 155.945L136.653 156.984L140.402 144.478L136.937 143.439Z" fill="#2BBECB"/>
<path d="M363.428 182.412L352.584 189.684L354.599 192.689L365.443 185.417L363.428 182.412Z" fill="#2BBECB"/>
<path d="M365.05 0.00108359L358.543 11.3203L361.68 13.1235L368.187 1.80427L365.05 0.00108359Z" fill="#EB008B"/>
<path d="M3.36981 92.6047L0 93.9219L4.75311 106.082L8.12292 104.765L3.36981 92.6047Z" fill="#EB008B"/>
<path d="M353.177 77.5804L351.008 80.4766L361.458 88.304L363.627 85.4078L353.177 77.5804Z" fill="#EB008B"/>
<path d="M59.6435 24.2319L50.1348 33.1797L52.6142 35.8146L62.123 26.8669L59.6435 24.2319Z" fill="#2BBECB"/>
<path d="M164.965 13.5796L161.828 15.3828L168.336 26.7023L171.472 24.8991L164.965 13.5796Z" fill="#2BBECB"/>
<path d="M37.0244 155.701L30.0566 166.742L33.1164 168.673L40.0842 157.631L37.0244 155.701Z" fill="#EB008B"/>
<path d="M6.16371 185.947L4.14844 188.953L14.9982 196.225L17.0135 193.219L6.16371 185.947Z" fill="#2BBECB"/>
<path d="M424.754 41.7593L421.617 43.5625L428.124 54.8817L431.261 53.0786L424.754 41.7593Z" fill="#2BBECB"/>
<path d="M288.816 72.6023L280.105 82.3281L282.801 84.7419L291.511 75.0161L288.816 72.6023Z" fill="#2BBECB"/>
<path d="M212.347 182.23L206.512 193.91L209.748 195.527L215.583 183.847L212.347 182.23Z" fill="#EB008B"/>
<path d="M259.702 151.496L256.236 152.535L259.986 165.042L263.451 164.003L259.702 151.496Z" fill="#2BBECB"/>
<path d="M260.867 158.635L248.535 149.261C248.264 149.055 247.953 148.908 247.622 148.829C247.291 148.75 246.947 148.74 246.613 148.801C246.278 148.862 245.959 148.992 245.678 149.183C245.396 149.374 245.157 149.621 244.976 149.91C244.658 150.452 244.553 151.093 244.682 151.709C244.81 152.324 245.162 152.87 245.67 153.241L248.314 155.25L237.098 152.747C235.856 152.446 234.139 152.873 233.895 154.288C233.765 154.827 233.822 155.394 234.055 155.896C234.289 156.398 234.686 156.807 235.181 157.054C235.176 157.065 235.171 157.077 235.168 157.089C235.167 157.098 235.167 157.108 235.168 157.117L233.252 156.654C232.897 156.569 232.528 156.563 232.171 156.639C231.813 156.714 231.478 156.868 231.188 157.09C230.897 157.312 230.661 157.595 230.494 157.92C230.327 158.245 230.235 158.603 230.225 158.968C230.219 159.542 230.412 160.102 230.769 160.552C231.127 161.002 231.628 161.316 232.189 161.44L233.003 161.637C233.009 161.663 233.019 161.688 233.032 161.711C232.451 161.706 231.886 161.908 231.44 162.281C230.993 162.654 230.694 163.173 230.596 163.747C230.506 164.377 230.657 165.018 231.02 165.541C231.382 166.065 231.928 166.433 232.549 166.571L234.575 167.061C234.541 167.074 234.512 167.095 234.488 167.122C234.464 167.149 234.448 167.181 234.439 167.216C234.431 167.258 234.435 167.302 234.451 167.342C233.932 167.481 233.473 167.787 233.144 168.212C232.816 168.638 232.636 169.16 232.633 169.697C232.641 170.262 232.84 170.807 233.197 171.245C233.554 171.683 234.048 171.987 234.599 172.109L251.683 176.237C254.073 176.814 256.581 176.664 258.885 175.807C261.19 174.949 263.186 173.424 264.618 171.425C265.852 169.701 266.366 167.564 266.05 165.468C265.734 163.372 264.612 161.481 262.924 160.199L260.867 158.635Z" fill="#FFD3C2"/>
<g opacity="0.2">
<path d="M246.27 159.588C246.256 159.645 246.22 159.695 246.169 159.726C246.119 159.757 246.059 159.767 246.001 159.754L235.337 157.357C235.308 157.351 235.28 157.338 235.256 157.321C235.232 157.304 235.211 157.282 235.195 157.257C235.179 157.232 235.169 157.204 235.163 157.175C235.158 157.146 235.159 157.116 235.166 157.087C235.172 157.058 235.184 157.03 235.202 157.006C235.219 156.982 235.24 156.961 235.266 156.945C235.291 156.929 235.319 156.919 235.348 156.913C235.377 156.908 235.407 156.909 235.436 156.916L246.1 159.313C246.129 159.319 246.157 159.331 246.181 159.349C246.205 159.366 246.226 159.388 246.242 159.413C246.258 159.438 246.269 159.466 246.273 159.496C246.278 159.525 246.278 159.555 246.271 159.584L246.27 159.588Z" fill="#444444"/>
</g>
<g opacity="0.2">
<path d="M245.345 164.321C245.331 164.378 245.295 164.428 245.244 164.459C245.193 164.491 245.132 164.5 245.074 164.487L233.173 161.814C233.144 161.807 233.116 161.795 233.092 161.778C233.068 161.761 233.047 161.739 233.031 161.714C233.015 161.688 233.004 161.66 232.999 161.631C232.994 161.602 232.995 161.571 233.002 161.542C233.017 161.485 233.053 161.435 233.104 161.403C233.154 161.371 233.215 161.36 233.273 161.371L245.174 164.044C245.203 164.051 245.231 164.063 245.255 164.08C245.28 164.097 245.3 164.119 245.316 164.144C245.332 164.17 245.343 164.198 245.348 164.227C245.353 164.257 245.352 164.287 245.345 164.316V164.321Z" fill="#444444"/>
</g>
<g opacity="0.2">
<path d="M244.371 169.452C244.357 169.509 244.32 169.559 244.27 169.59C244.22 169.621 244.159 169.631 244.102 169.618L234.608 167.486C234.55 167.473 234.499 167.437 234.467 167.386C234.435 167.336 234.424 167.274 234.437 167.216C234.45 167.157 234.486 167.106 234.537 167.074C234.587 167.042 234.649 167.031 234.707 167.045L244.201 169.176C244.23 169.183 244.257 169.195 244.282 169.212C244.306 169.229 244.327 169.251 244.343 169.276C244.359 169.302 244.37 169.33 244.375 169.359C244.38 169.389 244.379 169.419 244.372 169.448L244.371 169.452Z" fill="#444444"/>
</g>
<path d="M202.321 94.1621L209.206 80.2864C209.358 79.9815 209.571 79.7114 209.832 79.4934C210.094 79.2754 210.397 79.1142 210.725 79.0201C211.052 78.926 211.395 78.901 211.732 78.9468C212.069 78.9926 212.393 79.1081 212.683 79.286C213.209 79.6308 213.588 80.1586 213.747 80.767C213.906 81.3754 213.833 82.0211 213.543 82.5789L212.066 85.5543L221.002 78.3303C221.982 77.5095 223.709 77.1291 224.557 78.2887C224.913 78.7136 225.114 79.2465 225.127 79.8003C225.141 80.3542 224.967 80.8963 224.633 81.3383C224.643 81.3456 224.652 81.354 224.66 81.3632C224.665 81.3711 224.67 81.3795 224.673 81.3881L226.184 80.1217C226.464 79.8875 226.793 79.7187 227.146 79.6275C227.5 79.5364 227.869 79.5253 228.227 79.595C228.586 79.6647 228.924 79.8135 229.217 80.0305C229.511 80.2475 229.752 80.5273 229.924 80.8494C230.184 81.3621 230.26 81.9486 230.14 82.5108C230.019 83.0729 229.71 83.5767 229.262 83.9379L228.619 84.4765C228.626 84.5023 228.629 84.5291 228.626 84.5557C229.145 84.2926 229.74 84.2227 230.306 84.3583C230.871 84.4939 231.37 84.8263 231.713 85.296C232.073 85.8212 232.222 86.4628 232.13 87.0928C232.038 87.7228 231.711 88.2949 231.216 88.6948L229.619 90.0321C229.655 90.029 229.691 90.0345 229.724 90.0482C229.758 90.0619 229.787 90.0833 229.811 90.1108C229.836 90.145 229.852 90.186 229.856 90.2288C230.383 90.1227 230.93 90.1928 231.414 90.4282C231.897 90.6636 232.289 91.0514 232.531 91.5318C232.774 92.0414 232.838 92.6183 232.713 93.169C232.588 93.7196 232.28 94.2119 231.84 94.566L218.367 105.852C216.483 107.431 214.169 108.411 211.724 108.666C209.279 108.922 206.813 108.441 204.642 107.286C202.771 106.29 201.362 104.604 200.714 102.585C200.066 100.567 200.231 98.3758 201.173 96.4768L202.321 94.1621Z" fill="#FFD3C2"/>
<g opacity="0.2">
<path d="M215.821 88.5323C215.859 88.5779 215.914 88.6066 215.973 88.6121C216.033 88.6176 216.092 88.5995 216.138 88.5617L224.628 81.6792C224.675 81.6415 224.705 81.5867 224.711 81.5271C224.717 81.4674 224.699 81.4077 224.662 81.3611C224.624 81.3145 224.569 81.2848 224.509 81.2786C224.45 81.2723 224.39 81.2901 224.343 81.3278L215.853 88.2103C215.806 88.248 215.777 88.3024 215.771 88.3617C215.765 88.421 215.782 88.4804 215.819 88.5269L215.821 88.5323Z" fill="#444444"/>
</g>
<g opacity="0.2">
<path d="M218.754 92.3611C218.793 92.4066 218.848 92.4352 218.907 92.4406C218.966 92.446 219.025 92.4278 219.071 92.39L228.547 84.7093C228.593 84.6715 228.622 84.6171 228.628 84.5578C228.635 84.4985 228.617 84.4392 228.58 84.3927C228.541 84.3482 228.487 84.32 228.428 84.3138C228.369 84.3076 228.31 84.3238 228.263 84.3593L218.784 92.0386C218.738 92.0763 218.709 92.1307 218.702 92.19C218.696 92.2493 218.714 92.3087 218.751 92.3552L218.754 92.3611Z" fill="#444444"/>
</g>
<g opacity="0.2">
<path d="M221.905 96.5227C221.943 96.5683 221.998 96.5969 222.057 96.6024C222.116 96.6079 222.175 96.5898 222.221 96.5521L229.78 90.4253C229.827 90.3876 229.856 90.3328 229.863 90.2731C229.869 90.2135 229.851 90.1538 229.813 90.1072C229.776 90.0606 229.721 90.0309 229.661 90.0247C229.601 90.0184 229.542 90.0362 229.495 90.0739L221.935 96.2007C221.889 96.2384 221.859 96.2928 221.853 96.3521C221.847 96.4114 221.864 96.4708 221.901 96.5173L221.905 96.5227Z" fill="#444444"/>
</g>
<path d="M47.804 82.2618C47.804 82.2618 46.833 96.8313 43.5554 102.116C34.1186 117.334 31.3847 134.453 40.8346 143.397C50.2846 152.341 110.56 152.465 115.126 131.894C118.97 114.574 110.721 112.712 108.713 98.4264C107.805 91.9618 105.306 78.4062 105.306 78.4062" fill="black"/>
<path d="M99.5265 128.876C99.4225 128.863 98.2679 148.021 76.0118 146.351C60.6042 145.196 55.1106 128.848 54.7578 128.848C56.419 128.495 59.2162 127.982 59.9538 127.588C62.3802 126.285 65.3809 124.928 66.1643 120.216C66.6165 117.503 65.8499 103.608 66.0856 100.859L89.736 106.14C89.4054 111.943 87.0926 125.395 95.1993 127.776C96.548 128.17 98.0011 128.533 99.5265 128.876Z" fill="#FFD3C2"/>
<path opacity="0.5" d="M90.0678 122.279C89.6973 121.085 89.4588 119.854 89.3564 118.608C89.0965 115.765 89.1484 112.902 89.511 110.071C84.7044 109.422 80.1761 107.438 76.4407 104.344C76.0016 105.966 73.5861 113.052 74.255 114.594C75.5181 117.508 81.4577 122.279 90.0678 122.279Z" fill="#444444"/>
<path d="M87.0091 116.31C77.6844 117.214 65.62 113.482 63.1208 101.064L60.8658 89.8602C58.3666 77.4429 62.8625 66.0641 74.5539 63.711C86.2457 61.3592 97.0104 69.665 99.5096 82.0827L100.508 87.0431C101.467 91.8076 103.646 114.7 87.0091 116.31Z" fill="#FFD3C2"/>
<path opacity="0.1" d="M81.0811 100.041C82.6156 99.8581 83.7507 98.7973 83.6164 97.6718C83.4821 96.5463 82.1293 95.7823 80.5948 95.9654C79.0603 96.1485 77.9253 97.2093 78.0596 98.3348C78.1938 99.4603 79.5466 100.224 81.0811 100.041Z" fill="#444444"/>
<path opacity="0.1" d="M97.2957 95.5393C97.4314 96.6632 98.7859 97.4261 100.32 97.2452C100.586 97.2134 100.847 97.1542 101.1 97.0684C101.171 95.7284 101.175 94.4394 101.136 93.2459C100.71 93.1393 100.268 93.1133 99.832 93.1695C98.2975 93.3504 97.1628 94.4109 97.2957 95.5393Z" fill="#444444"/>
<path opacity="0.5" d="M90.5159 99.0135C90.5235 99.0128 90.531 99.0116 90.5385 99.0099C91.0124 98.9112 91.4804 98.7863 91.9405 98.6359C92.627 98.4061 93.5234 98.029 93.4004 97.408C93.2584 96.7007 89.7823 89.4568 89.3879 88.6342C89.3718 88.597 89.3483 88.5635 89.3189 88.5357C89.2895 88.5078 89.2548 88.4862 89.2169 88.4721C89.1789 88.4579 89.1385 88.4516 89.098 88.4534C89.0576 88.4553 89.0179 88.4653 88.9814 88.4828C88.9449 88.5003 88.9123 88.525 88.8856 88.5554C88.8588 88.5858 88.8385 88.6213 88.8258 88.6598C88.8131 88.6982 88.8082 88.7388 88.8116 88.7792C88.8149 88.8196 88.8264 88.8588 88.8452 88.8947C90.3273 91.9795 92.7143 97.0516 92.8102 97.5278C92.7351 97.7499 91.5963 98.1836 90.4209 98.4206C90.3819 98.4269 90.3445 98.4408 90.3109 98.4616C90.2773 98.4823 90.2481 98.5094 90.225 98.5415C90.2019 98.5735 90.1853 98.6098 90.1762 98.6482C90.1671 98.6866 90.1656 98.7265 90.1719 98.7655C90.1782 98.8044 90.1921 98.8418 90.2129 98.8754C90.2336 98.909 90.2608 98.9382 90.2928 98.9614C90.3248 98.9845 90.3611 99.0011 90.3995 99.0102C90.4379 99.0193 90.4778 99.0207 90.5168 99.0144L90.5159 99.0135Z" fill="#444444"/>
<path d="M51.5374 93.8849L62.0189 91.8375C69.9366 88.5265 72.183 74.7276 72.183 74.7276C72.183 74.7276 81.9545 84.0338 105.308 78.4063C105.308 78.4063 100.235 45.8047 65.7514 55.7029C54.6326 58.8936 46.7565 70.2272 47.9279 85.2386C48.7487 95.7555 51.5374 93.8849 51.5374 93.8849Z" fill="black"/>
<path d="M64.6082 104.704C61.0552 105.419 57.41 102.197 56.6936 98.6434C55.9772 95.0895 58.4647 92.5514 62.0176 91.8359L64.3278 93.8485L67.6623 104.088L64.6082 104.704Z" fill="#FFD3C2"/>
<path d="M91.9055 82.8569C92.7944 82.2283 93.834 81.8463 94.9184 81.7498C95.4633 81.6975 96.013 81.728 96.5488 81.8402C97.0891 81.9504 97.6135 82.1278 98.1096 82.3685L98.1249 82.3757C98.1799 82.4 98.2422 82.4018 98.2985 82.3807C98.3548 82.3597 98.4006 82.3174 98.4262 82.2631C98.4518 82.2087 98.455 82.1464 98.4353 82.0897C98.4156 82.0329 98.3745 81.9861 98.3208 81.9592C97.795 81.6816 97.2365 81.4714 96.6583 81.3333C96.076 81.1917 95.4758 81.1385 94.8777 81.1754C93.6663 81.2423 92.495 81.6328 91.4858 82.3061C91.4481 82.3316 91.4159 82.3642 91.3909 82.4022C91.3659 82.4401 91.3487 82.4827 91.3401 82.5273C91.3316 82.5719 91.332 82.6178 91.3412 82.6623C91.3504 82.7068 91.3683 82.7491 91.3939 82.7866C91.4195 82.8242 91.4522 82.8564 91.4903 82.8812C91.5283 82.9061 91.5708 82.9233 91.6155 82.9317C91.6602 82.9401 91.7061 82.9397 91.7505 82.9303C91.795 82.921 91.8372 82.9029 91.8747 82.8773L91.8828 82.8719L91.9055 82.8569Z" fill="#444444"/>
<path d="M82.3307 84.1811C81.1404 83.9443 79.9084 84.0313 78.7632 84.433C78.1972 84.628 77.6636 84.9068 77.1803 85.2602C76.6989 85.6091 76.2634 86.0172 75.8841 86.475C75.8458 86.5205 75.8266 86.5791 75.8306 86.6384C75.8345 86.6978 75.8613 86.7533 75.9053 86.7934C75.9492 86.8335 76.007 86.8549 76.0665 86.8533C76.126 86.8517 76.1825 86.8272 76.2242 86.7848L76.2365 86.7721C76.6024 86.3598 77.0188 85.9952 77.4756 85.6867C77.9278 85.3783 78.4239 85.14 78.9473 84.9798C79.9861 84.6535 81.0928 84.6082 82.1547 84.8487L82.181 84.8555C82.2701 84.877 82.3641 84.8623 82.4424 84.8146C82.5207 84.7668 82.5768 84.6899 82.5984 84.6008C82.62 84.5117 82.6053 84.4177 82.5575 84.3394C82.5098 84.2611 82.4329 84.205 82.3438 84.1834L82.3307 84.1811Z" fill="#444444"/>
<path d="M62.0264 91.6643C69.0722 89.0412 71.4103 84.1758 72.1303 80.555C72.5963 78.1402 72.5528 75.6548 72.0024 73.2578L71.7844 73.318C72.3265 75.6836 72.3684 78.1365 71.9074 80.5193C71.1964 84.0808 68.8917 88.8685 61.9473 91.4531L62.0264 91.6643Z" fill="#444444"/>
<path d="M117.651 131.159L184.553 153.521L164.911 162.252L198.27 93.8164L225.533 106.522L194.582 176.08C193.017 179.597 190.238 182.434 186.753 184.072C183.269 185.709 179.312 186.039 175.605 185L174.939 184.811L107.025 165.744L117.651 131.159Z" fill="#2BBECB"/>
<path d="M75.5947 141.563C60.1763 140.837 59.5273 127.75 59.5273 127.75C59.5273 127.75 51.8877 128.244 46.8093 128.931C38.495 130.056 33.01 132.875 28.6447 137.24C24.5844 141.301 22.1123 145.694 24.7282 173.742C26.6222 194.051 25.2894 238.722 25.2894 238.722H119.246C119.246 238.722 125.807 174.185 126.585 165.044C128.07 147.592 132.263 143.739 123.766 134.749C117.604 128.229 101.696 127.75 95.2929 127.751C95.1884 127.751 96.5922 142.553 75.5947 141.563Z" fill="#2BBECB"/>
<path d="M93.6393 101.462C90.6097 103.002 87.1531 103.489 83.8158 102.846C83.7002 102.824 83.5809 102.836 83.4717 102.88C83.3626 102.923 83.2681 102.997 83.1993 103.092C83.1304 103.188 83.0902 103.301 83.0831 103.418C83.0761 103.535 83.1026 103.652 83.1595 103.755C84.1545 105.508 86.5144 108.504 90.563 107.283C93.1771 106.494 94.1653 103.805 94.5316 102.141C94.5567 102.026 94.5483 101.906 94.5076 101.795C94.4669 101.685 94.3955 101.588 94.3018 101.517C94.2081 101.446 94.096 101.403 93.9786 101.393C93.8613 101.383 93.7436 101.407 93.6393 101.462Z" fill="white"/>
<path d="M93.8292 87.9865C94.6377 87.9865 95.2932 87.3311 95.2932 86.5226C95.2932 85.714 94.6377 85.0586 93.8292 85.0586C93.0207 85.0586 92.3652 85.714 92.3652 86.5226C92.3652 87.3311 93.0207 87.9865 93.8292 87.9865Z" fill="#444444"/>
<path d="M79.7628 90.4514C80.5713 90.4514 81.2268 89.7959 81.2268 88.9874C81.2268 88.1789 80.5713 87.5234 79.7628 87.5234C78.9543 87.5234 78.2988 88.1789 78.2988 88.9874C78.2988 89.7959 78.9543 90.4514 79.7628 90.4514Z" fill="#444444"/>
<path d="M126.377 171.405C126.367 171.405 126.358 171.405 126.348 171.405C126.289 171.397 126.235 171.366 126.198 171.319C126.161 171.272 126.145 171.212 126.152 171.153L127.607 159.359C127.61 159.329 127.619 159.3 127.634 159.274C127.648 159.248 127.668 159.225 127.691 159.207C127.715 159.189 127.742 159.175 127.771 159.168C127.799 159.16 127.829 159.158 127.859 159.162C127.888 159.166 127.917 159.175 127.943 159.19C127.969 159.205 127.991 159.224 128.01 159.248C128.028 159.271 128.041 159.298 128.049 159.327C128.057 159.355 128.059 159.385 128.056 159.415L126.601 171.208C126.593 171.263 126.567 171.312 126.526 171.349C126.484 171.385 126.432 171.405 126.377 171.405Z" fill="#444444"/>
<path d="M364.204 80.3963C364.204 80.3963 358.6 74.1022 359.25 62.3149C359.753 53.1883 366.793 60.5692 366.793 60.5692C366.793 60.5692 367.219 54.001 371.753 55.5649C376.286 57.1289 377.559 64.3713 377.559 64.3713" fill="#444444"/>
<path d="M395.703 61.1172C395.703 61.1172 418.341 68.2082 403.731 97.8859L401.657 97.6145L397.446 97.065" fill="#444444"/>
<path d="M363.5 128.828C363.604 128.814 364.755 147.909 386.937 146.244C402.293 145.094 407.769 128.801 408.121 128.801C406.465 128.449 403.677 127.937 402.942 127.545C400.523 126.245 397.532 124.894 396.752 120.198C396.303 117.491 397.065 103.645 396.831 100.906L373.258 106.167C373.588 111.951 375.893 125.359 367.813 127.732C366.469 128.124 365.019 128.485 363.5 128.828Z" fill="#FFD3C2"/>
<path opacity="0.52" d="M372.926 122.251C373.295 121.06 373.533 119.834 373.634 118.592C373.894 115.758 373.842 112.905 373.481 110.083C378.272 109.436 382.786 107.459 386.509 104.375C386.946 105.991 389.354 113.055 388.687 114.591C387.428 117.495 381.507 122.251 372.926 122.251Z" fill="#444444"/>
<path d="M375.754 115.787C385.037 116.787 397.1 113.2 399.727 100.852L402.095 89.7094C404.718 77.3628 400.363 65.9717 388.735 63.5001C377.109 61.0285 366.29 69.1918 363.665 81.5403L362.617 86.4731C362.286 88.173 362.072 89.8935 361.975 91.6225C361.686 96.1903 361.265 103.139 363.373 108.317C365.362 113.205 369.823 115.148 375.754 115.787Z" fill="#FFD3C2"/>
<path d="M368.38 87.3381C369.189 87.3381 369.844 86.6826 369.844 85.8741C369.844 85.0656 369.189 84.4102 368.38 84.4102C367.571 84.4102 366.916 85.0656 366.916 85.8741C366.916 86.6826 367.571 87.3381 368.38 87.3381Z" fill="#444444"/>
<path d="M382.284 88.8029C383.093 88.8029 383.748 88.1475 383.748 87.339C383.748 86.5304 383.093 85.875 382.284 85.875C381.476 85.875 380.82 86.5304 380.82 87.339C380.82 88.1475 381.476 88.8029 382.284 88.8029Z" fill="#444444"/>
<path d="M398.204 104.459C401.737 105.211 405.405 102.039 406.156 98.5058C406.908 94.9723 404.457 92.4153 400.924 91.6641L398.6 93.6445L395.166 103.814L398.204 104.459Z" fill="#FFD3C2"/>
<path d="M395.819 98.0679C395.819 98.0679 398.114 80.3117 393.018 78.1712C389.626 76.7457 380.045 80.0535 372.4 76.9542C369.056 75.5974 365.584 75.8009 364.921 77.3761C364.659 77.9998 364.356 68.2246 371.213 62.2186C376.673 57.4364 391.175 58.6697 397.259 61.8075C414.106 70.495 401.505 92.5842 401.505 92.5842L399.504 98.4636L395.819 98.0679Z" fill="#444444"/>
<g opacity="0.52">
<path d="M372.189 99.3373L372.166 99.3337C371.027 99.0945 369.143 98.5649 369.32 97.7142C369.469 97.0082 373.001 89.791 373.404 88.9706C373.439 88.9 373.5 88.8461 373.574 88.8206C373.649 88.7952 373.73 88.8003 373.801 88.8349C373.871 88.8696 373.925 88.9308 373.951 89.0052C373.976 89.0796 373.971 89.161 373.937 89.2316C372.369 92.4272 370.002 97.356 369.901 97.8358C369.971 98.062 371.108 98.5056 372.287 98.753C372.361 98.7696 372.426 98.814 372.468 98.8769C372.511 98.9399 372.527 99.0168 372.515 99.0917C372.502 99.1665 372.462 99.2337 372.401 99.2794C372.34 99.3251 372.264 99.3458 372.189 99.3373Z" fill="#444444"/>
</g>
<path d="M371.927 81.2986C370.807 80.7337 369.556 80.4811 368.305 80.5673C367.691 80.606 367.085 80.7366 366.51 80.9549C365.94 81.1681 365.399 81.4526 364.901 81.8015C364.817 81.8545 364.758 81.9383 364.736 82.0346C364.714 82.1309 364.731 82.232 364.782 82.3162C364.834 82.4003 364.917 82.4607 365.013 82.4843C365.109 82.5079 365.21 82.4929 365.295 82.4423L365.321 82.4274C365.779 82.1439 366.269 81.919 366.783 81.7581C367.289 81.5964 367.816 81.5124 368.347 81.5089C369.397 81.4935 370.432 81.7557 371.347 82.2691L371.382 82.2895C371.446 82.3277 371.517 82.3528 371.591 82.3634C371.665 82.3741 371.74 82.37 371.812 82.3514C371.884 82.3328 371.952 82.3001 372.012 82.2552C372.071 82.2103 372.122 82.1541 372.159 82.0897C372.197 82.0253 372.222 81.9541 372.232 81.8802C372.242 81.8063 372.237 81.7311 372.218 81.6589C372.199 81.5868 372.166 81.5191 372.121 81.4598C372.076 81.4006 372.019 81.3508 371.954 81.3135L371.927 81.2986Z" fill="#444444"/>
<path d="M380.297 83.5621C381.314 83.3013 382.382 83.3136 383.392 83.5979C383.904 83.738 384.392 83.9547 384.84 84.2405C385.294 84.5282 385.711 84.8717 386.08 85.2631L386.1 85.2834C386.17 85.351 386.263 85.3891 386.36 85.3897C386.457 85.3903 386.551 85.3534 386.621 85.2866C386.692 85.2199 386.734 85.1285 386.739 85.0315C386.743 84.9345 386.71 84.8394 386.647 84.7661C386.255 84.3009 385.806 83.8872 385.31 83.5346C384.809 83.1759 384.258 82.8942 383.674 82.6988C382.487 82.2936 381.213 82.2154 379.986 82.4727C379.914 82.4885 379.845 82.5185 379.784 82.5609C379.723 82.6033 379.671 82.6573 379.631 82.7198C379.55 82.8461 379.522 82.9994 379.554 83.1461C379.586 83.2927 379.675 83.4206 379.801 83.5017C379.927 83.5828 380.081 83.6104 380.227 83.5784L380.256 83.5712L380.297 83.5621Z" fill="#444444"/>
<path d="M370.398 102.076C373.695 102.9 377.173 102.601 380.282 101.227C380.39 101.18 380.509 101.165 380.625 101.183C380.741 101.201 380.85 101.252 380.938 101.329C381.026 101.407 381.091 101.508 381.124 101.621C381.157 101.734 381.157 101.853 381.125 101.966C380.547 103.898 378.918 107.348 374.699 107.062C371.974 106.879 370.41 104.479 369.679 102.939C369.628 102.832 369.609 102.713 369.624 102.596C369.639 102.479 369.687 102.369 369.763 102.278C369.838 102.187 369.938 102.12 370.051 102.084C370.163 102.048 370.284 102.045 370.398 102.076Z" fill="white"/>
<path d="M383.482 64.7461C385.057 61.0475 384.298 57.1815 381.785 56.1111C379.272 55.0406 375.958 57.1711 374.382 60.8696C372.807 64.5682 373.566 68.4342 376.079 69.5046C378.592 70.5751 381.906 68.4446 383.482 64.7461Z" fill="#444444"/>
<path d="M387.281 141.563C402.699 140.837 403.348 127.75 403.348 127.75C403.348 127.75 410.987 128.244 416.066 128.931C424.381 130.056 429.866 132.875 434.23 137.24C438.291 141.301 440.763 145.694 438.147 173.742C436.253 194.051 437.586 238.722 437.586 238.722H343.629C343.629 238.722 337.068 174.187 336.29 165.044C334.806 147.592 330.612 143.739 339.109 134.749C345.271 128.229 361.179 127.75 367.583 127.751C367.686 127.751 366.284 142.553 387.281 141.563Z" fill="#2BBECB"/>
<path d="M336.067 138.789L311.775 190.289L263.869 154.264L244.842 179.566L308.276 227.268C308.844 227.69 309.437 228.077 310.052 228.426C311.864 229.442 313.859 230.09 315.922 230.335C317.985 230.579 320.076 230.415 322.076 229.851C324.076 229.288 325.945 228.336 327.577 227.05C329.209 225.764 330.571 224.169 331.587 222.357L331.862 221.867L368.923 155.715L336.067 138.789Z" fill="#2BBECB"/>
<path d="M441.191 239.174H13.3155C13.1956 239.174 13.0806 239.126 12.9957 239.042C12.9109 238.957 12.8633 238.842 12.8633 238.722C12.8633 238.602 12.9109 238.487 12.9957 238.402C13.0806 238.317 13.1956 238.27 13.3155 238.27H441.191C441.311 238.27 441.426 238.317 441.51 238.402C441.595 238.487 441.643 238.602 441.643 238.722C441.643 238.842 441.595 238.957 441.51 239.042C441.426 239.126 441.311 239.174 441.191 239.174Z" fill="black"/>
<path d="M348.35 171.227H119.227V249.545H348.35V171.227Z" fill="white"/>
<path d="M348.575 249.771H119V171H348.575V249.771ZM119.452 249.319H348.123V171.452H119.452V249.319Z" fill="#444444"/>
<path d="M107.688 195.389L121.832 189.072C122.142 188.934 122.479 188.861 122.819 188.859C123.159 188.858 123.496 188.927 123.809 189.063C124.121 189.198 124.401 189.398 124.632 189.648C124.863 189.898 125.039 190.193 125.15 190.515C125.336 191.116 125.292 191.764 125.026 192.334C124.761 192.904 124.294 193.355 123.715 193.6L120.682 194.957L132.174 195.075C133.452 195.066 135.026 195.872 134.942 197.306C134.946 197.86 134.762 198.399 134.42 198.835C134.078 199.271 133.598 199.578 133.059 199.706C133.062 199.718 133.064 199.731 133.064 199.743C133.063 199.752 133.061 199.761 133.059 199.771L135.029 199.756C135.394 199.754 135.755 199.833 136.085 199.988C136.416 200.142 136.707 200.369 136.939 200.65C137.171 200.932 137.337 201.262 137.426 201.616C137.514 201.97 137.522 202.339 137.45 202.696C137.324 203.257 137.01 203.758 136.559 204.115C136.108 204.472 135.548 204.663 134.973 204.657L134.135 204.663C134.124 204.687 134.109 204.709 134.09 204.728C134.657 204.856 135.161 205.181 135.51 205.645C135.86 206.11 136.033 206.684 135.999 207.264C135.943 207.899 135.649 208.489 135.177 208.916C134.705 209.344 134.09 209.578 133.453 209.571L131.37 209.586C131.399 209.606 131.423 209.633 131.44 209.665C131.457 209.696 131.466 209.731 131.467 209.767C131.466 209.81 131.452 209.851 131.427 209.886C131.901 210.14 132.278 210.542 132.501 211.031C132.724 211.521 132.78 212.07 132.66 212.594C132.523 213.142 132.205 213.627 131.758 213.972C131.311 214.317 130.761 214.5 130.196 214.493L112.621 214.619C110.163 214.636 107.755 213.919 105.707 212.56C103.659 211.2 102.063 209.26 101.124 206.987C100.315 205.028 100.302 202.83 101.087 200.861C101.873 198.892 103.395 197.307 105.331 196.442L107.688 195.389Z" fill="#FFD3C2"/>
<g opacity="0.2">
<path d="M121.684 199.644C121.684 199.703 121.709 199.76 121.751 199.802C121.793 199.843 121.85 199.867 121.91 199.867L132.839 199.965C132.899 199.965 132.957 199.942 133 199.9C133.042 199.858 133.067 199.801 133.067 199.741C133.068 199.681 133.044 199.623 133.002 199.58C132.96 199.538 132.903 199.513 132.843 199.513L121.914 199.414C121.854 199.414 121.796 199.438 121.754 199.48C121.711 199.523 121.688 199.58 121.688 199.64L121.684 199.644Z" fill="#444444"/>
</g>
<g opacity="0.2">
<path d="M121.506 204.464C121.507 204.523 121.531 204.58 121.574 204.622C121.616 204.663 121.673 204.687 121.732 204.687L133.929 204.797C133.989 204.797 134.047 204.773 134.089 204.73C134.132 204.688 134.155 204.63 134.155 204.57C134.153 204.511 134.129 204.455 134.087 204.413C134.045 204.371 133.989 204.346 133.929 204.344L121.732 204.234C121.702 204.234 121.673 204.24 121.645 204.251C121.617 204.262 121.592 204.279 121.571 204.3C121.55 204.321 121.533 204.346 121.521 204.373C121.51 204.401 121.504 204.431 121.504 204.461L121.506 204.464Z" fill="#444444"/>
</g>
<g opacity="0.2">
<path d="M121.285 209.679C121.286 209.738 121.31 209.795 121.352 209.836C121.395 209.878 121.452 209.901 121.511 209.901L131.241 209.989C131.301 209.99 131.358 209.966 131.401 209.924C131.444 209.882 131.468 209.825 131.469 209.765C131.469 209.705 131.446 209.647 131.404 209.605C131.362 209.562 131.305 209.537 131.245 209.537L121.515 209.449C121.455 209.449 121.398 209.473 121.355 209.515C121.313 209.558 121.289 209.615 121.289 209.675L121.285 209.679Z" fill="#444444"/>
</g>
<path d="M111.736 220.573L33.3202 238.398C30.7151 238.682 28.0799 238.358 25.6211 237.452C23.1623 236.546 20.9469 235.082 19.1488 233.176C17.3506 231.27 16.0185 228.973 15.2571 226.466C14.4957 223.959 14.3257 221.309 14.7603 218.725L23.7341 146.544C24.4804 142.109 26.9582 138.151 30.6224 135.542C34.2866 132.934 38.8371 131.887 43.2728 132.634C47.7085 133.38 51.666 135.858 54.2748 139.522C56.8836 143.186 57.9299 147.737 57.1836 152.172L52.8623 203.836L107.343 191.507L111.736 220.573Z" fill="#2BBECB"/>
<path d="M41.8375 205.868C41.7808 205.867 41.7262 205.845 41.6848 205.807C41.6434 205.768 41.618 205.715 41.6139 205.658C41.6097 205.602 41.627 205.545 41.6624 205.501C41.6977 205.456 41.7484 205.427 41.8045 205.418L52.7316 203.085C52.761 203.08 52.791 203.081 52.82 203.088C52.8489 203.095 52.8762 203.108 52.9001 203.126C52.924 203.143 52.9442 203.166 52.9594 203.191C52.9746 203.217 52.9844 203.245 52.9885 203.275C52.9973 203.334 52.9822 203.394 52.9466 203.443C52.911 203.491 52.8577 203.523 52.7985 203.532L41.8715 205.865C41.8602 205.867 41.8489 205.868 41.8375 205.868Z" fill="#444444"/>
<path d="M35.6729 238.72C35.613 238.724 35.5539 238.704 35.5087 238.664C35.4636 238.624 35.436 238.568 35.4321 238.508C35.4282 238.448 35.4483 238.389 35.488 238.344C35.5276 238.299 35.5836 238.272 35.6436 238.268L111.244 220.462L106.96 191.834L52.8045 203.525C52.7695 203.529 52.734 203.525 52.7006 203.514C52.6673 203.502 52.6371 203.483 52.6123 203.458C52.5877 203.432 52.5693 203.401 52.5588 203.367C52.5483 203.334 52.5458 203.298 52.5517 203.263L55.5896 173.744C55.5941 173.714 55.6045 173.686 55.6201 173.661C55.6358 173.635 55.6563 173.613 55.6806 173.596C55.7049 173.579 55.7324 173.566 55.7615 173.56C55.7906 173.554 55.8207 173.553 55.8501 173.558C55.9092 173.568 55.9619 173.601 55.9967 173.65C56.0315 173.699 56.0454 173.76 56.0355 173.819L53.0506 203.035L107.066 191.335C107.095 191.327 107.125 191.325 107.155 191.329C107.185 191.332 107.214 191.342 107.24 191.357C107.266 191.373 107.289 191.393 107.307 191.417C107.325 191.441 107.338 191.469 107.345 191.498L111.738 220.566C111.752 220.623 111.743 220.684 111.713 220.734C111.683 220.785 111.635 220.822 111.578 220.838L35.7023 238.718C35.6926 238.719 35.6828 238.72 35.6729 238.72Z" fill="#444444"/>
<path d="M355.187 208.955L341.044 202.639C340.733 202.5 340.397 202.427 340.057 202.426C339.716 202.424 339.379 202.493 339.067 202.629C338.755 202.765 338.475 202.964 338.244 203.214C338.013 203.464 337.837 203.759 337.726 204.081C337.54 204.682 337.584 205.33 337.85 205.9C338.115 206.47 338.582 206.921 339.161 207.166L342.194 208.523L330.701 208.642C329.424 208.632 327.849 209.438 327.934 210.873C327.93 211.427 328.114 211.966 328.456 212.402C328.798 212.837 329.278 213.145 329.817 213.273C329.814 213.285 329.812 213.297 329.811 213.309C329.812 213.319 329.814 213.328 329.817 213.337L327.847 213.323C327.482 213.32 327.121 213.399 326.791 213.554C326.46 213.709 326.168 213.935 325.937 214.217C325.705 214.498 325.538 214.828 325.45 215.182C325.362 215.536 325.353 215.905 325.426 216.263C325.551 216.824 325.866 217.324 326.317 217.681C326.768 218.038 327.327 218.229 327.902 218.223L328.741 218.229C328.752 218.253 328.768 218.275 328.786 218.295C328.219 218.422 327.715 218.747 327.366 219.212C327.016 219.676 326.843 220.25 326.877 220.831C326.934 221.465 327.227 222.055 327.699 222.483C328.171 222.91 328.787 223.144 329.424 223.137L331.507 223.152C331.477 223.173 331.453 223.2 331.436 223.231C331.419 223.262 331.41 223.297 331.409 223.333C331.41 223.376 331.424 223.417 331.449 223.452C330.975 223.706 330.598 224.109 330.375 224.598C330.152 225.087 330.096 225.636 330.216 226.16C330.353 226.708 330.671 227.194 331.118 227.538C331.565 227.883 332.116 228.067 332.68 228.06L350.255 228.185C352.714 228.203 355.122 227.485 357.17 226.125C359.218 224.766 360.814 222.825 361.752 220.552C362.561 218.593 362.575 216.395 361.789 214.426C361.004 212.457 359.482 210.872 357.546 210.007L355.187 208.955Z" fill="#FFD3C2"/>
<g opacity="0.2">
<path d="M341.192 213.206C341.191 213.266 341.167 213.322 341.125 213.364C341.083 213.406 341.025 213.429 340.966 213.429L330.037 213.527C330.007 213.528 329.978 213.522 329.95 213.511C329.923 213.5 329.897 213.483 329.876 213.463C329.855 213.442 329.838 213.417 329.827 213.39C329.815 213.362 329.809 213.333 329.809 213.303C329.808 213.274 329.814 213.244 329.825 213.217C329.836 213.189 329.853 213.164 329.873 213.143C329.894 213.122 329.919 213.105 329.946 213.093C329.974 213.082 330.003 213.075 330.033 213.075L340.962 212.977C341.022 212.977 341.079 213 341.122 213.043C341.164 213.085 341.188 213.143 341.188 213.203L341.192 213.206Z" fill="#444444"/>
</g>
<g opacity="0.2">
<path d="M341.37 218.03C341.369 218.089 341.345 218.145 341.304 218.187C341.262 218.229 341.205 218.252 341.146 218.253L328.949 218.363C328.889 218.363 328.831 218.339 328.789 218.297C328.746 218.254 328.723 218.197 328.723 218.137C328.725 218.077 328.749 218.021 328.791 217.979C328.833 217.937 328.889 217.913 328.949 217.911L341.146 217.801C341.206 217.801 341.263 217.825 341.306 217.867C341.348 217.909 341.372 217.967 341.372 218.027L341.37 218.03Z" fill="#444444"/>
</g>
<g opacity="0.2">
<path d="M341.592 223.249C341.591 223.308 341.567 223.365 341.525 223.407C341.482 223.448 341.425 223.472 341.366 223.472L331.636 223.56C331.607 223.56 331.577 223.554 331.55 223.543C331.522 223.532 331.497 223.516 331.476 223.495C331.455 223.474 331.438 223.449 331.426 223.422C331.415 223.394 331.408 223.365 331.408 223.335C331.408 223.306 331.414 223.276 331.425 223.249C331.436 223.221 331.452 223.196 331.473 223.175C331.494 223.154 331.519 223.137 331.546 223.125C331.573 223.114 331.603 223.108 331.632 223.107L341.362 223.02C341.422 223.02 341.479 223.043 341.522 223.086C341.564 223.128 341.588 223.186 341.588 223.246L341.592 223.249Z" fill="#444444"/>
</g>
<path d="M355.662 234.139L429.555 238.397C432.16 238.68 434.796 238.356 437.255 237.45C439.713 236.544 441.929 235.081 443.727 233.175C445.525 231.269 446.857 228.972 447.618 226.464C448.38 223.957 448.55 221.307 448.115 218.723L439.143 146.54C438.774 144.344 437.975 142.242 436.793 140.354C435.611 138.467 434.069 136.83 432.255 135.538C430.441 134.247 428.39 133.325 426.219 132.826C424.049 132.327 421.801 132.26 419.605 132.63C417.408 132.999 415.306 133.798 413.419 134.98C411.531 136.161 409.894 137.704 408.603 139.518C407.311 141.332 406.389 143.383 405.89 145.554C405.391 147.724 405.324 149.972 405.694 152.168L410.015 206.998L355.986 205.071L355.662 234.139Z" fill="#2BBECB"/>
<path d="M421.036 206.77C421.093 206.77 421.148 206.748 421.189 206.71C421.231 206.671 421.256 206.618 421.26 206.561C421.264 206.504 421.247 206.448 421.212 206.404C421.177 206.359 421.126 206.33 421.07 206.321L410.143 206.249C410.113 206.244 410.083 206.245 410.054 206.252C410.025 206.259 409.998 206.272 409.974 206.29C409.95 206.307 409.93 206.33 409.915 206.355C409.899 206.381 409.889 206.409 409.885 206.439C409.876 206.498 409.892 206.559 409.927 206.607C409.963 206.655 410.016 206.687 410.076 206.696L421.003 206.768C421.014 206.77 421.025 206.77 421.036 206.77Z" fill="#444444"/>
<path d="M427.201 238.722C427.261 238.726 427.32 238.706 427.365 238.666C427.41 238.626 427.438 238.57 427.442 238.51C427.446 238.45 427.426 238.391 427.386 238.346C427.346 238.301 427.29 238.274 427.23 238.27L356.151 234.033L356.364 205.405L410.068 206.694C410.103 206.699 410.138 206.695 410.172 206.683C410.205 206.672 410.235 206.653 410.26 206.627C410.285 206.602 410.303 206.571 410.314 206.537C410.324 206.503 410.327 206.467 410.321 206.432L407.283 173.748C407.279 173.718 407.268 173.69 407.253 173.665C407.237 173.639 407.216 173.617 407.192 173.6C407.168 173.583 407.14 173.57 407.111 173.564C407.082 173.557 407.052 173.557 407.023 173.562C406.993 173.567 406.965 173.578 406.94 173.593C406.915 173.609 406.893 173.63 406.876 173.654C406.859 173.678 406.846 173.705 406.84 173.734C406.833 173.763 406.832 173.793 406.837 173.823L409.824 206.204L356.261 204.906C356.232 204.898 356.202 204.896 356.172 204.9C356.142 204.904 356.113 204.914 356.087 204.929C356.061 204.944 356.038 204.965 356.02 204.989C356.002 205.013 355.989 205.04 355.982 205.07L355.659 234.138C355.645 234.195 355.654 234.255 355.684 234.306C355.713 234.357 355.762 234.394 355.818 234.409L427.17 238.717C427.18 238.72 427.191 238.721 427.201 238.722Z" fill="#444444"/>
<path d="M163.394 220.732H159.274V204.733H154V201.305H168.669V204.733H163.394V220.732Z" fill="#EB008B"/>
<path d="M187.576 220.732H183.472V212.347H175.778V220.732H171.658V201.305H175.778V208.918H183.471V201.305H187.576V220.732Z" fill="#EB008B"/>
<path d="M204.372 220.731L202.963 216.107H195.882L194.473 220.731H190.035L196.891 201.227H201.927L208.81 220.731H204.372ZM201.98 212.652C200.678 208.462 199.945 206.092 199.781 205.543C199.617 204.994 199.5 204.56 199.429 204.241C199.137 205.375 198.299 208.179 196.918 212.652H201.98Z" fill="#EB008B"/>
<path d="M228.489 220.732H223.254L214.804 206.036H214.684C214.852 208.632 214.937 210.483 214.937 211.59V220.732H211.256V201.305H216.451L224.889 215.855H224.982C224.849 213.331 224.782 211.546 224.783 210.501V201.305H228.489V220.732Z" fill="#EB008B"/>
<path d="M249.004 220.732H244.326L239.237 212.547L237.497 213.796V220.732H233.377V201.305H237.497V210.195L239.118 207.909L244.38 201.305H248.95L242.174 209.902L249.004 220.732Z" fill="#EB008B"/>
<path d="M265.645 209.304L269.697 201.305H274.135L267.689 213.17V220.732H263.598V213.305L257.152 201.307H261.617L265.645 209.304Z" fill="#EB008B"/>
<path d="M294.213 210.992C294.213 214.208 293.415 216.679 291.821 218.407C290.227 220.134 287.941 220.998 284.965 220.998C281.988 220.998 279.703 220.134 278.108 218.407C276.514 216.68 275.717 214.199 275.717 210.966C275.717 207.732 276.516 205.263 278.115 203.558C279.714 201.853 282.006 201 284.991 201C287.976 201 290.259 201.859 291.841 203.578C293.422 205.297 294.212 207.768 294.213 210.992ZM280.035 210.992C280.035 213.163 280.447 214.798 281.271 215.897C282.094 216.996 283.326 217.545 284.965 217.544C288.251 217.544 289.894 215.361 289.894 210.994C289.894 206.618 288.26 204.43 284.99 204.43C283.351 204.43 282.115 204.981 281.283 206.083C280.45 207.186 280.035 208.822 280.035 210.992Z" fill="#EB008B"/>
<path d="M314.051 201.305V213.875C314.08 215.197 313.747 216.502 313.088 217.648C312.433 218.74 311.463 219.606 310.304 220.133C308.951 220.738 307.48 221.033 305.999 220.997C303.501 220.997 301.561 220.356 300.179 219.076C298.797 217.796 298.106 216.044 298.105 213.821V201.305H302.212V213.197C302.212 214.694 302.513 215.793 303.116 216.492C303.718 217.192 304.715 217.542 306.105 217.542C307.452 217.542 308.428 217.19 309.035 216.485C309.642 215.781 309.945 214.676 309.945 213.17V201.305H314.051Z" fill="#EB008B"/>
</svg>
