<svg width="32" height="32" viewBox="0 0 32 32" fill="none" xmlns="http://www.w3.org/2000/svg">
<path d="M22.6669 14.6682H12.5469L16.9469 10.2815C17.1979 10.0305 17.339 9.68995 17.339 9.33488C17.339 8.97981 17.1979 8.63929 16.9469 8.38822C16.6958 8.13714 16.3553 7.99609 16.0002 7.99609C15.6451 7.99609 15.3046 8.13714 15.0535 8.38822L8.38685 15.0549C8.26547 15.1817 8.17031 15.3312 8.10685 15.4949C7.9735 15.8195 7.9735 16.1836 8.10685 16.5082C8.17031 16.6719 8.26547 16.8214 8.38685 16.9482L15.0535 23.6149C15.1775 23.7399 15.3249 23.839 15.4874 23.9067C15.6499 23.9744 15.8242 24.0093 16.0002 24.0093C16.1762 24.0093 16.3505 23.9744 16.513 23.9067C16.6754 23.839 16.8229 23.7399 16.9469 23.6149C17.0718 23.4909 17.171 23.3435 17.2387 23.181C17.3064 23.0185 17.3413 22.8442 17.3413 22.6682C17.3413 22.4922 17.3064 22.3179 17.2387 22.1554C17.171 21.993 17.0718 21.8455 16.9469 21.7215L12.5469 17.3349H22.6669C23.0205 17.3349 23.3596 17.1944 23.6097 16.9444C23.8597 16.6943 24.0002 16.3552 24.0002 16.0015C24.0002 15.6479 23.8597 15.3088 23.6097 15.0587C23.3596 14.8087 23.0205 14.6682 22.6669 14.6682Z" fill="black"/>
</svg>
