<svg width="17" height="16" viewBox="0 0 17 16" fill="none" xmlns="http://www.w3.org/2000/svg">
<path d="M14.5522 6H10.5522V2C10.5522 1.46957 10.3415 0.960859 9.96646 0.585786C9.59139 0.210713 9.08268 0 8.55225 0C8.02181 0 7.51311 0.210713 7.13803 0.585786C6.76296 0.960859 6.55225 1.46957 6.55225 2V6H2.55225C2.02181 6 1.51311 6.21071 1.13803 6.58579C0.76296 6.96086 0.552246 7.46957 0.552246 8C0.552246 8.53043 0.76296 9.03914 1.13803 9.41421C1.51311 9.78929 2.02181 10 2.55225 10H6.55225V14C6.55225 14.5304 6.76296 15.0391 7.13803 15.4142C7.51311 15.7893 8.02181 16 8.55225 16C9.08268 16 9.59139 15.7893 9.96646 15.4142C10.3415 15.0391 10.5522 14.5304 10.5522 14V10H14.5522C15.0827 10 15.5914 9.78929 15.9665 9.41421C16.3415 9.03914 16.5522 8.53043 16.5522 8C16.5522 7.46957 16.3415 6.96086 15.9665 6.58579C15.5914 6.21071 15.0827 6 14.5522 6Z" fill="#EB008B"/>
</svg>
