<svg width="16" height="16" viewBox="0 0 16 16" fill="none" xmlns="http://www.w3.org/2000/svg">
<g clip-path="url(#clip0_13343_123008)">
<path d="M9.2906 2.66667C9.8329 2.6672 10.3528 2.88286 10.7363 3.26632C11.1197 3.64978 11.3354 4.16971 11.3359 4.712C11.3359 4.88881 11.4062 5.05838 11.5312 5.1834C11.6562 5.30843 11.8258 5.37867 12.0026 5.37867C12.1794 5.37867 12.349 5.30843 12.474 5.1834C12.599 5.05838 12.6693 4.88881 12.6693 4.712V4.66667C12.6693 4.654 12.6693 4.64267 12.6693 4.63C12.647 3.74849 12.2814 2.91052 11.6502 2.2947C11.0191 1.67889 10.1724 1.33392 9.2906 1.33333H8.66927V0.666667C8.66927 0.489856 8.59903 0.320286 8.47401 0.195262C8.34898 0.0702379 8.17941 0 8.0026 0C7.82579 0 7.65622 0.0702379 7.5312 0.195262C7.40618 0.320286 7.33594 0.489856 7.33594 0.666667V1.33333H6.7146C5.91282 1.33419 5.13746 1.62016 4.52713 2.14012C3.9168 2.66008 3.51128 3.38015 3.38304 4.17162C3.2548 4.96308 3.41221 5.77436 3.82713 6.46044C4.24205 7.14652 4.88744 7.66268 5.64794 7.91667L7.33594 8.48V13.3333H6.7146C6.17231 13.3328 5.65238 13.1171 5.26892 12.7337C4.88546 12.3502 4.6698 11.8303 4.66927 11.288C4.66927 11.1112 4.59903 10.9416 4.47401 10.8166C4.34898 10.6916 4.17942 10.6213 4.0026 10.6213C3.82579 10.6213 3.65622 10.6916 3.5312 10.8166C3.40618 10.9416 3.33594 11.1112 3.33594 11.288V11.3333C3.33594 11.346 3.33594 11.3573 3.33594 11.37C3.35819 12.2515 3.72385 13.0895 4.35498 13.7053C4.98611 14.3211 5.83281 14.6661 6.7146 14.6667H7.33594V15.3333C7.33594 15.5101 7.40618 15.6797 7.5312 15.8047C7.65622 15.9298 7.82579 16 8.0026 16C8.17941 16 8.34898 15.9298 8.47401 15.8047C8.59903 15.6797 8.66927 15.5101 8.66927 15.3333V14.6667H9.2906C10.0924 14.6658 10.8677 14.3798 11.4781 13.8599C12.0884 13.3399 12.4939 12.6199 12.6222 11.8284C12.7504 11.0369 12.593 10.2256 12.1781 9.53956C11.7632 8.85348 11.1178 8.33732 10.3573 8.08333L8.66927 7.52V2.66667H9.2906ZM9.93727 9.34733C10.3982 9.50075 10.7895 9.81323 11.0411 10.2288C11.2927 10.6444 11.3881 11.136 11.3103 11.6155C11.2325 12.0951 10.9866 12.5313 10.6165 12.846C10.2464 13.1608 9.77641 13.3335 9.2906 13.3333H8.66927V8.92467L9.93727 9.34733ZM7.33594 7.07533L6.06927 6.65267C5.60843 6.49929 5.21721 6.18691 4.96563 5.77146C4.71404 5.356 4.61852 4.86457 4.69614 4.38512C4.77376 3.90566 5.01947 3.46948 5.38929 3.15463C5.75911 2.83978 6.22891 2.6668 6.7146 2.66667H7.33594V7.07533Z" fill="white"/>
</g>
<defs>
<clipPath id="clip0_13343_123008">
<rect width="16" height="16" fill="white"/>
</clipPath>
</defs>
</svg>
