<svg width="24" height="24" viewBox="0 0 24 24" fill="none" xmlns="http://www.w3.org/2000/svg">
<g clip-path="url(#clip0_1902_77654)">
<path d="M23.8 11.4765C22.9485 9.4269 21.665 7.58504 20.037 6.0765L23.057 3.0575L20.939 0.9375L17.565 4.3125C15.8543 3.39592 13.9407 2.9238 12 2.9395C3.5 2.9395 0.327 11.1275 0.2 11.4765L0 11.9985L0.2 12.5205C1.05153 14.5701 2.33504 16.412 3.963 17.9205L0.939 20.9375L3.061 23.0595L6.435 19.6845C8.14571 20.6011 10.0593 21.0732 12 21.0575C20.5 21.0575 23.673 12.8695 23.8 12.5205L24 11.9985L23.8 11.4765ZM3.212 11.9985C3.965 10.4435 6.619 5.9145 12 5.9145C13.1385 5.90983 14.267 6.12758 15.322 6.5555L13.562 8.3155C12.8283 8.00403 12.0182 7.91888 11.2358 8.07096C10.4533 8.22304 9.73418 8.60542 9.17055 9.16905C8.60692 9.73268 8.22454 10.4518 8.07246 11.2343C7.92038 12.0167 8.00553 12.8268 8.317 13.5605L6.065 15.8115C4.87455 14.7386 3.90537 13.4433 3.212 11.9985ZM12 18.0825C10.8615 18.0872 9.73304 17.8694 8.678 17.4415L10.438 15.6815C11.1717 15.993 11.9818 16.0781 12.7642 15.926C13.5467 15.774 14.2658 15.3916 14.8294 14.8279C15.3931 14.2643 15.7755 13.5452 15.9275 12.7627C16.0796 11.9803 15.9945 11.1702 15.683 10.4365L17.935 8.1855C19.1257 9.25817 20.0949 10.5535 20.788 11.9985C20.035 13.5535 17.381 18.0825 12 18.0825Z" fill="#444444"/>
</g>
<defs>
<clipPath id="clip0_1902_77654">
<rect width="24" height="24" fill="white"/>
</clipPath>
</defs>
</svg>
