<svg width="16" height="16" viewBox="0 0 16 16" fill="none" xmlns="http://www.w3.org/2000/svg">
<g clip-path="url(#clip0_1915_22348)">
<path d="M2.66659 4.00036C2.40375 4.00105 2.14339 3.94962 1.90057 3.84903C1.65775 3.74844 1.43728 3.60071 1.25192 3.41436L0.222586 2.49836C0.0905086 2.38061 0.0106188 2.21521 0.000491824 2.03855C-0.00963514 1.86189 0.0508303 1.68844 0.168586 1.55636C0.286343 1.42428 0.451743 1.34439 0.628403 1.33427C0.805062 1.32414 0.978509 1.38461 1.11059 1.50236L2.16725 2.44503C2.22774 2.51296 2.3015 2.56779 2.38397 2.60615C2.46645 2.64452 2.5559 2.6656 2.64682 2.66809C2.73775 2.67059 2.82823 2.65446 2.91268 2.62068C2.99714 2.5869 3.07379 2.5362 3.13792 2.4717L5.54059 0.184362C5.66978 0.0693422 5.83863 0.00904139 6.01146 0.0161961C6.18429 0.0233507 6.34757 0.0974007 6.46681 0.222705C6.58606 0.34801 6.65194 0.514758 6.65053 0.68773C6.64911 0.860701 6.58053 1.02635 6.45925 1.1497L4.06659 3.4257C3.88243 3.60877 3.664 3.75376 3.42378 3.85237C3.18356 3.95097 2.92626 4.00126 2.66659 4.00036ZM15.9999 2.66703C15.9999 2.49022 15.9297 2.32065 15.8047 2.19562C15.6796 2.0706 15.5101 2.00036 15.3333 2.00036H8.66659C8.48978 2.00036 8.32021 2.0706 8.19518 2.19562C8.07016 2.32065 7.99992 2.49022 7.99992 2.66703C7.99992 2.84384 8.07016 3.01341 8.19518 3.13843C8.32021 3.26346 8.48978 3.3337 8.66659 3.3337H15.3333C15.5101 3.3337 15.6796 3.26346 15.8047 3.13843C15.9297 3.01341 15.9999 2.84384 15.9999 2.66703ZM4.06659 8.75903L6.45925 6.48303C6.52603 6.42358 6.58017 6.3513 6.61845 6.27049C6.65673 6.18969 6.67836 6.10201 6.68206 6.01267C6.68575 5.92334 6.67144 5.83417 6.63998 5.75048C6.60851 5.66679 6.56053 5.59028 6.49889 5.52551C6.43725 5.46074 6.36322 5.40903 6.28118 5.37346C6.19915 5.33789 6.11081 5.31918 6.0214 5.31845C5.93199 5.31773 5.84335 5.33499 5.76075 5.36922C5.67814 5.40345 5.60327 5.45394 5.54059 5.5177L3.14059 7.80503C3.01368 7.92638 2.84485 7.99411 2.66925 7.99411C2.49366 7.99411 2.32483 7.92638 2.19792 7.80503L1.13792 6.74836C1.01218 6.62692 0.843783 6.55973 0.668986 6.56125C0.494188 6.56277 0.326979 6.63288 0.203374 6.75648C0.0797686 6.88009 0.009656 7.0473 0.00813705 7.2221C0.00661811 7.39689 0.0738144 7.56529 0.195253 7.69103L1.25192 8.7477C1.62504 9.1209 2.13053 9.33151 2.65825 9.33363C3.18597 9.33575 3.69315 9.12922 4.06925 8.75903H4.06659ZM15.9999 8.00036C15.9999 7.82355 15.9297 7.65398 15.8047 7.52896C15.6796 7.40393 15.5101 7.3337 15.3333 7.3337H8.66659C8.48978 7.3337 8.32021 7.40393 8.19518 7.52896C8.07016 7.65398 7.99992 7.82355 7.99992 8.00036C7.99992 8.17717 8.07016 8.34674 8.19518 8.47177C8.32021 8.59679 8.48978 8.66703 8.66659 8.66703H15.3333C15.5101 8.66703 15.6796 8.59679 15.8047 8.47177C15.9297 8.34674 15.9999 8.17717 15.9999 8.00036ZM4.06659 14.0924L6.45659 11.8164C6.52337 11.7569 6.57751 11.6846 6.61578 11.6038C6.65406 11.523 6.67569 11.4353 6.67939 11.346C6.68309 11.2567 6.66878 11.1675 6.63731 11.0838C6.60584 11.0001 6.55786 10.9236 6.49623 10.8588C6.43459 10.7941 6.36055 10.7424 6.27852 10.7068C6.19649 10.6712 6.10814 10.6525 6.01873 10.6518C5.92932 10.6511 5.84068 10.6683 5.75808 10.7026C5.67548 10.7368 5.60061 10.7873 5.53792 10.851L3.13792 13.1384C3.07379 13.2029 2.99714 13.2536 2.91268 13.2873C2.82823 13.3211 2.73775 13.3373 2.64682 13.3348C2.5559 13.3323 2.46645 13.3112 2.38397 13.2728C2.3015 13.2345 2.22774 13.1796 2.16725 13.1117L1.11059 12.169C0.978509 12.0513 0.805062 11.9908 0.628403 12.0009C0.451743 12.0111 0.286343 12.091 0.168586 12.223C0.0508303 12.3551 -0.00963514 12.5286 0.000491824 12.7052C0.0106188 12.8819 0.0905086 13.0473 0.222586 13.165L1.25192 14.081C1.62504 14.4542 2.13053 14.6648 2.65825 14.667C3.18597 14.6691 3.69315 14.4626 4.06925 14.0924H4.06659ZM15.9999 13.3337C15.9999 13.1569 15.9297 12.9873 15.8047 12.8623C15.6796 12.7373 15.5101 12.667 15.3333 12.667H8.66659C8.48978 12.667 8.32021 12.7373 8.19518 12.8623C8.07016 12.9873 7.99992 13.1569 7.99992 13.3337C7.99992 13.5105 8.07016 13.6801 8.19518 13.8051C8.32021 13.9301 8.48978 14.0004 8.66659 14.0004H15.3333C15.5101 14.0004 15.6796 13.9301 15.8047 13.8051C15.9297 13.6801 15.9999 13.5105 15.9999 13.3337Z" fill="white"/>
</g>
<defs>
<clipPath id="clip0_1915_22348">
<rect width="16" height="16" fill="white"/>
</clipPath>
</defs>
</svg>
