<svg width="16" height="16" viewBox="0 0 16 16" fill="none" xmlns="http://www.w3.org/2000/svg">
<path d="M12.0003 16H4.00033C3.1166 15.9989 2.26936 15.6474 1.64447 15.0225C1.01958 14.3976 0.668051 13.5504 0.666992 12.6667V3.33333C0.668051 2.4496 1.01958 1.60237 1.64447 0.97748C2.26936 0.352588 3.1166 0.00105857 4.00033 0L12.0003 0C12.8841 0.00105857 13.7313 0.352588 14.3562 0.97748C14.9811 1.60237 15.3326 2.4496 15.3337 3.33333V12.6667C15.3326 13.5504 14.9811 14.3976 14.3562 15.0225C13.7313 15.6474 12.8841 15.9989 12.0003 16ZM4.00033 1.33333C3.46989 1.33333 2.96118 1.54405 2.58611 1.91912C2.21104 2.29419 2.00033 2.8029 2.00033 3.33333V12.6667C2.00033 13.1971 2.21104 13.7058 2.58611 14.0809C2.96118 14.456 3.46989 14.6667 4.00033 14.6667H12.0003C12.5308 14.6667 13.0395 14.456 13.4145 14.0809C13.7896 13.7058 14.0003 13.1971 14.0003 12.6667V3.33333C14.0003 2.8029 13.7896 2.29419 13.4145 1.91912C13.0395 1.54405 12.5308 1.33333 12.0003 1.33333H4.00033ZM10.667 6.66667H5.33366C4.80323 6.66667 4.29452 6.45595 3.91945 6.08088C3.54437 5.70581 3.33366 5.1971 3.33366 4.66667C3.33366 4.13623 3.54437 3.62753 3.91945 3.25245C4.29452 2.87738 4.80323 2.66667 5.33366 2.66667H10.667C11.1974 2.66667 11.7061 2.87738 12.0812 3.25245C12.4563 3.62753 12.667 4.13623 12.667 4.66667C12.667 5.1971 12.4563 5.70581 12.0812 6.08088C11.7061 6.45595 11.1974 6.66667 10.667 6.66667ZM5.33366 4C5.15685 4 4.98728 4.07024 4.86225 4.19526C4.73723 4.32029 4.66699 4.48986 4.66699 4.66667C4.66699 4.84348 4.73723 5.01305 4.86225 5.13807C4.98728 5.2631 5.15685 5.33333 5.33366 5.33333H10.667C10.8438 5.33333 11.0134 5.2631 11.1384 5.13807C11.2634 5.01305 11.3337 4.84348 11.3337 4.66667C11.3337 4.48986 11.2634 4.32029 11.1384 4.19526C11.0134 4.07024 10.8438 4 10.667 4H5.33366ZM4.00033 8.66667C3.86847 8.66667 3.73958 8.70577 3.62995 8.77902C3.52031 8.85227 3.43486 8.95639 3.38441 9.07821C3.33395 9.20003 3.32075 9.33407 3.34647 9.46339C3.37219 9.59271 3.43569 9.7115 3.52892 9.80474C3.62216 9.89797 3.74094 9.96147 3.87027 9.98719C3.99959 10.0129 4.13363 9.99971 4.25545 9.94925C4.37727 9.8988 4.48138 9.81335 4.55464 9.70371C4.62789 9.59408 4.66699 9.46519 4.66699 9.33333C4.66699 9.15652 4.59675 8.98695 4.47173 8.86193C4.34671 8.73691 4.17714 8.66667 4.00033 8.66667ZM6.66699 8.66667C6.53514 8.66667 6.40624 8.70577 6.29661 8.77902C6.18698 8.85227 6.10153 8.95639 6.05107 9.07821C6.00061 9.20003 5.98741 9.33407 6.01314 9.46339C6.03886 9.59271 6.10235 9.7115 6.19559 9.80474C6.28882 9.89797 6.40761 9.96147 6.53693 9.98719C6.66625 10.0129 6.8003 9.99971 6.92211 9.94925C7.04393 9.8988 7.14805 9.81335 7.22131 9.70371C7.29456 9.59408 7.33366 9.46519 7.33366 9.33333C7.33366 9.15652 7.26342 8.98695 7.1384 8.86193C7.01337 8.73691 6.8438 8.66667 6.66699 8.66667ZM9.33366 8.66667C9.20181 8.66667 9.07291 8.70577 8.96328 8.77902C8.85365 8.85227 8.7682 8.95639 8.71774 9.07821C8.66728 9.20003 8.65408 9.33407 8.6798 9.46339C8.70553 9.59271 8.76902 9.7115 8.86226 9.80474C8.95549 9.89797 9.07428 9.96147 9.2036 9.98719C9.33292 10.0129 9.46696 9.99971 9.58878 9.94925C9.7106 9.8988 9.81472 9.81335 9.88797 9.70371C9.96123 9.59408 10.0003 9.46519 10.0003 9.33333C10.0003 9.15652 9.93009 8.98695 9.80506 8.86193C9.68004 8.73691 9.51047 8.66667 9.33366 8.66667ZM4.00033 11.3333C3.86847 11.3333 3.73958 11.3724 3.62995 11.4457C3.52031 11.5189 3.43486 11.6231 3.38441 11.7449C3.33395 11.8667 3.32075 12.0007 3.34647 12.1301C3.37219 12.2594 3.43569 12.3782 3.52892 12.4714C3.62216 12.5646 3.74094 12.6281 3.87027 12.6539C3.99959 12.6796 4.13363 12.6664 4.25545 12.6159C4.37727 12.5655 4.48138 12.48 4.55464 12.3704C4.62789 12.2607 4.66699 12.1319 4.66699 12C4.66699 11.8232 4.59675 11.6536 4.47173 11.5286C4.34671 11.4036 4.17714 11.3333 4.00033 11.3333ZM6.66699 11.3333C6.53514 11.3333 6.40624 11.3724 6.29661 11.4457C6.18698 11.5189 6.10153 11.6231 6.05107 11.7449C6.00061 11.8667 5.98741 12.0007 6.01314 12.1301C6.03886 12.2594 6.10235 12.3782 6.19559 12.4714C6.28882 12.5646 6.40761 12.6281 6.53693 12.6539C6.66625 12.6796 6.8003 12.6664 6.92211 12.6159C7.04393 12.5655 7.14805 12.48 7.22131 12.3704C7.29456 12.2607 7.33366 12.1319 7.33366 12C7.33366 11.8232 7.26342 11.6536 7.1384 11.5286C7.01337 11.4036 6.8438 11.3333 6.66699 11.3333ZM12.0003 8.66667C11.8685 8.66667 11.7396 8.70577 11.6299 8.77902C11.5203 8.85227 11.4349 8.95639 11.3844 9.07821C11.3339 9.20003 11.3207 9.33407 11.3465 9.46339C11.3722 9.59271 11.4357 9.7115 11.5289 9.80474C11.6222 9.89797 11.7409 9.96147 11.8703 9.98719C11.9996 10.0129 12.1336 9.99971 12.2554 9.94925C12.3773 9.8988 12.4814 9.81335 12.5546 9.70371C12.6279 9.59408 12.667 9.46519 12.667 9.33333C12.667 9.15652 12.5968 8.98695 12.4717 8.86193C12.3467 8.73691 12.1771 8.66667 12.0003 8.66667ZM12.667 12C12.667 11.8232 12.5968 11.6536 12.4717 11.5286C12.3467 11.4036 12.1771 11.3333 12.0003 11.3333H9.33366C9.15685 11.3333 8.98728 11.4036 8.86226 11.5286C8.73723 11.6536 8.66699 11.8232 8.66699 12C8.66699 12.1768 8.73723 12.3464 8.86226 12.4714C8.98728 12.5964 9.15685 12.6667 9.33366 12.6667H12.0003C12.1771 12.6667 12.3467 12.5964 12.4717 12.4714C12.5968 12.3464 12.667 12.1768 12.667 12Z" fill="white"/>
</svg>
