<svg width="17" height="16" viewBox="0 0 17 16" fill="none" xmlns="http://www.w3.org/2000/svg">
<path d="M5.16999 7.33338H10.23L8.02999 5.14004C7.90445 5.01451 7.83393 4.84424 7.83393 4.66671C7.83393 4.48917 7.90445 4.31891 8.02999 4.19338C8.15553 4.06784 8.32579 3.99731 8.50332 3.99731C8.68086 3.99731 8.85112 4.06784 8.97666 4.19338L12.31 7.52671C12.3707 7.59011 12.4183 7.66487 12.45 7.74671C12.5167 7.90902 12.5167 8.09107 12.45 8.25338C12.4183 8.33521 12.3707 8.40997 12.31 8.47338L8.97666 11.8067C8.91468 11.8692 8.84095 11.9188 8.75971 11.9526C8.67847 11.9865 8.59133 12.0039 8.50332 12.0039C8.41532 12.0039 8.32818 11.9865 8.24694 11.9526C8.1657 11.9188 8.09197 11.8692 8.02999 11.8067C7.9675 11.7447 7.91791 11.671 7.88406 11.5898C7.85022 11.5085 7.83279 11.4214 7.83279 11.3334C7.83279 11.2454 7.85022 11.1582 7.88406 11.077C7.91791 10.9958 7.9675 10.922 8.02999 10.86L10.23 8.66671H5.16999C4.99318 8.66671 4.82361 8.59647 4.69859 8.47145C4.57356 8.34642 4.50332 8.17685 4.50332 8.00004C4.50332 7.82323 4.57356 7.65366 4.69859 7.52864C4.82361 7.40361 4.99318 7.33338 5.16999 7.33338Z" fill="#666666"/>
</svg>
