<svg width="15" height="9" viewBox="0 0 15 9" fill="none" xmlns="http://www.w3.org/2000/svg">
<path d="M14.5611 0.853742C14.4218 0.714352 14.2564 0.603777 14.0744 0.528335C13.8923 0.452893 13.6972 0.414062 13.5001 0.414062C13.3031 0.414062 13.1079 0.452893 12.9259 0.528335C12.7438 0.603777 12.5784 0.714352 12.4391 0.853742L7.85313 5.43874C7.75936 5.53248 7.63221 5.58514 7.49963 5.58514C7.36704 5.58514 7.23989 5.53248 7.14613 5.43874L2.56113 0.853742C2.27986 0.572347 1.89834 0.414209 1.50048 0.414115C1.10262 0.414021 0.721021 0.57198 0.439627 0.853242C0.158232 1.1345 9.38129e-05 1.51603 4.17261e-08 1.91389C-9.37294e-05 2.31175 0.157865 2.69335 0.439127 2.97474L5.02513 7.56074C5.35014 7.88579 5.73599 8.14363 6.16065 8.31954C6.58531 8.49545 7.04047 8.586 7.50013 8.586C7.95978 8.586 8.41494 8.49545 8.8396 8.31954C9.26426 8.14363 9.65012 7.88579 9.97513 7.56074L14.5611 2.97474C14.8423 2.69345 15.0003 2.31199 15.0003 1.91424C15.0003 1.5165 14.8423 1.13503 14.5611 0.853742Z" fill="#444444"/>
</svg>
