<svg width="36" height="37" viewBox="0 0 36 37" fill="none" xmlns="http://www.w3.org/2000/svg">
<path d="M35.5 18.4501C35.5 27.9641 27.6719 35.6892 18 35.6892C8.32811 35.6892 0.5 27.9641 0.5 18.4501C0.5 8.93602 8.32811 1.21094 18 1.21094C27.6719 1.21094 35.5 8.93602 35.5 18.4501Z" fill="#AAAAAA" stroke="white"/>
<mask id="mask0_2877_89600" style="mask-type:alpha" maskUnits="userSpaceOnUse" x="0" y="0" width="36" height="37">
<ellipse cx="18" cy="18.4501" rx="18" ry="17.7391" fill="#AAAAAA"/>
</mask>
<g mask="url(#mask0_2877_89600)">
<path d="M22.5484 25.1045H13.4516C11.9732 25.1062 10.5558 25.6858 9.51033 26.7161C8.4649 27.7464 7.87679 29.1432 7.875 30.6003V36.1914H28.125V30.6003C28.1232 29.1432 27.5351 27.7464 26.4897 26.7161C25.4442 25.6858 24.0268 25.1062 22.5484 25.1045Z" fill="white"/>
<path d="M18 22.8864C21.7279 22.8864 24.75 19.9081 24.75 16.2342C24.75 12.5603 21.7279 9.58203 18 9.58203C14.2721 9.58203 11.25 12.5603 11.25 16.2342C11.25 19.9081 14.2721 22.8864 18 22.8864Z" fill="white"/>
</g>
</svg>
