<svg width="30" height="30" viewBox="0 0 30 30" fill="none" xmlns="http://www.w3.org/2000/svg">
<rect width="30" height="30" rx="3" fill="#D5FAFD"/>
<path d="M11.6641 13.0703H13.0807V20.356H11.6641V13.0703Z" fill="#ED1C24"/>
<path d="M15.9141 13.0703H17.3307V20.356H15.9141V13.0703Z" fill="#ED1C24"/>
<path d="M6 9.42969V10.644H7.41667V22.7868C7.41667 23.1089 7.56592 23.4177 7.8316 23.6455C8.09728 23.8732 8.45761 24.0011 8.83333 24.0011H20.1667C20.5424 24.0011 20.9027 23.8732 21.1684 23.6455C21.4341 23.4177 21.5833 23.1089 21.5833 22.7868V10.644H23V9.42969H6ZM8.83333 22.7868V10.644H20.1667V22.7868H8.83333Z" fill="#ED1C24"/>
<path d="M11.6641 7H17.3307V8.21429H11.6641V7Z" fill="#ED1C24"/>
</svg>
