<svg width="16" height="2" viewBox="0 0 16 2" fill="none" xmlns="http://www.w3.org/2000/svg">
<g clip-path="url(#clip0_10695_104573)">
<path d="M12.6667 0H3.33333C2.4496 0.00105857 1.60237 0.352588 0.97748 0.97748C0.352588 1.60237 0.00105857 2.4496 0 3.33333L0 12.6667C0.00105857 13.5504 0.352588 14.3976 0.97748 15.0225C1.60237 15.6474 2.4496 15.9989 3.33333 16H12.6667C13.5504 15.9989 14.3976 15.6474 15.0225 15.0225C15.6474 14.3976 15.9989 13.5504 16 12.6667V3.33333C15.9989 2.4496 15.6474 1.60237 15.0225 0.97748C14.3976 0.352588 13.5504 0.00105857 12.6667 0V0ZM14.6667 3.33333H10V1.33333H12.6667C13.1971 1.33333 13.7058 1.54405 14.0809 1.91912C14.456 2.29419 14.6667 2.8029 14.6667 3.33333ZM7.33333 1.33333H8.66667V4.66667C8.66667 4.84348 8.59643 5.01305 8.47141 5.13807C8.34638 5.2631 8.17681 5.33333 8 5.33333C7.82319 5.33333 7.65362 5.2631 7.5286 5.13807C7.40357 5.01305 7.33333 4.84348 7.33333 4.66667V1.33333ZM3.33333 1.33333H6V3.33333H1.33333C1.33333 2.8029 1.54405 2.29419 1.91912 1.91912C2.29419 1.54405 2.8029 1.33333 3.33333 1.33333ZM12.6667 14.6667H3.33333C2.8029 14.6667 2.29419 14.456 1.91912 14.0809C1.54405 13.7058 1.33333 13.1971 1.33333 12.6667V4.66667H6C6 5.1971 6.21071 5.70581 6.58579 6.08088C6.96086 6.45595 7.46957 6.66667 8 6.66667C8.53043 6.66667 9.03914 6.45595 9.41421 6.08088C9.78929 5.70581 10 5.1971 10 4.66667H14.6667V12.6667C14.6667 13.1971 14.456 13.7058 14.0809 14.0809C13.7058 14.456 13.1971 14.6667 12.6667 14.6667ZM13.3333 12.6667C13.3333 12.8435 13.2631 13.013 13.1381 13.1381C13.013 13.2631 12.8435 13.3333 12.6667 13.3333H10.6667C10.4899 13.3333 10.3203 13.2631 10.1953 13.1381C10.0702 13.013 10 12.8435 10 12.6667C10 12.4899 10.0702 12.3203 10.1953 12.1953C10.3203 12.0702 10.4899 12 10.6667 12H12.6667C12.8435 12 13.013 12.0702 13.1381 12.1953C13.2631 12.3203 13.3333 12.4899 13.3333 12.6667Z" fill="white"/>
</g>
<defs>
<clipPath id="clip0_10695_104573">
<rect width="16" height="16" fill="white"/>
</clipPath>
</defs>
</svg>
