<svg width="16" height="16" viewBox="0 0 16 16" fill="currentColor" xmlns="http://www.w3.org/2000/svg">
<g clip-path="url(#clip0_16331_183482)">
<path d="M14 5.33185H11.3333C10.8029 5.33185 10.2942 5.54256 9.91912 5.91763C9.54405 6.2927 9.33333 6.80141 9.33333 7.33185V10.6652H8V7.99851C7.99959 7.28287 7.80718 6.58044 7.44286 5.96448C7.07853 5.34851 6.55563 4.84157 5.92867 4.49651C6.28927 4.11885 6.53106 3.64363 6.62405 3.1298C6.71703 2.61598 6.65711 2.08616 6.45173 1.60607C6.24634 1.12599 5.90453 0.716769 5.46869 0.429177C5.03285 0.141586 4.52217 -0.0117187 4 -0.0117188C3.47783 -0.0117188 2.96715 0.141586 2.53131 0.429177C2.09547 0.716769 1.75366 1.12599 1.54827 1.60607C1.34289 2.08616 1.28297 2.61598 1.37595 3.1298C1.46894 3.64363 1.71073 4.11885 2.07133 4.49651C1.44437 4.84157 0.921467 5.34851 0.557142 5.96448C0.192816 6.58044 0.000414788 7.28287 0 7.99851L0 15.3318C0 15.5087 0.0702379 15.6782 0.195262 15.8033C0.320286 15.9283 0.489856 15.9985 0.666667 15.9985C0.843478 15.9985 1.01305 15.9283 1.13807 15.8033C1.2631 15.6782 1.33333 15.5087 1.33333 15.3318V11.9985H14.6667V15.3318C14.6667 15.5087 14.7369 15.6782 14.8619 15.8033C14.987 15.9283 15.1565 15.9985 15.3333 15.9985C15.5101 15.9985 15.6797 15.9283 15.8047 15.8033C15.9298 15.6782 16 15.5087 16 15.3318V7.33185C16 6.80141 15.7893 6.2927 15.4142 5.91763C15.0391 5.54256 14.5304 5.33185 14 5.33185ZM2.66667 2.66518C2.66667 2.40147 2.74487 2.14368 2.89137 1.92442C3.03788 1.70515 3.24612 1.53426 3.48976 1.43334C3.73339 1.33242 4.00148 1.30602 4.26012 1.35746C4.51876 1.40891 4.75634 1.5359 4.94281 1.72237C5.12928 1.90884 5.25627 2.14642 5.30771 2.40506C5.35916 2.6637 5.33276 2.93179 5.23184 3.17542C5.13092 3.41906 4.96003 3.6273 4.74076 3.7738C4.52149 3.92031 4.26371 3.99851 4 3.99851C3.64638 3.99851 3.30724 3.85804 3.05719 3.60799C2.80714 3.35794 2.66667 3.0188 2.66667 2.66518ZM4 5.33185C4.70724 5.33185 5.38552 5.6128 5.88562 6.11289C6.38572 6.61299 6.66667 7.29127 6.66667 7.99851V10.6652H1.33333V7.99851C1.33333 7.29127 1.61428 6.61299 2.11438 6.11289C2.61448 5.6128 3.29276 5.33185 4 5.33185ZM10.6667 10.6652V7.33185C10.6667 7.15504 10.7369 6.98547 10.8619 6.86044C10.987 6.73542 11.1565 6.66518 11.3333 6.66518H12V7.33185C12 7.50866 12.0702 7.67823 12.1953 7.80325C12.3203 7.92827 12.4899 7.99851 12.6667 7.99851C12.8435 7.99851 13.013 7.92827 13.1381 7.80325C13.2631 7.67823 13.3333 7.50866 13.3333 7.33185V6.66518H14C14.1768 6.66518 14.3464 6.73542 14.4714 6.86044C14.5964 6.98547 14.6667 7.15504 14.6667 7.33185V10.6652H10.6667Z"/>
</g>
<defs>
<clipPath id="clip0_16331_183482">
<rect width="16" height="16" fill="white"/>
</clipPath>
</defs>
</svg>
