<svg width="16" height="16" viewBox="0 0 16 16" fill="none" xmlns="http://www.w3.org/2000/svg">
<g clip-path="url(#clip0_11254_118255)">
<path d="M12.6667 13.3337H3.33333C2.4496 13.3326 1.60237 12.9811 0.97748 12.3562C0.352588 11.7313 0.00105857 10.8841 0 10.0003L0 6.00033C0.00105857 5.1166 0.352588 4.26936 0.97748 3.64447C1.60237 3.01958 2.4496 2.66805 3.33333 2.66699H12.6667C13.5504 2.66805 14.3976 3.01958 15.0225 3.64447C15.6474 4.26936 15.9989 5.1166 16 6.00033V10.0003C15.9989 10.8841 15.6474 11.7313 15.0225 12.3562C14.3976 12.9811 13.5504 13.3326 12.6667 13.3337ZM3.33333 4.00033C2.8029 4.00033 2.29419 4.21104 1.91912 4.58611C1.54405 4.96118 1.33333 5.46989 1.33333 6.00033V10.0003C1.33333 10.5308 1.54405 11.0395 1.91912 11.4145C2.29419 11.7896 2.8029 12.0003 3.33333 12.0003H12.6667C13.1971 12.0003 13.7058 11.7896 14.0809 11.4145C14.456 11.0395 14.6667 10.5308 14.6667 10.0003V6.00033C14.6667 5.46989 14.456 4.96118 14.0809 4.58611C13.7058 4.21104 13.1971 4.00033 12.6667 4.00033H3.33333ZM8 10.667C7.47258 10.667 6.95701 10.5106 6.51848 10.2176C6.07995 9.92456 5.73815 9.50808 5.53632 9.02081C5.33449 8.53355 5.28168 7.99737 5.38457 7.48008C5.48747 6.9628 5.74144 6.48765 6.11438 6.11471C6.48732 5.74177 6.96248 5.48779 7.47976 5.3849C7.99704 5.282 8.53322 5.33481 9.02049 5.53665C9.50776 5.73848 9.92424 6.08027 10.2173 6.51881C10.5103 6.95734 10.6667 7.47291 10.6667 8.00033C10.6667 8.70757 10.3857 9.38585 9.88562 9.88594C9.38552 10.386 8.70724 10.667 8 10.667ZM8 6.66699C7.73629 6.66699 7.47851 6.74519 7.25924 6.8917C7.03997 7.03821 6.86908 7.24645 6.76816 7.49008C6.66724 7.73372 6.64084 8.0018 6.69229 8.26045C6.74373 8.51909 6.87072 8.75666 7.05719 8.94313C7.24366 9.1296 7.48124 9.25659 7.73988 9.30804C7.99852 9.35949 8.26661 9.33308 8.51024 9.23217C8.75388 9.13125 8.96212 8.96035 9.10863 8.74109C9.25513 8.52182 9.33333 8.26403 9.33333 8.00033C9.33333 7.6467 9.19286 7.30757 8.94281 7.05752C8.69276 6.80747 8.35362 6.66699 8 6.66699ZM3.33333 5.33366C3.20148 5.33366 3.07259 5.37276 2.96295 5.44601C2.85332 5.51927 2.76787 5.62339 2.71741 5.7452C2.66696 5.86702 2.65375 6.00107 2.67948 6.13039C2.7052 6.25971 2.76869 6.37849 2.86193 6.47173C2.95516 6.56497 3.07395 6.62846 3.20327 6.65418C3.33259 6.67991 3.46664 6.6667 3.58846 6.61625C3.71027 6.56579 3.81439 6.48034 3.88765 6.37071C3.9609 6.26107 4 6.13218 4 6.00033C4 5.82351 3.92976 5.65395 3.80474 5.52892C3.67971 5.4039 3.51014 5.33366 3.33333 5.33366ZM12 6.00033C12 6.13218 12.0391 6.26107 12.1124 6.37071C12.1856 6.48034 12.2897 6.56579 12.4115 6.61625C12.5334 6.6667 12.6674 6.67991 12.7967 6.65418C12.926 6.62846 13.0448 6.56497 13.1381 6.47173C13.2313 6.37849 13.2948 6.25971 13.3205 6.13039C13.3462 6.00107 13.333 5.86702 13.2826 5.7452C13.2321 5.62339 13.1467 5.51927 13.037 5.44601C12.9274 5.37276 12.7985 5.33366 12.6667 5.33366C12.4899 5.33366 12.3203 5.4039 12.1953 5.52892C12.0702 5.65395 12 5.82351 12 6.00033ZM3.33333 9.33366C3.20148 9.33366 3.07259 9.37276 2.96295 9.44601C2.85332 9.51927 2.76787 9.62339 2.71741 9.7452C2.66696 9.86702 2.65375 10.0011 2.67948 10.1304C2.7052 10.2597 2.76869 10.3785 2.86193 10.4717C2.95516 10.565 3.07395 10.6285 3.20327 10.6542C3.33259 10.6799 3.46664 10.6667 3.58846 10.6162C3.71027 10.5658 3.81439 10.4803 3.88765 10.3707C3.9609 10.2611 4 10.1322 4 10.0003C4 9.82351 3.92976 9.65395 3.80474 9.52892C3.67971 9.4039 3.51014 9.33366 3.33333 9.33366ZM12 10.0003C12 10.1322 12.0391 10.2611 12.1124 10.3707C12.1856 10.4803 12.2897 10.5658 12.4115 10.6162C12.5334 10.6667 12.6674 10.6799 12.7967 10.6542C12.926 10.6285 13.0448 10.565 13.1381 10.4717C13.2313 10.3785 13.2948 10.2597 13.3205 10.1304C13.3462 10.0011 13.333 9.86702 13.2826 9.7452C13.2321 9.62339 13.1467 9.51927 13.037 9.44601C12.9274 9.37276 12.7985 9.33366 12.6667 9.33366C12.4899 9.33366 12.3203 9.4039 12.1953 9.52892C12.0702 9.65395 12 9.82351 12 10.0003Z" fill="white"/>
</g>
<defs>
<clipPath id="clip0_11254_118255">
<rect width="16" height="16" fill="white"/>
</clipPath>
</defs>
</svg>
