<svg width="24" height="25" viewBox="0 0 24 25" fill="none" xmlns="http://www.w3.org/2000/svg">
<g clip-path="url(#clip0_1222_68275)">
<path d="M19 0.136719H5C3.67441 0.138307 2.40356 0.665601 1.46622 1.60294C0.528882 2.54028 0.00158786 3.81112 0 5.13672L0 19.1367C0.00158786 20.4623 0.528882 21.7332 1.46622 22.6705C2.40356 23.6078 3.67441 24.1351 5 24.1367H19C20.3256 24.1351 21.5964 23.6078 22.5338 22.6705C23.4711 21.7332 23.9984 20.4623 24 19.1367V5.13672C23.9984 3.81112 23.4711 2.54028 22.5338 1.60294C21.5964 0.665601 20.3256 0.138307 19 0.136719V0.136719ZM5 2.13672H19C19.7956 2.13672 20.5587 2.45279 21.1213 3.0154C21.6839 3.57801 22 4.34107 22 5.13672V19.1367C21.9983 19.5822 21.8957 20.0215 21.7 20.4217L12.537 11.2587C12.0727 10.7943 11.5214 10.4259 10.9147 10.1745C10.308 9.92316 9.65772 9.79379 9.001 9.79379C8.34428 9.79379 7.69399 9.92316 7.08728 10.1745C6.48056 10.4259 5.92931 10.7943 5.465 11.2587L2 14.7227V5.13672C2 4.34107 2.31607 3.57801 2.87868 3.0154C3.44129 2.45279 4.20435 2.13672 5 2.13672ZM5 22.1367C4.20435 22.1367 3.44129 21.8206 2.87868 21.258C2.31607 20.6954 2 19.9324 2 19.1367V17.5507L6.878 12.6727C7.1566 12.3939 7.4874 12.1728 7.85151 12.0219C8.21561 11.871 8.60587 11.7934 9 11.7934C9.39413 11.7934 9.78439 11.871 10.1485 12.0219C10.5126 12.1728 10.8434 12.3939 11.122 12.6727L20.285 21.8367C19.8848 22.0324 19.4455 22.135 19 22.1367H5Z" fill="#AAAAAA"/>
<path d="M16 10.6367C16.6922 10.6367 17.3689 10.4314 17.9445 10.0469C18.5201 9.66228 18.9687 9.11565 19.2336 8.47611C19.4985 7.83657 19.5678 7.13284 19.4327 6.4539C19.2977 5.77497 18.9644 5.15133 18.4749 4.66185C17.9854 4.17236 17.3617 3.83902 16.6828 3.70397C16.0039 3.56892 15.3001 3.63824 14.6606 3.90314C14.0211 4.16805 13.4744 4.61665 13.0899 5.19222C12.7053 5.7678 12.5 6.44449 12.5 7.13672C12.5 8.06498 12.8687 8.95522 13.5251 9.61159C14.1815 10.268 15.0717 10.6367 16 10.6367ZM16 5.63672C16.2967 5.63672 16.5867 5.72469 16.8334 5.88952C17.08 6.05434 17.2723 6.28861 17.3858 6.5627C17.4994 6.83678 17.5291 7.13838 17.4712 7.42936C17.4133 7.72033 17.2704 7.9876 17.0607 8.19738C16.8509 8.40716 16.5836 8.55002 16.2926 8.6079C16.0017 8.66578 15.7001 8.63607 15.426 8.52254C15.1519 8.40901 14.9176 8.21675 14.7528 7.97008C14.588 7.7234 14.5 7.43339 14.5 7.13672C14.5 6.7389 14.658 6.35736 14.9393 6.07606C15.2206 5.79476 15.6022 5.63672 16 5.63672Z" fill="#AAAAAA"/>
</g>
<defs>
<clipPath id="clip0_1222_68275">
<rect width="24" height="24" fill="white" transform="translate(0 0.136719)"/>
</clipPath>
</defs>
</svg>
