<svg width="25" height="24" viewBox="0 0 25 24" fill="none" xmlns="http://www.w3.org/2000/svg">
<path d="M18.5 10H14.5V6C14.5 5.46957 14.2893 4.96086 13.9142 4.58579C13.5391 4.21071 13.0304 4 12.5 4C11.9696 4 11.4609 4.21071 11.0858 4.58579C10.7107 4.96086 10.5 5.46957 10.5 6V10H6.5C5.96957 10 5.46086 10.2107 5.08579 10.5858C4.71071 10.9609 4.5 11.4696 4.5 12C4.5 12.5304 4.71071 13.0391 5.08579 13.4142C5.46086 13.7893 5.96957 14 6.5 14H10.5V18C10.5 18.5304 10.7107 19.0391 11.0858 19.4142C11.4609 19.7893 11.9696 20 12.5 20C13.0304 20 13.5391 19.7893 13.9142 19.4142C14.2893 19.0391 14.5 18.5304 14.5 18V14H18.5C19.0304 14 19.5391 13.7893 19.9142 13.4142C20.2893 13.0391 20.5 12.5304 20.5 12C20.5 11.4696 20.2893 10.9609 19.9142 10.5858C19.5391 10.2107 19.0304 10 18.5 10Z" fill="#EB008B"/>
</svg>
