<svg width="24" height="24" viewBox="0 0 24 24" fill="none" xmlns="http://www.w3.org/2000/svg">
<path d="M18.4212 7.72234C17.8102 6.31834 16.7557 5.15341 15.4193 4.40606C14.0829 3.65871 12.5383 3.37017 11.0222 3.58465C9.50611 3.79912 8.10216 4.50479 7.02549 5.59351C5.94882 6.68223 5.25882 8.09395 5.06123 9.61234C4.22345 9.81639 3.47403 10.2857 2.92468 10.9503C2.37533 11.615 2.05545 12.4393 2.01273 13.3005C1.97 14.1617 2.20672 15.0137 2.6876 15.7294C3.16847 16.4452 3.86776 16.9864 4.68123 17.2723C4.78494 17.3043 4.89272 17.3211 5.00123 17.3223C5.26645 17.3648 5.53766 17.3001 5.7552 17.1426C5.97274 16.985 6.1188 16.7476 6.16123 16.4823C6.20367 16.2171 6.13901 15.9459 5.98148 15.7284C5.82394 15.5108 5.58645 15.3648 5.32123 15.3223C4.94414 15.1862 4.61666 14.9399 4.38129 14.6154C4.14591 14.2908 4.0135 13.9031 4.00123 13.5023C4.00123 12.9719 4.21195 12.4632 4.58702 12.0881C4.96209 11.7131 5.4708 11.5023 6.00123 11.5023C6.26645 11.5023 6.5208 11.397 6.70834 11.2094C6.89587 11.0219 7.00123 10.7676 7.00123 10.5023C7.00379 9.31961 7.42552 8.17609 8.1915 7.27492C8.95748 6.37375 10.0181 5.77329 11.185 5.58021C12.3518 5.38713 13.5494 5.61394 14.5648 6.22034C15.5802 6.82675 16.3478 7.77348 16.7312 8.89234C16.7884 9.06418 16.8911 9.21727 17.0285 9.33527C17.1659 9.45327 17.3327 9.53175 17.5112 9.56234C18.1126 9.67118 18.6663 9.96107 19.0984 10.3932C19.5305 10.8254 19.8203 11.3792 19.929 11.9805C20.0378 12.5819 19.9603 13.2021 19.7069 13.7582C19.4535 14.3143 19.0364 14.7798 18.5112 15.0923C18.2805 15.2249 18.1119 15.4438 18.0425 15.7007C17.9731 15.9576 18.0086 16.2316 18.1412 16.4623C18.2738 16.6931 18.4927 16.8617 18.7496 16.9311C19.0065 17.0005 19.2805 16.9649 19.5112 16.8323C20.2694 16.3922 20.8986 15.7605 21.3357 15.0005C21.7727 14.2406 22.0022 13.379 22.0012 12.5023C21.9982 11.4265 21.6482 10.3803 21.0033 9.51914C20.3583 8.65801 19.4528 8.02788 18.4212 7.72234Z" fill="black"/>
<path d="M14 13.52C12.44 12.64 10.52 12.92 9.24 14.08V13.4C9.24 13.16 9.08 13 8.84 13C8.6 13 8.44 13.16 8.44 13.4V15.2C8.44 15.44 8.6 15.6 8.84 15.6H10.64C10.88 15.6 11.04 15.44 11.04 15.2C11.04 14.96 10.88 14.8 10.64 14.8H9.68C10.28 14.16 11.12 13.8 12 13.8C13.76 13.8 15.2 15.24 15.2 17C15.2 17.24 15.36 17.4 15.6 17.4C15.84 17.4 16 17.24 16 17C16 15.56 15.24 14.24 14 13.52ZM15.16 18.4H13.36C13.12 18.4 12.96 18.56 12.96 18.8C12.96 19.04 13.12 19.2 13.36 19.2H14.32C13.72 19.84 12.88 20.2 12 20.2C10.24 20.2 8.8 18.76 8.8 17C8.8 16.76 8.64 16.6 8.4 16.6C8.16 16.6 8 16.76 8 17C8 19.2 9.8 21 12 21C13.04 21 14 20.6 14.76 19.88V20.6C14.76 20.84 14.92 21 15.16 21C15.4 21 15.56 20.84 15.56 20.6V18.8C15.56 18.56 15.36 18.4 15.16 18.4Z" fill="black"/>
</svg>
