<svg width="16" height="16" viewBox="0 0 16 16" fill="none" xmlns="http://www.w3.org/2000/svg">
<g clip-path="url(#clip0_11211_116023)">
<path d="M6 8C6.79113 8 7.56449 7.76541 8.22228 7.32588C8.88008 6.88635 9.39277 6.26164 9.69552 5.53074C9.99827 4.79983 10.0775 3.99556 9.92314 3.21964C9.7688 2.44372 9.38784 1.73098 8.82843 1.17157C8.26902 0.612165 7.55629 0.231202 6.78036 0.0768607C6.00444 -0.0774802 5.20017 0.00173314 4.46927 0.304484C3.73836 0.607234 3.11365 1.11992 2.67412 1.77772C2.2346 2.43552 2 3.20888 2 4C2.00106 5.06054 2.42283 6.07734 3.17274 6.82726C3.92266 7.57718 4.93946 7.99894 6 8ZM6 1.33334C6.52742 1.33334 7.04299 1.48973 7.48152 1.78275C7.92005 2.07577 8.26185 2.49224 8.46368 2.97951C8.66551 3.46678 8.71832 4.00296 8.61543 4.52024C8.51253 5.03753 8.25856 5.51268 7.88562 5.88562C7.51268 6.25856 7.03752 6.51254 6.52024 6.61543C6.00296 6.71832 5.46678 6.66551 4.97951 6.46368C4.49224 6.26185 4.07576 5.92005 3.78275 5.48152C3.48973 5.04299 3.33333 4.52742 3.33333 4C3.33333 3.29276 3.61428 2.61448 4.11438 2.11438C4.61448 1.61429 5.29276 1.33334 6 1.33334Z" fill="white"/>
<path d="M6 9.33398C4.4093 9.33593 2.8843 9.96869 1.7595 11.0935C0.634705 12.2183 0.00194064 13.7433 0 15.334C0 15.5108 0.0702379 15.6803 0.195262 15.8054C0.320286 15.9304 0.489856 16.0006 0.666667 16.0006C0.843478 16.0006 1.01305 15.9304 1.13807 15.8054C1.2631 15.6803 1.33333 15.5108 1.33333 15.334C1.33333 14.0963 1.825 12.9093 2.70017 12.0341C3.57534 11.159 4.76232 10.6673 6 10.6673C7.23768 10.6673 8.42466 11.159 9.29983 12.0341C10.175 12.9093 10.6667 14.0963 10.6667 15.334C10.6667 15.5108 10.7369 15.6803 10.8619 15.8054C10.987 15.9304 11.1565 16.0006 11.3333 16.0006C11.5101 16.0006 11.6797 15.9304 11.8047 15.8054C11.9298 15.6803 12 15.5108 12 15.334C11.9981 13.7433 11.3653 12.2183 10.2405 11.0935C9.1157 9.96869 7.5907 9.33593 6 9.33398Z" fill="white"/>
<g clip-path="url(#clip1_11211_116023)">
<path d="M13.7302 3.83464C13.9674 3.83487 14.1949 3.92922 14.3627 4.09698C14.5304 4.26475 14.6248 4.49222 14.625 4.72947C14.625 4.80682 14.6557 4.88101 14.7104 4.93571C14.7651 4.99041 14.8393 5.02114 14.9167 5.02114C14.994 5.02114 15.0682 4.99041 15.1229 4.93571C15.1776 4.88101 15.2083 4.80682 15.2083 4.72947V4.70964C15.2083 4.70409 15.2083 4.69914 15.2083 4.69359C15.1986 4.30793 15.0386 3.94132 14.7625 3.6719C14.4864 3.40248 14.116 3.25156 13.7302 3.2513H13.4583V2.95964C13.4583 2.88228 13.4276 2.80809 13.3729 2.7534C13.3182 2.6987 13.244 2.66797 13.1667 2.66797C13.0893 2.66797 13.0151 2.6987 12.9604 2.7534C12.9057 2.80809 12.875 2.88228 12.875 2.95964V3.2513H12.6032C12.2524 3.25168 11.9132 3.37679 11.6461 3.60427C11.3791 3.83175 11.2017 4.14678 11.1456 4.49305C11.0895 4.83932 11.1584 5.19425 11.3399 5.49441C11.5214 5.79457 11.8038 6.02039 12.1365 6.13151L12.875 6.37797V8.5013H12.6032C12.3659 8.50107 12.1384 8.40672 11.9707 8.23896C11.8029 8.07119 11.7086 7.84372 11.7083 7.60647C11.7083 7.52911 11.6776 7.45493 11.6229 7.40023C11.5682 7.34553 11.494 7.3148 11.4167 7.3148C11.3393 7.3148 11.2651 7.34553 11.2104 7.40023C11.1557 7.45493 11.125 7.52911 11.125 7.60647V7.6263C11.125 7.63184 11.125 7.6368 11.125 7.64234C11.1347 8.02801 11.2947 8.39462 11.5708 8.66404C11.847 8.93346 12.2174 9.08438 12.6032 9.08464H12.875V9.3763C12.875 9.45366 12.9057 9.52784 12.9604 9.58254C13.0151 9.63724 13.0893 9.66797 13.1667 9.66797C13.244 9.66797 13.3182 9.63724 13.3729 9.58254C13.4276 9.52784 13.4583 9.45366 13.4583 9.3763V9.08464H13.7302C14.0809 9.08426 14.4202 8.95915 14.6872 8.73167C14.9542 8.50418 15.1316 8.18915 15.1877 7.84289C15.2438 7.49662 15.175 7.14169 14.9934 6.84153C14.8119 6.54137 14.5296 6.31555 14.1968 6.20443L13.4583 5.95797V3.83464H13.7302ZM14.0131 6.75743C14.2147 6.82455 14.3859 6.96126 14.496 7.14308C14.6061 7.3249 14.6478 7.53997 14.6138 7.74977C14.5797 7.95957 14.4721 8.1504 14.3102 8.2881C14.1483 8.4258 13.9427 8.50138 13.7302 8.5013H13.4583V6.57251L14.0131 6.75743ZM12.875 5.76343L12.3208 5.57851C12.1192 5.51141 11.9481 5.37474 11.838 5.19298C11.7279 5.01122 11.6861 4.79622 11.7201 4.58646C11.754 4.3767 11.8615 4.18587 12.0233 4.04812C12.1851 3.91037 12.3907 3.8347 12.6032 3.83464H12.875V5.76343Z" fill="white"/>
</g>
</g>
<defs>
<clipPath id="clip0_11211_116023">
<rect width="16" height="16" fill="white"/>
</clipPath>
<clipPath id="clip1_11211_116023">
<rect width="7" height="7" fill="white" transform="translate(9.66406 2.66797)"/>
</clipPath>
</defs>
</svg>
