<svg width="24" height="24" viewBox="0 0 24 24" fill="none" xmlns="http://www.w3.org/2000/svg">
<path opacity="0.99" d="M10.3158 16.0931C10.1844 16.0932 10.0543 16.0674 9.93301 16.0172C9.81168 15.9669 9.70148 15.8931 9.60875 15.8001L6.79625 12.9876C6.61068 12.7997 6.50699 12.546 6.50782 12.2819C6.50864 12.0178 6.61392 11.7648 6.80066 11.578C6.9874 11.3913 7.24044 11.286 7.50454 11.2852C7.76863 11.2843 8.02233 11.388 8.21025 11.5736L10.3157 13.679L15.7963 8.19857C15.9842 8.013 16.2379 7.90932 16.502 7.91016C16.7661 7.911 17.0191 8.01628 17.2058 8.20303C17.3926 8.38978 17.4979 8.64283 17.4987 8.90692C17.4995 9.17102 17.3958 9.42471 17.2103 9.61263L11.0228 15.8001C10.93 15.8931 10.8198 15.9669 10.6985 16.0172C10.5772 16.0674 10.4471 16.0932 10.3158 16.0931Z" fill="#E2FFF3"/>
<path d="M12 2C10.0222 2 8.08879 2.58649 6.4443 3.6853C4.79981 4.78412 3.51809 6.3459 2.76121 8.17317C2.00433 10.0004 1.8063 12.0111 2.19215 13.9509C2.578 15.8907 3.53041 17.6725 4.92894 19.0711C6.32746 20.4696 8.10929 21.422 10.0491 21.8079C11.9889 22.1937 13.9996 21.9957 15.8268 21.2388C17.6541 20.4819 19.2159 19.2002 20.3147 17.5557C21.4135 15.9112 22 13.9778 22 12C21.997 9.34877 20.9424 6.80699 19.0677 4.93228C17.193 3.05758 14.6512 2.00303 12 2ZM17.207 9.61328L11.0195 15.8008C10.9267 15.8937 10.8165 15.9673 10.6951 16.0176C10.5738 16.0679 10.4438 16.0938 10.3125 16.0938C10.1812 16.0938 10.0511 16.0679 9.92981 16.0176C9.8085 15.9673 9.69828 15.8937 9.60544 15.8008L6.793 12.9883C6.60743 12.8004 6.50374 12.5467 6.50457 12.2826C6.50539 12.0185 6.61067 11.7654 6.79741 11.5787C6.98415 11.3919 7.23719 11.2867 7.50129 11.2858C7.76538 11.285 8.01908 11.3887 8.207 11.5742L10.3125 13.6797L15.793 8.19922C15.9809 8.01366 16.2346 7.90998 16.4987 7.91081C16.7628 7.91165 17.0159 8.01694 17.2026 8.20368C17.3893 8.39043 17.4946 8.64348 17.4954 8.90757C17.4963 9.17167 17.3926 9.42537 17.207 9.61328Z" fill="#00C572"/>
</svg>
