<svg width="418" height="256" viewBox="0 0 418 256" fill="none" xmlns="http://www.w3.org/2000/svg">
<path d="M417.032 6.12636C342.545 122.238 158.935 329.481 20.3894 229.56C-50.8388 140.742 60.6123 -34.9522 417.032 6.12636Z" fill="#F4FBFC"/>
<mask id="mask0_4856_144360" style="mask-type:alpha" maskUnits="userSpaceOnUse" x="0" y="0" width="418" height="256">
<path d="M417.032 6.12636C342.545 122.238 158.935 329.481 20.3894 229.56C-50.8388 140.742 60.6123 -34.9522 417.032 6.12636Z" fill="#FFF3AA"/>
</mask>
<g mask="url(#mask0_4856_144360)">
<g opacity="0.5">
<path d="M43.3167 214.548C42.9879 212.129 43.0566 209.148 45.1584 207.91C48.2467 206.09 51.4755 209.809 54.4981 211.74C55.1917 212.183 55.9899 212.547 56.8061 212.458C57.6193 212.368 58.3249 211.833 58.854 211.208C60.7136 209.023 60.7943 205.86 60.4954 203.004C60.1964 200.149 59.6194 197.201 60.4804 194.466C61.3385 191.73 64.3012 189.384 66.9829 190.385C73.0191 192.642 73.2194 184.349 75.9699 181.093C77.1299 179.721 78.9267 178.749 80.6936 179.057C82.4276 179.362 83.743 180.794 84.6429 182.307C86.6908 185.751 87.4592 190.618 85.9584 194.43C84.5472 198.015 80.2511 200.188 80.5261 204.538C80.7175 207.531 83.3693 210.057 83.1541 213.047C82.9747 215.543 80.84 217.504 80.3767 219.962C79.7548 223.274 82.287 226.638 81.4589 229.905C80.9208 232.028 79.0582 233.613 78.4663 235.723C77.7368 238.324 79.0791 241 79.4648 243.673C80.29 249.398 76.1493 255.685 70.1789 256.352C65.0755 256.923 61.5866 251.64 58.5491 248.124C50.4112 238.698 44.994 226.901 43.3167 214.548Z" fill="#D5FAFD"/>
<path d="M68.1085 241.961C68.0996 241.961 68.0876 241.961 68.0757 241.961C67.7677 241.943 67.5315 241.68 67.5495 241.369L69.2655 210.952C69.2805 210.644 69.5167 210.417 69.8575 210.426C70.1654 210.444 70.4016 210.707 70.3837 211.018L68.6676 241.435C68.6527 241.731 68.4045 241.961 68.1085 241.961Z" fill="white"/>
<path d="M69.116 224.172C68.9844 224.172 68.8529 224.127 68.7482 224.034L61.0469 217.301C60.8137 217.098 60.7898 216.745 60.9931 216.512C61.1964 216.279 61.5521 216.255 61.7823 216.458L69.4837 223.191C69.7169 223.394 69.7408 223.747 69.5375 223.98C69.4269 224.109 69.2714 224.172 69.116 224.172Z" fill="white"/>
<path d="M65.9761 259.5C63.4947 258.995 60.9326 257.267 58.4272 255.94C52.9531 253.04 51.7931 248.113 28.985 248.866C18.3836 249.216 23.7381 236.671 16.2998 229.065C13.95 226.665 11.6061 223.956 11.0799 220.638C10.5537 217.319 12.6793 213.379 16.0338 213.199C18.0488 213.092 19.8635 214.291 21.741 215.026C23.6185 215.761 26.1538 215.845 27.251 214.153C25.7621 212.15 23.6335 210.733 21.8397 208.996C20.0489 207.259 18.5092 204.936 18.7663 202.454C19.1639 198.619 22.8861 200.221 23.9713 198.463C25.4273 196.104 23.8816 190.905 24.7038 187.895C26.6291 180.836 37.38 176.098 42.9736 182.193C49.4463 189.252 48.5344 200.903 48.0082 210.506C47.2758 223.857 60.807 225.576 66.7056 233.508C70.9599 239.224 77.6568 249.781 72.3411 256.798C70.344 259.431 68.1915 259.952 65.9761 259.5Z" fill="#AAE5EA"/>
<path d="M71.6327 261.284C71.4683 261.284 71.3069 261.212 71.1962 261.075L41.4879 224.308C41.2936 224.069 41.3295 223.713 41.5716 223.518C41.8138 223.324 42.1636 223.363 42.3579 223.602L72.0662 260.372C72.2606 260.611 72.2247 260.967 71.9825 261.161C71.8839 261.245 71.7583 261.284 71.6327 261.284Z" fill="white"/>
<path d="M57.0054 244.041C56.9426 244.041 56.8769 244.029 56.8141 244.009L39.199 237.599C38.909 237.494 38.7595 237.171 38.8641 236.881C38.9688 236.591 39.2887 236.439 39.5817 236.546L57.1968 242.956C57.4868 243.061 57.6362 243.384 57.5316 243.674C57.4509 243.901 57.2356 244.041 57.0054 244.041Z" fill="white"/>
<path d="M48.6425 232.974C48.5797 232.974 48.514 232.962 48.4512 232.941L30.8361 226.531C30.5461 226.426 30.3966 226.104 30.5012 225.814C30.6059 225.524 30.9257 225.374 31.2187 225.479L48.8338 231.889C49.1238 231.993 49.2733 232.316 49.1687 232.606C49.085 232.83 48.8697 232.974 48.6425 232.974Z" fill="white"/>
<path d="M63.1479 251.645C62.837 251.645 62.5858 251.394 62.5888 251.083L62.6307 235.59C62.6307 235.282 62.8818 235.031 63.1898 235.031C63.5007 235.031 63.7488 235.282 63.7488 235.593L63.707 251.086C63.707 251.394 63.4558 251.645 63.1479 251.645Z" fill="white"/>
</g>
<g opacity="0.5">
<path d="M368.134 65.357C363.93 67.7828 377.996 55.9005 373.794 58.3254C374.325 51.2016 364.06 55.9084 364.298 48.8065C357.38 51.0668 346.574 45.8251 347.87 51.6239C354.789 23.5033 337.629 33.8775 327.827 20.1034C326.624 18.4118 324.548 16.6543 322.161 17.445C320.561 17.9774 319.603 19.4648 319.088 20.8503C314.794 32.4074 329.167 41.239 329.498 52.8724C327.123 54.1462 324.505 52.6513 322.449 51.4401C320.394 50.2288 316.901 49.5634 315.435 51.6024C314.423 53.0071 315.276 54.6389 316.198 55.8833C320.624 61.8368 326.563 66.8835 333.562 70.6412C331.825 72.612 328.477 72.0737 325.932 71.5056C323.387 70.9374 319.624 71.1493 318.783 73.4344C318.304 74.7411 319.181 75.9661 320.125 76.9153C322.929 79.7311 326.679 81.832 330.92 82.9635C337.895 84.823 330.415 87.6468 331.796 91.0195C333.329 94.7633 336.706 94.2859 337.479 99.0252C338.451 105.002 334.615 110.583 344.785 107.866C351.471 106.081 357.868 99.0139 361.022 94.0251C363.829 89.5891 365.546 84.3963 366.713 79.6336C367.096 78.0631 367.556 65.689 368.134 65.357Z" fill="#D5FAFD"/>
<path d="M344.07 115.094C362.699 104.653 379.443 91.1267 393.211 75.3947C394.545 73.8694 395.896 72.24 396.319 70.3458C396.741 68.4516 395.91 66.24 393.978 65.6818C392.448 65.2414 390.763 65.9231 389.259 66.5868C384.81 68.5499 380.361 70.5159 375.914 72.478C379.377 66.1814 382.506 59.734 385.281 53.1776C385.978 51.5302 386.431 49.2395 384.8 48.4797C383.904 48.0614 382.792 48.3685 381.804 48.6772C379.323 49.4595 376.84 50.239 374.359 51.0213C375.777 46.7477 376.603 42.3363 376.811 37.9293C376.9 36.0044 376.851 33.9882 375.836 32.3647C374.822 30.744 372.557 29.6937 370.637 30.51C369.617 30.9438 368.87 31.8051 368.216 32.6598C362.851 39.6941 360.97 48.8264 363.24 56.8286C364.171 60.1095 365.429 64.3211 362.425 66.4947C361.349 67.2733 359.97 67.5301 358.753 68.0889C354.079 70.2367 353.021 76.078 353.846 80.711C354.673 85.3402 356.703 89.9213 355.679 94.6126C355.244 96.6063 354.273 98.4966 353.796 100.482C353.321 102.47 353.435 104.73 354.905 106.131C356.374 107.531 359.478 107.382 360.403 105.514" fill="#AAE5EA"/>
<path d="M349.78 98.7052C349.76 98.712 349.741 98.7188 349.717 98.7238C349.414 98.7902 349.115 98.6022 349.049 98.2994L337.634 47.0623C337.568 46.7595 337.759 46.4626 338.058 46.3944C338.361 46.328 338.66 46.5159 338.726 46.8188L350.141 98.0558C350.206 98.334 350.046 98.6136 349.78 98.7052Z" fill="white"/>
<path d="M345.523 79.6249C345.404 79.6658 345.269 79.6681 345.141 79.6174C344.853 79.5078 344.706 79.1822 344.819 78.8936L352.283 59.3694C352.396 59.0808 352.719 58.9348 353.007 59.0472C353.295 59.1568 353.442 59.4825 353.329 59.771L345.865 79.2953C345.801 79.4595 345.673 79.5733 345.523 79.6249Z" fill="white"/>
<path d="M342.703 66.9433C342.545 66.9979 342.361 66.9789 342.21 66.8793L330.865 59.2719C330.607 59.1014 330.54 58.7514 330.711 58.4962C330.883 58.2411 331.228 58.1696 331.487 58.3428L342.832 65.9503C343.09 66.1207 343.157 66.4708 342.986 66.7259C342.915 66.8325 342.814 66.9054 342.703 66.9433Z" fill="white"/>
<path d="M365.628 100.784C365.546 100.812 365.454 100.821 365.365 100.808C365.059 100.765 364.847 100.481 364.89 100.175L370.496 61.6824C370.542 61.3756 370.826 61.1638 371.129 61.208C371.435 61.2513 371.647 61.5356 371.604 61.8414L365.998 100.334C365.968 100.55 365.82 100.718 365.628 100.784Z" fill="white"/>
<path d="M368.75 79.3268C368.535 79.4008 368.286 79.3381 368.133 79.1505L363.241 73.1299C363.048 72.8898 363.084 72.5358 363.324 72.3424C363.563 72.1462 363.918 72.1852 364.111 72.4253L369.003 78.4459C369.197 78.686 369.161 79.04 368.92 79.2334C368.868 79.2736 368.81 79.3063 368.75 79.3268Z" fill="white"/>
<path d="M368.134 85.7843C367.843 85.8846 367.524 85.7318 367.424 85.4407C367.32 85.1477 367.473 84.8294 367.766 84.7253L381.468 79.8903C381.471 79.8894 381.471 79.8894 381.471 79.8894C381.762 79.789 382.08 79.9418 382.181 80.233C382.285 80.526 382.132 80.8442 381.839 80.9483L368.137 85.7833C368.137 85.7833 368.137 85.7833 368.134 85.7843Z" fill="white"/>
</g>
<path d="M172.782 109.834L165.729 130.725L147.342 132.498C147.342 132.498 161.396 120.677 163.331 107.2C165.265 93.7228 172.782 109.834 172.782 109.834Z" fill="#D4A79A"/>
<path d="M199.712 70.5717C199.712 70.5717 201.992 76.371 194.371 90.076C186.75 103.781 177.527 114.729 173.344 112.609C161.784 106.751 159.903 96.9029 157.73 88.295C155.065 77.7394 171.589 58.4119 171.589 58.4119L182.819 55.8672L199.712 70.5717Z" fill="#EAC2AB"/>
<path d="M214.797 70.5221C216.079 67.0317 215.874 63.1134 213.324 59.3412C212.586 58.2495 211.512 57.3885 210.262 57.1681C209.321 57.0015 208.299 57.1963 207.432 56.7888C204.831 55.5741 205.626 51.4611 203.322 49.9389C201.602 48.8036 199.317 50.008 197.264 49.9235C195.713 49.8594 194.322 49.0496 192.946 48.3346C189.071 46.323 185.809 43.2836 181.732 41.5974C178.29 40.1752 174.469 39.5396 170.769 40.3699C166.907 41.2361 163.573 43.8782 161.218 47.348C159.811 49.4238 158.855 51.9044 158.816 54.4209C158.847 52.3529 154.803 53.4548 154.027 54.0596C150.99 56.4224 148.814 62.7803 149.019 66.5705C149.181 69.5713 150.034 72.4287 150.106 75.4475C150.262 82.0514 149.552 93.0452 159.331 93.2246C159.073 89.8624 158.839 86.4361 159.549 83.0996C160.818 77.1568 163.46 69.3023 168.949 65.9247C180.54 58.7979 184.44 77.3362 193.207 80.8444C201.369 84.1169 211.894 78.4253 214.797 70.5221Z" fill="black"/>
<path d="M162.552 72.4267C162.552 72.4267 159.464 66.0765 157.788 73.9874C156.115 81.9009 159.738 84.6403 159.738 84.6403L162.552 72.4267Z" fill="#EAC2AB"/>
<path d="M182.113 184.321C181.275 173.481 179.776 162.015 177.267 151.165C175.327 142.778 173.505 131.292 165.254 126.513C149.798 117.559 139.853 139.664 137.123 151.298C134.012 164.553 134.407 178.516 134.263 192.045C134.135 204.176 132.429 217.546 134.079 229.47C134.371 231.574 135.14 233.731 136.788 235.072C140.978 238.48 145.298 233.962 148.824 231.953C152.123 230.072 155.615 230.382 159.119 229.119C162.196 228.009 163.711 225.708 166.286 223.919C173.041 219.224 180.314 226.776 187.636 225.362C203.55 222.286 191.4 226.625 184.996 194.653C184.343 191.396 182.41 188.18 182.113 184.321Z" fill="#EB008B"/>
<path d="M223.485 160.423C229.53 156.525 231.872 147.776 237.464 143.087C239.742 141.178 242.443 140.045 245.121 138.997C248.945 137.498 252.807 136.116 256.697 134.855C256.453 136.844 254.921 138.318 253.329 139.197C251.738 140.076 249.978 140.575 248.496 141.677C247.843 142.162 247.243 142.782 246.905 143.579C246.144 145.37 246.882 147.523 246.562 149.478C245.959 153.145 242.197 154.642 239.314 156.436C233.361 160.139 229.515 167.434 223.311 170.561C223.311 170.561 176.752 209.219 171.012 208.15C165.272 207.081 157.35 154.355 157.35 154.355C157.35 154.355 151.887 127.18 166.24 140.199C180.594 153.217 171.758 196.462 178.851 191.997C185.939 187.531 223.485 160.423 223.485 160.423Z" fill="#EAC2AB"/>
<path d="M176.576 161.727C176.576 161.727 174.928 128.233 161.036 130.998C147.144 133.763 156.065 171.36 156.065 171.36L178.734 166.506L176.576 161.727Z" fill="#BC006F"/>
<path d="M207.904 243.673H114.142C109.97 243.673 106.556 240.26 106.556 236.088V225.394C106.556 221.222 109.97 217.809 114.142 217.809H207.904C212.076 217.809 215.489 221.222 215.489 225.394V236.088C215.487 240.26 212.073 243.673 207.904 243.673Z" fill="#AAE5EA"/>
<path d="M158.772 250.133H96.0716C93.2809 250.133 91.0001 247.849 91.0001 245.061V237.911C91.0001 235.121 93.2834 232.84 96.0716 232.84H158.772C161.563 232.84 163.844 235.123 163.844 237.911V245.061C163.844 247.852 161.56 250.133 158.772 250.133Z" fill="#1E858E"/>
<path d="M155.535 241.912L155.304 242.194C155.215 242.304 155.051 242.319 154.94 242.23L149.71 237.97C149.6 237.881 149.584 237.717 149.674 237.606L149.905 237.325C149.994 237.214 150.158 237.199 150.269 237.289L155.499 241.548C155.607 241.638 155.625 241.802 155.535 241.912Z" fill="white"/>
<path d="M155.535 241.689L155.304 241.407C155.215 241.296 155.051 241.281 154.94 241.371L149.71 245.63C149.6 245.72 149.584 245.884 149.674 245.994L149.905 246.276C149.994 246.386 150.158 246.401 150.269 246.312L155.499 242.052C155.607 241.96 155.625 241.796 155.535 241.689Z" fill="white"/>
<path d="M148.228 241.912L147.998 242.194C147.908 242.304 147.744 242.319 147.634 242.23L142.404 237.97C142.293 237.881 142.278 237.717 142.368 237.606L142.598 237.325C142.688 237.214 142.852 237.199 142.962 237.289L148.193 241.548C148.303 241.638 148.318 241.802 148.228 241.912Z" fill="white"/>
<path d="M148.228 241.689L147.998 241.407C147.908 241.296 147.744 241.281 147.634 241.371L142.404 245.63C142.293 245.72 142.278 245.884 142.368 245.994L142.598 246.276C142.688 246.386 142.852 246.401 142.962 246.312L148.193 242.052C148.303 241.96 148.318 241.796 148.228 241.689Z" fill="white"/>
<path d="M140.261 241.912L140.03 242.194C139.941 242.304 139.777 242.319 139.666 242.23L134.436 237.97C134.326 237.881 134.311 237.717 134.4 237.606L134.631 237.325C134.721 237.214 134.885 237.199 134.995 237.289L140.225 241.548C140.335 241.638 140.351 241.802 140.261 241.912Z" fill="white"/>
<path d="M140.261 241.689L140.03 241.407C139.941 241.296 139.777 241.281 139.666 241.371L134.436 245.63C134.326 245.72 134.311 245.884 134.4 245.994L134.631 246.276C134.721 246.386 134.885 246.401 134.995 246.312L140.225 242.052C140.335 241.96 140.351 241.796 140.261 241.689Z" fill="white"/>
<path opacity="0.26" d="M305.68 133.252L210.765 166.159C204.743 166.159 199.861 161.277 199.861 155.255V108.389C199.861 102.367 204.743 97.4851 210.765 97.4851L305.68 64.5781C311.703 64.5781 316.584 69.46 316.584 75.4822V122.348C316.584 128.37 311.703 133.252 305.68 133.252Z" fill="#AAE5EA"/>
<path opacity="0.13" d="M299.82 130.488L204.904 163.395C198.882 163.395 194 158.513 194 152.491V105.628C194 99.6053 198.882 94.7234 204.904 94.7234L299.82 61.8164C305.842 61.8164 310.724 66.6983 310.724 72.7205V119.584C310.724 125.606 305.842 130.488 299.82 130.488Z" fill="#AAE5EA"/>
<path opacity="0.39" d="M242.71 116.476L213.424 126.629C211.566 126.629 210.059 125.122 210.059 123.264V108.803C210.059 106.945 211.566 105.438 213.424 105.438L242.71 95.2852C244.568 95.2852 246.075 96.792 246.075 98.6499V113.111C246.075 114.969 244.568 116.476 242.71 116.476Z" fill="white"/>
<path d="M309.097 48.8976L279.811 59.0508C277.953 59.0508 276.447 57.544 276.447 55.6861V41.225C276.447 39.3671 277.953 37.8603 279.811 37.8603L309.097 27.707C310.955 27.707 312.462 29.2139 312.462 31.0718V45.5328C312.462 47.3908 310.955 48.8976 309.097 48.8976Z" fill="#AAE5EA"/>
<path d="M297.995 45.0604L270.267 54.6729C268.507 54.6729 267.082 53.2456 267.082 51.4876V37.7979C267.082 36.0373 268.509 34.6125 270.267 34.6125L297.995 25C299.756 25 301.181 26.4274 301.181 28.1854V41.8751C301.181 43.6356 299.753 45.0604 297.995 45.0604Z" fill="#D5FAFD"/>
<path d="M307.534 156.654L279.807 166.267C278.046 166.267 276.621 164.839 276.621 163.081V149.392C276.621 147.631 278.049 146.206 279.807 146.206L307.534 136.594C309.295 136.594 310.72 138.021 310.72 139.779V153.469C310.72 155.229 309.295 156.654 307.534 156.654Z" fill="#D5FAFD"/>
<path d="M261.522 161.317L232.236 171.47C230.379 171.47 228.872 169.963 228.872 168.105V153.647C228.872 151.789 230.379 150.282 232.236 150.282L261.522 140.129C263.38 140.129 264.887 141.636 264.887 143.494V157.955C264.887 159.81 263.38 161.317 261.522 161.317Z" fill="#AAE5EA"/>
<path opacity="0.51" d="M242.71 142.905L213.424 153.059C211.566 153.059 210.059 151.552 210.059 149.694V135.233C210.059 133.375 211.566 131.868 213.424 131.868L242.71 121.715C244.568 121.715 246.075 123.222 246.075 125.08V139.541C246.075 141.399 244.568 142.905 242.71 142.905Z" fill="white"/>
<path opacity="0.51" d="M256.776 133.932C256.061 133.932 255.474 133.345 255.474 132.63V110.802C255.474 110.087 256.061 109.5 256.776 109.5C257.491 109.5 258.078 110.087 258.078 110.802V132.63C258.078 133.345 257.494 133.932 256.776 133.932Z" fill="white"/>
<path opacity="0.51" d="M263.771 91.2388C263.531 90.5648 263.887 89.8165 264.561 89.5757L299.198 77.216C299.871 76.9751 300.62 77.3313 300.861 78.0053C301.102 78.6793 300.745 79.4276 300.071 79.6684L265.435 92.0281C264.761 92.269 264.012 91.9128 263.771 91.2388Z" fill="white"/>
<path opacity="0.51" d="M263.771 95.9576C263.53 95.2836 263.887 94.5353 264.561 94.2944L299.197 81.9347C299.871 81.6938 300.62 82.0501 300.861 82.724C301.101 83.398 300.745 84.1463 300.071 84.3872L265.434 96.7469C264.76 96.9852 264.012 96.6315 263.771 95.9576Z" fill="white"/>
<path opacity="0.51" d="M263.771 100.676C263.53 100.002 263.887 99.254 264.561 99.0132L299.197 86.6535C299.871 86.4126 300.62 86.7688 300.861 87.4428C301.101 88.1168 300.745 88.8651 300.071 89.1059L265.434 101.466C264.76 101.707 264.012 101.35 263.771 100.676Z" fill="white"/>
<path opacity="0.51" d="M263.771 105.399C263.53 104.725 263.887 103.977 264.561 103.736L299.197 91.3761C299.871 91.1353 300.62 91.4915 300.861 92.1654C301.101 92.8394 300.745 93.5877 300.071 93.8286L265.434 106.188C264.76 106.427 264.012 106.073 263.771 105.399Z" fill="white"/>
<path opacity="0.51" d="M263.771 110.114C263.53 109.44 263.887 108.692 264.561 108.451L299.197 96.091C299.871 95.8501 300.62 96.2063 300.861 96.8803C301.101 97.5543 300.745 98.3026 300.071 98.5434L265.434 110.903C264.76 111.144 264.012 110.788 263.771 110.114Z" fill="white"/>
<path opacity="0.51" d="M263.771 114.833C263.53 114.159 263.887 113.41 264.561 113.169L299.197 100.81C299.871 100.569 300.62 100.925 300.861 101.599C301.101 102.273 300.745 103.021 300.071 103.262L265.434 115.622C264.76 115.863 264.012 115.507 263.771 114.833Z" fill="white"/>
<path opacity="0.51" d="M263.771 119.551C263.53 118.877 263.887 118.129 264.561 117.888L299.197 105.528C299.871 105.288 300.62 105.644 300.861 106.318C301.101 106.992 300.745 107.74 300.071 107.981L265.434 120.341C264.76 120.579 264.012 120.225 263.771 119.551Z" fill="white"/>
<path opacity="0.51" d="M263.771 124.27C263.53 123.596 263.887 122.848 264.561 122.607L299.197 110.247C299.871 110.006 300.62 110.363 300.861 111.037C301.101 111.711 300.745 112.459 300.071 112.7L265.434 125.059C264.76 125.3 264.012 124.944 263.771 124.27Z" fill="white"/>
<path opacity="0.51" d="M263.771 128.993C263.53 128.319 263.887 127.57 264.561 127.33L299.197 114.97C299.871 114.729 300.62 115.085 300.861 115.759C301.101 116.433 300.745 117.181 300.071 117.422L265.434 129.782C264.76 130.02 264.012 129.667 263.771 128.993Z" fill="white"/>
<path opacity="0.51" d="M263.771 133.708C263.53 133.034 263.887 132.285 264.561 132.044L299.197 119.685C299.871 119.444 300.62 119.8 300.861 120.474C301.101 121.148 300.745 121.896 300.071 122.137L265.434 134.497C264.76 134.738 264.012 134.382 263.771 133.708Z" fill="white"/>
<path opacity="0.36" d="M258.185 140.743C261.878 140.743 264.871 137.75 264.871 134.057C264.871 130.364 261.878 127.371 258.185 127.371C254.493 127.371 251.499 130.364 251.499 134.057C251.499 137.75 254.493 140.743 258.185 140.743Z" fill="#EB008B"/>
<path d="M258.184 137.399C260.031 137.399 261.528 135.902 261.528 134.055C261.528 132.208 260.031 130.711 258.184 130.711C256.337 130.711 254.839 132.208 254.839 134.055C254.839 135.902 256.337 137.399 258.184 137.399Z" fill="#EB008B"/>
<path opacity="0.36" d="M258.186 138.784C260.797 138.784 262.914 136.667 262.914 134.056C262.914 131.445 260.797 129.328 258.186 129.328C255.575 129.328 253.458 131.445 253.458 134.056C253.458 136.667 255.575 138.784 258.186 138.784Z" fill="#EB008B"/>
</g>
</svg>
